%TF.GenerationSoftware,KiCad,Pcbnew,8.0.3*%
%TF.CreationDate,2024-06-28T14:01:33-07:00*%
%TF.ProjectId,smartstake-mux-breakout,736d6172-7473-4746-916b-652d6d75782d,rev?*%
%TF.SameCoordinates,Original*%
%TF.FileFunction,Legend,Top*%
%TF.FilePolarity,Positive*%
%FSLAX46Y46*%
G04 Gerber Fmt 4.6, Leading zero omitted, Abs format (unit mm)*
G04 Created by KiCad (PCBNEW 8.0.3) date 2024-06-28 14:01:33*
%MOMM*%
%LPD*%
G01*
G04 APERTURE LIST*
G04 Aperture macros list*
%AMRoundRect*
0 Rectangle with rounded corners*
0 $1 Rounding radius*
0 $2 $3 $4 $5 $6 $7 $8 $9 X,Y pos of 4 corners*
0 Add a 4 corners polygon primitive as box body*
4,1,4,$2,$3,$4,$5,$6,$7,$8,$9,$2,$3,0*
0 Add four circle primitives for the rounded corners*
1,1,$1+$1,$2,$3*
1,1,$1+$1,$4,$5*
1,1,$1+$1,$6,$7*
1,1,$1+$1,$8,$9*
0 Add four rect primitives between the rounded corners*
20,1,$1+$1,$2,$3,$4,$5,0*
20,1,$1+$1,$4,$5,$6,$7,0*
20,1,$1+$1,$6,$7,$8,$9,0*
20,1,$1+$1,$8,$9,$2,$3,0*%
G04 Aperture macros list end*
%ADD10C,0.127000*%
%ADD11C,0.100000*%
%ADD12C,0.150000*%
%ADD13C,0.200000*%
%ADD14C,0.120000*%
%ADD15R,1.700000X1.700000*%
%ADD16O,1.700000X1.700000*%
%ADD17RoundRect,0.137500X0.662500X0.137500X-0.662500X0.137500X-0.662500X-0.137500X0.662500X-0.137500X0*%
G04 APERTURE END LIST*
D10*
X63290694Y-99898538D02*
X63233552Y-99869967D01*
X63233552Y-99869967D02*
X63147837Y-99869967D01*
X63147837Y-99869967D02*
X63062123Y-99898538D01*
X63062123Y-99898538D02*
X63004980Y-99955681D01*
X63004980Y-99955681D02*
X62976409Y-100012824D01*
X62976409Y-100012824D02*
X62947837Y-100127110D01*
X62947837Y-100127110D02*
X62947837Y-100212824D01*
X62947837Y-100212824D02*
X62976409Y-100327110D01*
X62976409Y-100327110D02*
X63004980Y-100384253D01*
X63004980Y-100384253D02*
X63062123Y-100441396D01*
X63062123Y-100441396D02*
X63147837Y-100469967D01*
X63147837Y-100469967D02*
X63204980Y-100469967D01*
X63204980Y-100469967D02*
X63290694Y-100441396D01*
X63290694Y-100441396D02*
X63319266Y-100412824D01*
X63319266Y-100412824D02*
X63319266Y-100212824D01*
X63319266Y-100212824D02*
X63204980Y-100212824D01*
X63576409Y-100469967D02*
X63576409Y-99869967D01*
X63576409Y-99869967D02*
X63919266Y-100469967D01*
X63919266Y-100469967D02*
X63919266Y-99869967D01*
X64204980Y-100469967D02*
X64204980Y-99869967D01*
X64204980Y-99869967D02*
X64347837Y-99869967D01*
X64347837Y-99869967D02*
X64433551Y-99898538D01*
X64433551Y-99898538D02*
X64490694Y-99955681D01*
X64490694Y-99955681D02*
X64519265Y-100012824D01*
X64519265Y-100012824D02*
X64547837Y-100127110D01*
X64547837Y-100127110D02*
X64547837Y-100212824D01*
X64547837Y-100212824D02*
X64519265Y-100327110D01*
X64519265Y-100327110D02*
X64490694Y-100384253D01*
X64490694Y-100384253D02*
X64433551Y-100441396D01*
X64433551Y-100441396D02*
X64347837Y-100469967D01*
X64347837Y-100469967D02*
X64204980Y-100469967D01*
X60790694Y-99898538D02*
X60733552Y-99869967D01*
X60733552Y-99869967D02*
X60647837Y-99869967D01*
X60647837Y-99869967D02*
X60562123Y-99898538D01*
X60562123Y-99898538D02*
X60504980Y-99955681D01*
X60504980Y-99955681D02*
X60476409Y-100012824D01*
X60476409Y-100012824D02*
X60447837Y-100127110D01*
X60447837Y-100127110D02*
X60447837Y-100212824D01*
X60447837Y-100212824D02*
X60476409Y-100327110D01*
X60476409Y-100327110D02*
X60504980Y-100384253D01*
X60504980Y-100384253D02*
X60562123Y-100441396D01*
X60562123Y-100441396D02*
X60647837Y-100469967D01*
X60647837Y-100469967D02*
X60704980Y-100469967D01*
X60704980Y-100469967D02*
X60790694Y-100441396D01*
X60790694Y-100441396D02*
X60819266Y-100412824D01*
X60819266Y-100412824D02*
X60819266Y-100212824D01*
X60819266Y-100212824D02*
X60704980Y-100212824D01*
X61076409Y-100469967D02*
X61076409Y-99869967D01*
X61076409Y-99869967D02*
X61419266Y-100469967D01*
X61419266Y-100469967D02*
X61419266Y-99869967D01*
X61704980Y-100469967D02*
X61704980Y-99869967D01*
X61704980Y-99869967D02*
X61847837Y-99869967D01*
X61847837Y-99869967D02*
X61933551Y-99898538D01*
X61933551Y-99898538D02*
X61990694Y-99955681D01*
X61990694Y-99955681D02*
X62019265Y-100012824D01*
X62019265Y-100012824D02*
X62047837Y-100127110D01*
X62047837Y-100127110D02*
X62047837Y-100212824D01*
X62047837Y-100212824D02*
X62019265Y-100327110D01*
X62019265Y-100327110D02*
X61990694Y-100384253D01*
X61990694Y-100384253D02*
X61933551Y-100441396D01*
X61933551Y-100441396D02*
X61847837Y-100469967D01*
X61847837Y-100469967D02*
X61704980Y-100469967D01*
X58190694Y-99898538D02*
X58133552Y-99869967D01*
X58133552Y-99869967D02*
X58047837Y-99869967D01*
X58047837Y-99869967D02*
X57962123Y-99898538D01*
X57962123Y-99898538D02*
X57904980Y-99955681D01*
X57904980Y-99955681D02*
X57876409Y-100012824D01*
X57876409Y-100012824D02*
X57847837Y-100127110D01*
X57847837Y-100127110D02*
X57847837Y-100212824D01*
X57847837Y-100212824D02*
X57876409Y-100327110D01*
X57876409Y-100327110D02*
X57904980Y-100384253D01*
X57904980Y-100384253D02*
X57962123Y-100441396D01*
X57962123Y-100441396D02*
X58047837Y-100469967D01*
X58047837Y-100469967D02*
X58104980Y-100469967D01*
X58104980Y-100469967D02*
X58190694Y-100441396D01*
X58190694Y-100441396D02*
X58219266Y-100412824D01*
X58219266Y-100412824D02*
X58219266Y-100212824D01*
X58219266Y-100212824D02*
X58104980Y-100212824D01*
X58476409Y-100469967D02*
X58476409Y-99869967D01*
X58476409Y-99869967D02*
X58819266Y-100469967D01*
X58819266Y-100469967D02*
X58819266Y-99869967D01*
X59104980Y-100469967D02*
X59104980Y-99869967D01*
X59104980Y-99869967D02*
X59247837Y-99869967D01*
X59247837Y-99869967D02*
X59333551Y-99898538D01*
X59333551Y-99898538D02*
X59390694Y-99955681D01*
X59390694Y-99955681D02*
X59419265Y-100012824D01*
X59419265Y-100012824D02*
X59447837Y-100127110D01*
X59447837Y-100127110D02*
X59447837Y-100212824D01*
X59447837Y-100212824D02*
X59419265Y-100327110D01*
X59419265Y-100327110D02*
X59390694Y-100384253D01*
X59390694Y-100384253D02*
X59333551Y-100441396D01*
X59333551Y-100441396D02*
X59247837Y-100469967D01*
X59247837Y-100469967D02*
X59104980Y-100469967D01*
X55690694Y-99898538D02*
X55633552Y-99869967D01*
X55633552Y-99869967D02*
X55547837Y-99869967D01*
X55547837Y-99869967D02*
X55462123Y-99898538D01*
X55462123Y-99898538D02*
X55404980Y-99955681D01*
X55404980Y-99955681D02*
X55376409Y-100012824D01*
X55376409Y-100012824D02*
X55347837Y-100127110D01*
X55347837Y-100127110D02*
X55347837Y-100212824D01*
X55347837Y-100212824D02*
X55376409Y-100327110D01*
X55376409Y-100327110D02*
X55404980Y-100384253D01*
X55404980Y-100384253D02*
X55462123Y-100441396D01*
X55462123Y-100441396D02*
X55547837Y-100469967D01*
X55547837Y-100469967D02*
X55604980Y-100469967D01*
X55604980Y-100469967D02*
X55690694Y-100441396D01*
X55690694Y-100441396D02*
X55719266Y-100412824D01*
X55719266Y-100412824D02*
X55719266Y-100212824D01*
X55719266Y-100212824D02*
X55604980Y-100212824D01*
X55976409Y-100469967D02*
X55976409Y-99869967D01*
X55976409Y-99869967D02*
X56319266Y-100469967D01*
X56319266Y-100469967D02*
X56319266Y-99869967D01*
X56604980Y-100469967D02*
X56604980Y-99869967D01*
X56604980Y-99869967D02*
X56747837Y-99869967D01*
X56747837Y-99869967D02*
X56833551Y-99898538D01*
X56833551Y-99898538D02*
X56890694Y-99955681D01*
X56890694Y-99955681D02*
X56919265Y-100012824D01*
X56919265Y-100012824D02*
X56947837Y-100127110D01*
X56947837Y-100127110D02*
X56947837Y-100212824D01*
X56947837Y-100212824D02*
X56919265Y-100327110D01*
X56919265Y-100327110D02*
X56890694Y-100384253D01*
X56890694Y-100384253D02*
X56833551Y-100441396D01*
X56833551Y-100441396D02*
X56747837Y-100469967D01*
X56747837Y-100469967D02*
X56604980Y-100469967D01*
D11*
X65844118Y-85422064D02*
X65844117Y-85063240D01*
X60448391Y-86733628D02*
X60386177Y-86686314D01*
X61917280Y-86652418D02*
X61801432Y-86579768D01*
X61220467Y-86917093D02*
X61396979Y-86966405D01*
X65886467Y-83842303D02*
X65862549Y-83831222D01*
X59974692Y-86882512D02*
X60018488Y-86914556D01*
X64414264Y-84321338D02*
X64423289Y-84319923D01*
X64260970Y-87667303D02*
X64260994Y-87667305D01*
X65023899Y-84237355D02*
X65032881Y-84228278D01*
X65216737Y-87625872D02*
X65217527Y-86499952D01*
X65156351Y-86917694D02*
X65157666Y-86909050D01*
X65125510Y-85346046D02*
X64481865Y-85441892D01*
X61510052Y-86298829D02*
X61514126Y-86316692D01*
X64016958Y-86988014D02*
X63991947Y-86857190D01*
X65572119Y-83534976D02*
X65287737Y-82741351D01*
X65525868Y-84372404D02*
X65484999Y-84372604D01*
X59932869Y-86867062D02*
X59974692Y-86882512D01*
X70000000Y-96600000D02*
X70000000Y-83550000D01*
X65611524Y-85243192D02*
X65619101Y-85250373D01*
X60611138Y-86091264D02*
X60581905Y-86183332D01*
X60514310Y-86241888D02*
X60509796Y-86159104D01*
X64333490Y-84132816D02*
X64783806Y-84064832D01*
X65189471Y-84704049D02*
X65189471Y-85336284D01*
X64871334Y-85184724D02*
X64874758Y-85225659D01*
X65498886Y-83734909D02*
X65357336Y-83696417D01*
X64398079Y-85327711D02*
X64409496Y-85326103D01*
X60805520Y-85863103D02*
X60716828Y-85935196D01*
X65610114Y-84460073D02*
X65609504Y-84848449D01*
X65189524Y-87653531D02*
X65519222Y-87653531D01*
X65844117Y-85063240D02*
X65842582Y-84456850D01*
X64509844Y-87151522D02*
X64468482Y-87183991D01*
X64431042Y-85744485D02*
X64292260Y-85735834D01*
X65857371Y-85424634D02*
X65844118Y-85422064D01*
X64073720Y-86314733D02*
X64128120Y-86249604D01*
X64783806Y-84064832D02*
X65185435Y-84003930D01*
X64616923Y-86484374D02*
X64617998Y-86489560D01*
X63695929Y-87616946D02*
X63648862Y-87474628D01*
X59702093Y-86211315D02*
X59841683Y-86214164D01*
X64234723Y-85627247D02*
X64234123Y-85737013D01*
X61219658Y-86162955D02*
X61281545Y-86159035D01*
X65152856Y-86489560D02*
X65151340Y-86481493D01*
X59900638Y-86498426D02*
X59849200Y-86513453D01*
X60371615Y-86577832D02*
X60422195Y-86521208D01*
X61701405Y-87602097D02*
X61826188Y-87541736D01*
X64008712Y-87621431D02*
X64129855Y-87651355D01*
X62167317Y-87618957D02*
X62443227Y-87618957D01*
X60218377Y-85835911D02*
X60141307Y-85814284D01*
X65188728Y-83705016D02*
X65190253Y-83771182D01*
X64661647Y-85258930D02*
X64667305Y-85264588D01*
X65502921Y-83509302D02*
X65502921Y-83622242D01*
X65324401Y-85208024D02*
X65324397Y-85208025D01*
X64292260Y-85735834D02*
X64262851Y-85735834D01*
X65014212Y-86074760D02*
X64947859Y-85988287D01*
X64454252Y-84861126D02*
X64457167Y-85293249D01*
X59673326Y-86851435D02*
X59876743Y-86857561D01*
X65532137Y-83504387D02*
X65518171Y-83509302D01*
X65140089Y-86406549D02*
X65110504Y-86284088D01*
X64249143Y-83843712D02*
X64248548Y-83979039D01*
X64352175Y-86187549D02*
X64440692Y-86211771D01*
X50000000Y-44450000D02*
X50000000Y-57500000D01*
X64212596Y-84202400D02*
X64235120Y-84211222D01*
X65447622Y-84418585D02*
X65447621Y-84818704D01*
X60786517Y-86752258D02*
X60875884Y-86802986D01*
X63429865Y-86557556D02*
X63423460Y-86754611D01*
X65272994Y-84787658D02*
X65276549Y-85194131D01*
X65766275Y-84340218D02*
X65765410Y-84811179D01*
X65082401Y-83417972D02*
X64992672Y-83693022D01*
X64465837Y-83405610D02*
X64415039Y-83253124D01*
X65110504Y-86284088D02*
X65068486Y-86173426D01*
X64212839Y-83812755D02*
X64207513Y-83826474D01*
X65191778Y-83971670D02*
X65089786Y-83987058D01*
X61116191Y-86221826D02*
X61137903Y-86194007D01*
X65815706Y-84811264D02*
X65815699Y-84811260D01*
X59892020Y-87187107D02*
X59892020Y-87187104D01*
X64881685Y-85231080D02*
X64881688Y-85231081D01*
X64703142Y-84247773D02*
X64384156Y-84295727D01*
X64187403Y-84124697D02*
X64179998Y-84132866D01*
X60454789Y-86007385D02*
X60407060Y-85947550D01*
X59455527Y-87618955D02*
X59949352Y-87616625D01*
X65808915Y-83859618D02*
X65814101Y-83861853D01*
X64874758Y-85225659D02*
X64881685Y-85231080D01*
X64260994Y-87667305D02*
X64448503Y-87662971D01*
X59563223Y-86210090D02*
X59702093Y-86211315D01*
X65887914Y-84178900D02*
X65863267Y-84168650D01*
X64161248Y-87183913D02*
X64122392Y-87158666D01*
X81000000Y-70500000D02*
X70000000Y-70500000D01*
X65863267Y-84168650D02*
X65842965Y-84162334D01*
X64278749Y-84140845D02*
X64333490Y-84132816D01*
X65673477Y-83352761D02*
X65680491Y-83562295D01*
X60875884Y-86802986D02*
X61012362Y-86858480D01*
X65875234Y-84118400D02*
X65842238Y-84109794D01*
X64881688Y-85231081D02*
X64892140Y-85231906D01*
X64592761Y-87012633D02*
X64571390Y-87066092D01*
X64567913Y-86329574D02*
X64603994Y-86420727D01*
X65082186Y-82604827D02*
X65170676Y-83144377D01*
X64477116Y-85303423D02*
X64547145Y-85293401D01*
X64481865Y-85441891D02*
X64276344Y-85472129D01*
X63081673Y-85784331D02*
X62794575Y-85784296D01*
X64032459Y-86400399D02*
X64073720Y-86314733D01*
X60315558Y-86628059D02*
X60371615Y-86577832D01*
X65842250Y-84151315D02*
X65842416Y-84141935D01*
X65226759Y-83976043D02*
X65225269Y-83948384D01*
X64288888Y-83791399D02*
X64397595Y-83323112D01*
X60716828Y-85935196D02*
X60656097Y-86008588D01*
X59970286Y-86437899D02*
X59941175Y-86473089D01*
X64235323Y-85517480D02*
X64234723Y-85627247D01*
X65050291Y-83600922D02*
X65127623Y-83361112D01*
X65547049Y-85244637D02*
X65553443Y-85240837D01*
X65889059Y-83867867D02*
X65892517Y-83855954D01*
X65812528Y-84154607D02*
X65751867Y-84142974D01*
X64415039Y-83253124D02*
X64413150Y-83247749D01*
X64481865Y-85441892D02*
X64481865Y-85441891D01*
X65375532Y-85217010D02*
X65384422Y-85215351D01*
X65881596Y-84212589D02*
X65893696Y-84196759D01*
X60311182Y-87533689D02*
X60379927Y-87494251D01*
X64208321Y-84189830D02*
X64212596Y-84202400D01*
X61518806Y-87029865D02*
X61541215Y-87057269D01*
X63613055Y-87346339D02*
X63697254Y-87439966D01*
X64996984Y-81931214D02*
X64984314Y-81930390D01*
X59841683Y-86214164D02*
X59898453Y-86223445D01*
X61495470Y-86259070D02*
X61510052Y-86298829D01*
X62302713Y-86394482D02*
X62097287Y-87005517D01*
X64401805Y-83246095D02*
X64387626Y-83245845D01*
X64740590Y-84089949D02*
X64284220Y-84156443D01*
X60576609Y-87028091D02*
X60564426Y-86944628D01*
X65383514Y-84377528D02*
X65371347Y-84354632D01*
X61534456Y-87174881D02*
X61511551Y-87196809D01*
X64993959Y-84307142D02*
X64967732Y-84297629D01*
X64207513Y-83826474D02*
X64213589Y-83840502D01*
X50000000Y-83600000D02*
X50000000Y-96650000D01*
X60438772Y-87444984D02*
X60506426Y-87360617D01*
X64571390Y-87066092D02*
X64543697Y-87112498D01*
X59714814Y-87191910D02*
X59563267Y-87192945D01*
X81000000Y-57450000D02*
X70000000Y-57450000D01*
X39000000Y-70550000D02*
X50000000Y-70550000D01*
X65157666Y-86909050D02*
X64886681Y-86909050D01*
X63897337Y-87577467D02*
X64008712Y-87621431D01*
X64237423Y-83804795D02*
X64212839Y-83812755D01*
X65788855Y-84316078D02*
X65292626Y-84215932D01*
X60836174Y-87551257D02*
X60934605Y-87600849D01*
X65893696Y-84196759D02*
X65887914Y-84178900D01*
X65814096Y-83984061D02*
X65811216Y-84106019D01*
X81000000Y-70500000D02*
X70000000Y-70500000D01*
X60912149Y-85806940D02*
X60805520Y-85863103D01*
X64381271Y-84612001D02*
X64382756Y-85119346D01*
X64617998Y-86489560D02*
X64885427Y-86489560D01*
X59563223Y-86517176D02*
X59563223Y-86363633D01*
X64547149Y-84350369D02*
X64513763Y-84351405D01*
X62702773Y-86663065D02*
X62790726Y-86341532D01*
X60509796Y-86159104D02*
X60488782Y-86077502D01*
X62507477Y-85784262D02*
X62302713Y-86394482D01*
X64309140Y-87219589D02*
X64253419Y-87214875D01*
X61359888Y-86165031D02*
X61423297Y-86187036D01*
X64615696Y-86909050D02*
X64614691Y-86914236D01*
X50000000Y-57500000D02*
X50000000Y-70550000D01*
X62443227Y-87618957D02*
X62475321Y-87497940D01*
X64667304Y-85264588D02*
X64674999Y-85270245D01*
X60934605Y-87600849D02*
X61043501Y-87637186D01*
X65384422Y-85215351D02*
X65388631Y-85177468D01*
X62615571Y-86991445D02*
X62702773Y-86663065D01*
X65716798Y-83788023D02*
X65703779Y-83400513D01*
X60030686Y-87112843D02*
X59999064Y-87147677D01*
X64544985Y-87646799D02*
X64635500Y-87621484D01*
X62090886Y-86959760D02*
X62080081Y-86899239D01*
X60499703Y-86793585D02*
X60448391Y-86733628D01*
X65032881Y-84228278D02*
X65032366Y-84215402D01*
X64879041Y-84342383D02*
X64871214Y-84373404D01*
X64547145Y-85293401D02*
X64615716Y-85280465D01*
X65751867Y-84142974D02*
X65464907Y-84078679D01*
X65205223Y-83160107D02*
X65117976Y-82635777D01*
X64236130Y-85373347D02*
X64229821Y-85479069D01*
X65226689Y-84070607D02*
X65713771Y-84178826D01*
X62507416Y-87376924D02*
X62788568Y-87377509D01*
X65190253Y-83771182D02*
X65191778Y-83904509D01*
X64457167Y-85293249D02*
X64465638Y-85301747D01*
X61163953Y-87660720D02*
X61270772Y-87666750D01*
X64253419Y-87214875D02*
X64205430Y-87202722D01*
X65354438Y-84339707D02*
X65333963Y-84336255D01*
X64667305Y-85264588D02*
X64667304Y-85264588D01*
X65848921Y-87653531D02*
X65847671Y-87122826D01*
X65703910Y-85267687D02*
X65713546Y-85266538D01*
X65840657Y-83823763D02*
X65839957Y-83808910D01*
X64995098Y-82077122D02*
X65082186Y-82604827D01*
X39000000Y-83600000D02*
X50000000Y-83600000D01*
X64281388Y-84108579D02*
X64276733Y-83973742D01*
X64795763Y-84343307D02*
X64757057Y-84327288D01*
X65718140Y-85231041D02*
X65719581Y-84869256D01*
X65454255Y-84404755D02*
X65447622Y-84418585D01*
X64270195Y-85473359D02*
X64271160Y-85054302D01*
X64869579Y-84806030D02*
X64871334Y-85184724D01*
X61592920Y-85771325D02*
X61436902Y-85741088D01*
X61137903Y-86194007D02*
X61172085Y-86174498D01*
X64823049Y-85244833D02*
X64827598Y-84814451D01*
X65811195Y-83817964D02*
X65763368Y-83805691D01*
X64277643Y-83838905D02*
X65182763Y-83706271D01*
X59563267Y-87022184D02*
X59563267Y-86851423D01*
X60550850Y-87260543D02*
X60560419Y-87229505D01*
X64374476Y-83784781D02*
X64374476Y-83784781D01*
X64962403Y-85221746D02*
X65031550Y-85207921D01*
X65231536Y-84026373D02*
X65226349Y-84019588D01*
X65845171Y-86030476D02*
X65843921Y-85468826D01*
X61950138Y-87444937D02*
X61919931Y-87534252D01*
X65769015Y-85285412D02*
X65769002Y-85285411D01*
X64384156Y-84295727D02*
X64381271Y-84612001D01*
X59563223Y-86363633D02*
X59563223Y-86210090D01*
X63415928Y-87618956D02*
X63695929Y-87616946D01*
X64213589Y-83840502D02*
X64234352Y-83845092D01*
X61068256Y-87054251D02*
X60823179Y-87054251D01*
X65189524Y-86490571D02*
X65189524Y-87072051D01*
D12*
X80151000Y-41500000D02*
G75*
G02*
X76849000Y-41500000I-1651000J0D01*
G01*
X76849000Y-41500000D02*
G75*
G02*
X80151000Y-41500000I1651000J0D01*
G01*
D11*
X81000000Y-83550000D02*
X70000000Y-83550000D01*
X64275065Y-84206277D02*
X64859870Y-84120205D01*
X64216051Y-85502452D02*
X64228486Y-85516115D01*
X64757057Y-84327288D02*
X64709040Y-84331978D01*
X63425380Y-86806976D02*
X63253268Y-86295911D01*
X62036711Y-86789346D02*
X62004148Y-86739979D01*
X65707395Y-84435544D02*
X65691330Y-84415610D01*
X65546710Y-83745496D02*
X65672287Y-83343774D01*
X60747117Y-87487957D02*
X60836174Y-87551257D01*
X64180266Y-84144084D02*
X64193909Y-84152638D01*
X64060004Y-87087802D02*
X64016958Y-86988014D01*
X61281545Y-86159035D02*
X61359888Y-86165031D01*
X65881056Y-85431181D02*
X65857371Y-85424634D01*
X60509721Y-86322446D02*
X60514310Y-86241888D01*
X60581905Y-86183332D02*
X60568352Y-86284898D01*
X60568352Y-86284898D02*
X60572347Y-86406578D01*
X65842582Y-84456850D02*
X65841047Y-84209284D01*
X64122392Y-87158666D02*
X64088699Y-87126717D01*
X59989788Y-86354855D02*
X59987448Y-86393311D01*
X61173294Y-87206436D02*
X61114267Y-87156454D01*
X60379927Y-87494251D02*
X60438772Y-87444984D01*
X63795530Y-87519400D02*
X63897337Y-87577467D01*
X64241615Y-84146559D02*
X64248075Y-84146541D01*
X61387818Y-87665250D02*
X61555124Y-87643328D01*
X61826188Y-87541736D02*
X61928998Y-87462422D01*
X59921135Y-85787061D02*
X59471622Y-85784895D01*
X61182436Y-85741065D02*
X61037519Y-85766372D01*
X64263451Y-85624749D02*
X64264051Y-85513664D01*
X64088699Y-87126717D02*
X64060004Y-87087802D01*
X61549108Y-87149145D02*
X61534456Y-87174881D01*
X64276733Y-83973742D02*
X64277643Y-83838905D01*
X65178017Y-83212446D02*
X65187198Y-83496453D01*
X64481848Y-83451532D02*
X64978831Y-81998472D01*
X64886272Y-87476099D02*
X64964283Y-87397131D01*
X59955363Y-86254532D02*
X59981545Y-86296151D01*
X65183132Y-84072979D02*
X65189471Y-84071814D01*
X59941175Y-86473089D02*
X59900638Y-86498426D01*
X65188858Y-83665070D02*
X65108071Y-83677343D01*
X60506426Y-87360617D02*
X60550850Y-87260543D01*
X64382756Y-85119346D02*
X64387531Y-85321795D01*
X59930912Y-86235889D02*
X59955363Y-86254532D01*
X61722683Y-85822480D02*
X61592920Y-85771325D01*
X63756584Y-85915142D02*
X63675569Y-85991612D01*
X60055296Y-87606253D02*
X60150260Y-87589123D01*
X65768772Y-83528955D02*
X65697735Y-83263183D01*
X64193909Y-84152638D02*
X64241615Y-84146559D01*
X63538601Y-86184763D02*
X63488936Y-86299916D01*
X65182763Y-83706271D02*
X65188728Y-83705016D01*
X64370369Y-87217264D02*
X64309140Y-87219589D01*
X64661647Y-84829446D02*
X64661647Y-85258930D01*
X65189470Y-85917603D02*
X65189467Y-85917591D01*
X64423289Y-84319923D02*
X64725035Y-84279135D01*
X65031550Y-85207921D02*
X65036195Y-84779814D01*
X63488936Y-86299916D02*
X63452305Y-86425255D01*
X81000000Y-96600000D02*
X70000000Y-96600000D01*
X65814101Y-83984062D02*
X65814096Y-83984061D01*
X65819720Y-87008733D02*
X65820784Y-87625872D01*
X64276344Y-85472129D02*
X64270195Y-85473359D01*
X65789609Y-85284376D02*
X65794953Y-84805463D01*
X65036195Y-84356352D02*
X65031172Y-84345480D01*
X65518171Y-83509302D02*
X65502921Y-83509302D01*
X64413150Y-83247749D02*
X64401805Y-83246095D01*
X39000000Y-70550000D02*
X50000000Y-70550000D01*
X65841047Y-84209284D02*
X65848920Y-84211039D01*
X61514126Y-86316692D02*
X61781241Y-86316692D01*
X65023515Y-84207035D02*
X64703142Y-84247773D01*
X62790726Y-86341532D02*
X62881965Y-86669911D01*
X65794853Y-84324656D02*
X65788855Y-84316078D01*
X65502921Y-83622242D02*
X65502921Y-83622240D01*
X65224489Y-83812187D02*
X65225198Y-83703648D01*
X65191778Y-83904509D02*
X65191778Y-83971670D01*
X64524744Y-83581067D02*
X64481848Y-83451532D01*
X64238380Y-84739517D02*
X64236130Y-85373347D01*
X65671679Y-83259233D02*
X65601939Y-83480848D01*
X64387536Y-85321793D02*
X64398079Y-85327711D01*
X64954922Y-83699763D02*
X64753135Y-83729335D01*
X59695348Y-86517176D02*
X59563223Y-86517176D01*
X64798848Y-87543350D02*
X64886272Y-87476099D01*
X64414914Y-83437850D02*
X64446906Y-83773194D01*
X64179998Y-84132866D02*
X64180266Y-84144084D01*
X39000000Y-83600000D02*
X50000000Y-83600000D01*
X58998541Y-86701520D02*
X58998541Y-87618955D01*
X64374476Y-83784781D02*
X64295371Y-83796630D01*
X65189467Y-85917591D02*
X65187737Y-86457971D01*
X64422737Y-87205652D02*
X64370369Y-87217264D01*
X62097287Y-87005517D02*
X62090886Y-86959760D01*
X60578103Y-87054251D02*
X60576609Y-87028091D01*
X62007572Y-86146883D02*
X61944822Y-86021665D01*
X59898453Y-86223445D02*
X59930912Y-86235889D01*
X65189470Y-84013788D02*
X65189470Y-84024593D01*
X61511551Y-87196809D02*
X61479755Y-87215738D01*
X64678099Y-85803995D02*
X64565204Y-85768264D01*
X65717211Y-84465835D02*
X65707395Y-84435544D01*
X62046817Y-86304592D02*
X62031257Y-86226297D01*
X65680491Y-83562295D02*
X65680491Y-83562295D01*
X62048357Y-86316692D02*
X62046817Y-86304592D01*
X60645489Y-86611414D02*
X60714518Y-86694236D01*
X63697254Y-87439966D02*
X63795530Y-87519400D01*
X60598079Y-86515473D02*
X60645489Y-86611414D01*
X39000000Y-57500000D02*
X50000000Y-57500000D01*
X59471622Y-85784895D02*
X58998541Y-85784085D01*
X61541215Y-87057269D02*
X61553935Y-87087356D01*
X64227924Y-84164998D02*
X64212866Y-84173772D01*
X65545570Y-85379657D02*
X65254906Y-85335827D01*
X65500630Y-85235232D02*
X65500630Y-85235208D01*
X65451651Y-85222429D02*
X65500630Y-85235232D01*
X64248548Y-83979039D02*
X64247953Y-84114367D01*
X59949352Y-87616625D02*
X60055296Y-87606253D01*
X63975390Y-85790389D02*
X63861733Y-85843931D01*
D12*
X43151000Y-98500000D02*
G75*
G02*
X39849000Y-98500000I-1651000J0D01*
G01*
X39849000Y-98500000D02*
G75*
G02*
X43151000Y-98500000I1651000J0D01*
G01*
D11*
X50000000Y-70550000D02*
X50000000Y-83600000D01*
X65189471Y-84071814D02*
X65189471Y-84704049D01*
X61310541Y-85736779D02*
X61182436Y-85741065D01*
X63134621Y-87613770D02*
X63135926Y-87618956D01*
X63135926Y-87618956D02*
X63415928Y-87618956D01*
X65813683Y-84144211D02*
X65812528Y-84154607D01*
X65189470Y-85378208D02*
X65189470Y-85917603D01*
X64779624Y-85852707D02*
X64678099Y-85803995D01*
X65031172Y-84345480D02*
X65015858Y-84323497D01*
X65769002Y-85285411D02*
X65789609Y-85284376D01*
X62788568Y-87377509D02*
X63069721Y-87378094D01*
X63069721Y-87378094D02*
X63101519Y-87493339D01*
X65225198Y-83703648D02*
X65279364Y-83718085D01*
X64486808Y-84364239D02*
X64467316Y-84388057D01*
X39000000Y-57500000D02*
X50000000Y-57500000D01*
X61455565Y-86461885D02*
X61289612Y-86415397D01*
X65519222Y-87653531D02*
X65848921Y-87653531D01*
X65529155Y-84292144D02*
X65766275Y-84340218D01*
X60692336Y-87436264D02*
X60747117Y-87487957D01*
X59563267Y-87192945D02*
X59563267Y-87022184D01*
X64288763Y-83796974D02*
X64288888Y-83791399D01*
X61556148Y-87118789D02*
X61549108Y-87149145D01*
X65697735Y-83263183D02*
X65671679Y-83259233D01*
X61465078Y-86217488D02*
X61495470Y-86259070D01*
X64129855Y-87651355D02*
X64260970Y-87667303D01*
X61899861Y-85962053D02*
X61847454Y-85908630D01*
X64674428Y-84362885D02*
X64666752Y-84379609D01*
X60386177Y-86686314D02*
X60314405Y-86652913D01*
X65811216Y-84106019D02*
X65517547Y-84040906D01*
X65254906Y-85335827D02*
X65229304Y-85331977D01*
X60714518Y-86694236D02*
X60786517Y-86752258D01*
X65108071Y-83677343D02*
X65024829Y-83689084D01*
X64212866Y-84173772D02*
X64208321Y-84189830D01*
X59849200Y-86513453D02*
X59849200Y-86513451D01*
X64827597Y-84388621D02*
X64820869Y-84374401D01*
X65910274Y-84130888D02*
X65875234Y-84118400D01*
X65311355Y-84340757D02*
X65292960Y-84354709D01*
X39000000Y-44450000D02*
X50000000Y-44450000D01*
X65839873Y-83989768D02*
X65841778Y-83871192D01*
X65217527Y-86499952D02*
X65221432Y-85372837D01*
X65794953Y-84805463D02*
X65794853Y-84324656D01*
X64246746Y-84161007D02*
X64227924Y-84164998D01*
X65172199Y-86481999D02*
X65189524Y-86490571D01*
X65847671Y-87122826D02*
X65845171Y-86030476D01*
X64229821Y-85479069D02*
X64221003Y-85483989D01*
X61847454Y-85908630D02*
X61788197Y-85861928D01*
X61037519Y-85766372D02*
X60912149Y-85806940D01*
D12*
X43151000Y-41500000D02*
G75*
G02*
X39849000Y-41500000I-1651000J0D01*
G01*
X39849000Y-41500000D02*
G75*
G02*
X43151000Y-41500000I1651000J0D01*
G01*
D11*
X63988423Y-86635920D02*
X64004104Y-86507246D01*
X64636919Y-84055514D02*
X64281388Y-84108579D01*
X64234123Y-85737013D02*
X64224904Y-85737573D01*
X64586441Y-84364669D02*
X64547149Y-84350369D01*
X60643540Y-87377638D02*
X60692336Y-87436264D01*
X65288060Y-84240556D02*
X65529155Y-84292144D01*
X70000000Y-70500000D02*
X70000000Y-57450000D01*
X59987448Y-86393311D02*
X59970286Y-86437899D01*
X65292626Y-84215932D02*
X65282683Y-84232623D01*
X65117976Y-82635777D02*
X65031272Y-82110907D01*
X65278519Y-84375662D02*
X65273594Y-84386316D01*
X64978831Y-81998472D02*
X64995098Y-82077122D01*
X65672287Y-83343774D02*
X65673477Y-83352761D01*
X61663433Y-86522438D02*
X61455565Y-86461885D01*
X65127623Y-83361112D02*
X65178017Y-83212446D01*
X65843921Y-85468826D02*
X65860894Y-85470111D01*
X65815875Y-85460391D02*
X65817265Y-85925993D01*
X60823179Y-87054251D02*
X60578103Y-87054251D01*
X61270772Y-87666750D02*
X61387818Y-87665250D01*
X65814150Y-83812974D02*
X65811195Y-83817964D01*
X65189524Y-87072051D02*
X65189524Y-87653531D01*
X65084325Y-87198964D02*
X65126118Y-87075525D01*
X64414003Y-85315225D02*
X64416161Y-85258664D01*
X65841778Y-83871192D02*
X65858509Y-83874797D01*
X61423297Y-86187036D02*
X61465078Y-86217488D01*
X64869604Y-85914203D02*
X64779624Y-85852707D01*
X64277740Y-84156296D02*
X64276729Y-84149214D01*
X65551375Y-83536981D02*
X65572119Y-83534976D01*
X64446906Y-83773194D02*
X64374476Y-83784781D01*
X64284220Y-84156443D02*
X64277740Y-84156296D01*
X64237602Y-86191834D02*
X64291483Y-86185940D01*
X65644523Y-84413343D02*
X65615259Y-84447370D01*
X64543697Y-87112498D02*
X64509844Y-87151522D01*
X64614691Y-86914236D02*
X64607650Y-86952451D01*
X64448503Y-87662971D02*
X64544985Y-87646799D01*
X64322601Y-83523419D02*
X64257644Y-83801195D01*
X61012362Y-86858480D02*
X61220467Y-86917093D01*
X60141307Y-85814284D02*
X60054187Y-85798252D01*
X64947859Y-85988287D02*
X64869604Y-85914203D01*
X61116339Y-86305851D02*
X61108677Y-86263698D01*
X60044130Y-86960543D02*
X60051703Y-87013003D01*
X64387531Y-85321795D02*
X64387536Y-85321793D01*
X65464907Y-84078679D02*
X65231536Y-84026373D01*
X65601939Y-83480848D02*
X65531966Y-83704087D01*
X65765410Y-84811179D02*
X65769015Y-85285412D01*
X65609504Y-84848449D02*
X65611524Y-85243192D01*
X64709040Y-84331978D02*
X64689526Y-84344383D01*
X64128120Y-86249604D02*
X64177796Y-86214523D01*
X65531966Y-83704087D02*
X65530831Y-83621687D01*
X81000000Y-57450000D02*
X70000000Y-57450000D01*
X61419586Y-87235909D02*
X61341474Y-87244694D01*
X64456322Y-84422042D02*
X64454252Y-84861126D01*
X64379296Y-85496904D02*
X65183131Y-85379488D01*
X65189470Y-84024593D02*
X64740590Y-84089949D01*
X65024829Y-83689084D02*
X65050291Y-83600922D01*
X70000000Y-57450000D02*
X70000000Y-44400000D01*
X59849200Y-86513451D02*
X59695348Y-86517176D01*
X64221003Y-85483989D02*
X64216051Y-85502452D01*
X65229230Y-84014139D02*
X65522528Y-84074824D01*
X65032366Y-84215402D02*
X65023515Y-84207035D01*
X60564426Y-86944628D02*
X60538769Y-86864915D01*
X65862549Y-83831222D02*
X65840657Y-83823763D01*
X63675569Y-85991612D02*
X63600143Y-86083021D01*
X64613313Y-86463054D02*
X64616923Y-86484374D01*
X64262851Y-85735834D02*
X64263451Y-85624749D01*
X64264051Y-85513664D02*
X64379296Y-85496904D01*
X61223939Y-86391059D02*
X61174126Y-86365295D01*
X39000000Y-96650000D02*
X50000000Y-96650000D01*
X62031257Y-86226297D02*
X62007572Y-86146883D01*
X64513042Y-86259518D02*
X64567913Y-86329574D01*
X65616433Y-83766440D02*
X65546710Y-83745496D01*
X65842416Y-84141935D02*
X65847555Y-84141808D01*
X65287737Y-82741351D02*
X65001663Y-81941826D01*
X65282683Y-84232623D02*
X65288060Y-84240556D01*
X64892140Y-85231906D02*
X64962403Y-85221746D01*
X63602440Y-87333671D02*
X63613055Y-87346339D01*
X64885427Y-86489560D02*
X65152856Y-86489560D01*
X64465638Y-85301747D02*
X64465637Y-85301748D01*
X65152351Y-86473426D02*
X65172199Y-86481999D01*
X61172085Y-86174498D02*
X61219658Y-86162955D01*
X64513763Y-84351405D02*
X64486808Y-84364239D01*
X65892517Y-83855954D02*
X65886467Y-83842303D01*
X64674999Y-85270245D02*
X64813253Y-85250549D01*
X61964338Y-86694336D02*
X61917280Y-86652418D01*
X61891407Y-87618957D02*
X62167317Y-87618957D01*
X65187198Y-83496453D02*
X65188858Y-83665070D01*
X65882001Y-85468816D02*
X65891667Y-85457752D01*
X62793009Y-86994325D02*
X62615571Y-86991445D01*
X64992672Y-83693022D02*
X64954922Y-83699763D01*
X62794575Y-85784296D02*
X62507477Y-85784262D01*
X60051703Y-87013003D02*
X60048516Y-87067311D01*
X64096724Y-85754832D02*
X63975390Y-85790389D01*
X64235120Y-84211222D02*
X64238380Y-84739517D01*
X62475321Y-87497940D02*
X62507416Y-87376924D01*
X65686832Y-83773289D02*
X65686157Y-83784930D01*
X58998541Y-85784085D02*
X58998541Y-86701520D01*
X64585658Y-83753620D02*
X64575656Y-83729995D01*
X64753136Y-83729334D02*
X64585658Y-83753620D01*
X64440692Y-86211771D02*
X64513042Y-86259518D01*
X62080081Y-86899239D02*
X62062022Y-86842433D01*
X64719817Y-82668620D02*
X64465837Y-83405610D01*
X65089786Y-83987058D02*
X64636916Y-84055511D01*
X65522528Y-84074824D02*
X65812946Y-84135446D01*
X65557733Y-84826529D02*
X65552492Y-84405061D01*
X60292272Y-86645346D02*
X60315558Y-86628059D01*
X65371347Y-84354632D02*
X65354438Y-84339707D01*
X63991947Y-86857190D02*
X63988423Y-86635920D01*
X59563267Y-86851423D02*
X59673326Y-86851435D01*
X65814101Y-83861853D02*
X65814101Y-83984062D01*
X59892020Y-87187104D02*
X59714814Y-87191910D01*
X64409496Y-85326103D02*
X64414003Y-85315225D01*
X64967732Y-84297629D02*
X64939437Y-84296171D01*
X65170676Y-83144377D02*
X65082401Y-83417972D01*
X65558363Y-85236802D02*
X65557733Y-84826529D01*
X64612898Y-84394087D02*
X64586441Y-84364669D01*
X60488782Y-86077502D02*
X60454789Y-86007385D01*
X65151340Y-86481493D02*
X65152351Y-86473426D01*
X65030716Y-87303455D02*
X65084325Y-87198964D01*
X65858509Y-83874797D02*
X65879101Y-83875632D01*
X65686157Y-83784930D02*
X65616433Y-83766440D01*
X60602388Y-87314327D02*
X60643540Y-87377638D01*
X65108071Y-83677343D02*
X65108071Y-83677343D01*
X65502921Y-83622240D02*
X65498886Y-83734909D01*
X65842965Y-84162334D02*
X65842250Y-84151315D01*
X65167914Y-86450155D02*
X65147991Y-86440662D01*
X61077946Y-87089436D02*
X61069563Y-87060590D01*
X64271160Y-85054302D02*
X64275065Y-84206277D01*
X64827598Y-84814451D02*
X64827597Y-84388621D01*
X59981545Y-86296151D02*
X59989788Y-86354855D01*
X65036195Y-84779814D02*
X65036195Y-84356352D01*
X65389453Y-84799817D02*
X65388838Y-84393231D01*
X60286014Y-85863344D02*
X60218377Y-85835911D01*
X60054187Y-85798252D02*
X59921135Y-85787061D01*
X64205430Y-87202722D02*
X64161248Y-87183913D01*
X64689526Y-84344383D02*
X64674428Y-84362885D01*
X63648862Y-87474628D02*
X63602440Y-87333671D01*
X62004148Y-86739979D02*
X61964338Y-86694336D01*
X60422195Y-86521208D02*
X60477599Y-86426005D01*
X65812946Y-84135446D02*
X65813681Y-84144211D01*
X61487524Y-87006481D02*
X61518806Y-87029865D01*
X65813894Y-85419850D02*
X65545570Y-85379657D01*
X64276729Y-84149214D02*
X64278749Y-84140845D01*
X65147991Y-86440662D02*
X65140089Y-86406549D01*
X64468482Y-87183991D02*
X64422737Y-87205652D01*
X61553935Y-87087356D02*
X61556148Y-87118789D01*
X61944822Y-86021665D02*
X61899861Y-85962053D01*
X65530631Y-83536981D02*
X65551375Y-83536981D01*
X65520210Y-85416017D02*
X65815875Y-85460391D01*
X64740590Y-84089949D02*
X64740590Y-84089949D01*
X64291483Y-86185940D02*
X64352175Y-86187549D01*
X65388631Y-85177468D02*
X65389453Y-84799817D01*
X64972468Y-81931620D02*
X64719817Y-82668620D01*
X61043501Y-87637186D02*
X61163953Y-87660720D01*
X65568629Y-83794954D02*
X65808915Y-83859618D01*
X59999064Y-87147677D02*
X59953043Y-87172277D01*
X64565204Y-85768264D02*
X64431042Y-85744485D01*
X63253268Y-86295911D02*
X63081673Y-85784331D01*
X65226349Y-84019588D02*
X65229230Y-84014139D01*
X65126118Y-87075525D02*
X65152531Y-86945929D01*
X60150260Y-87589123D02*
X60235227Y-87565011D01*
X65691330Y-84415610D02*
X65666742Y-84409463D01*
X65221432Y-85372837D02*
X65520210Y-85416017D01*
X61396979Y-86966405D02*
X61487524Y-87006481D01*
X65388838Y-84393231D02*
X65383514Y-84377528D01*
X61108677Y-86263698D02*
X61116191Y-86221826D01*
X65912210Y-84141996D02*
X65910274Y-84130888D01*
X65518760Y-87625872D02*
X65216737Y-87625872D01*
X64004104Y-86507246D02*
X64032459Y-86400399D01*
X60018488Y-86914556D02*
X60044130Y-86960543D01*
X64247953Y-84114367D02*
X64220294Y-84118387D01*
X63861733Y-85843931D02*
X63756584Y-85915142D01*
X60235227Y-87565011D02*
X60311182Y-87533689D01*
X64939437Y-84296171D02*
X64913462Y-84303416D01*
X64871214Y-84373404D02*
X64869579Y-84806030D01*
X61250529Y-87236733D02*
X61173294Y-87206436D01*
X64465637Y-85301748D02*
X64477116Y-85303423D01*
X60314405Y-86652913D02*
X60292272Y-86645346D01*
X64620156Y-84407706D02*
X64612898Y-84394087D01*
X64228486Y-85516115D02*
X64235323Y-85517480D01*
X64984314Y-81930390D02*
X64972468Y-81931620D01*
X62881965Y-86669911D02*
X62971450Y-86994325D01*
X65813681Y-84144211D02*
X65813683Y-84144211D01*
X65552492Y-84405061D02*
X65525868Y-84372404D01*
X65292960Y-84354709D02*
X65278519Y-84375662D01*
X64248075Y-84146541D02*
X64249106Y-84153262D01*
X63101519Y-87493339D02*
X63134621Y-87613770D01*
X65500630Y-85235208D02*
X65547049Y-85244637D01*
X64220294Y-84118387D02*
X64187403Y-84124697D01*
X61341474Y-87244694D02*
X61250529Y-87236733D01*
X64467316Y-84388057D02*
X64456322Y-84422042D01*
X65891667Y-85457752D02*
X65890897Y-85441272D01*
X64387626Y-83245845D02*
X64322601Y-83523419D01*
X65225269Y-83948384D02*
X65224489Y-83812187D01*
X65660714Y-85259988D02*
X65660717Y-85259987D01*
X65848920Y-84211039D02*
X65881596Y-84212589D01*
X60560419Y-87229505D02*
X60570536Y-87248577D01*
X61174126Y-86365295D02*
X61138738Y-86337195D01*
X65820784Y-87625872D02*
X65518760Y-87625872D01*
X64913462Y-84303416D02*
X64893227Y-84318937D01*
X81000000Y-83550000D02*
X70000000Y-83550000D01*
X64893227Y-84318937D02*
X64879041Y-84342383D01*
X59953043Y-87172277D02*
X59892020Y-87187107D01*
X61801432Y-86579768D02*
X61663433Y-86522438D01*
X61479755Y-87215738D02*
X61419586Y-87235909D01*
X64607650Y-86952451D02*
X64592761Y-87012633D01*
X65666742Y-84409463D02*
X65644523Y-84413343D01*
X65879101Y-83875632D02*
X65889059Y-83867867D01*
X65814151Y-83812973D02*
X65814150Y-83812974D01*
X63423460Y-86754611D02*
X63425380Y-86806976D01*
X64615716Y-85280465D02*
X64620156Y-84842076D01*
X65530831Y-83621687D02*
X65530631Y-83536981D01*
X65333963Y-84336255D02*
X65311355Y-84340757D01*
X65817265Y-85925993D02*
X65819720Y-87008733D01*
X64177796Y-86214523D02*
X64237602Y-86191834D01*
X64813253Y-85250549D02*
X64823049Y-85244833D01*
X65185435Y-84003930D02*
X65189470Y-84013788D01*
X64725035Y-84279135D02*
X65023899Y-84237355D01*
X65517547Y-84040906D02*
X65226759Y-83976043D01*
X64603994Y-86420727D02*
X64613313Y-86463054D01*
X64415789Y-84817858D02*
X64414264Y-84321338D01*
X64224904Y-85737573D02*
X64096724Y-85754832D01*
X61928998Y-87462422D02*
X61950138Y-87444937D01*
X64397595Y-83323112D02*
X64414914Y-83437850D01*
X64753135Y-83729335D02*
X64753136Y-83729334D01*
X64234352Y-83845092D02*
X64249143Y-83843712D01*
X60477599Y-86426005D02*
X60509721Y-86322446D01*
X65847555Y-84141808D02*
X65905604Y-84150319D01*
X65842238Y-84109794D02*
X65839873Y-83989768D01*
D12*
X80151000Y-98500000D02*
G75*
G02*
X76849000Y-98500000I-1651000J0D01*
G01*
X76849000Y-98500000D02*
G75*
G02*
X80151000Y-98500000I1651000J0D01*
G01*
D11*
X65763368Y-83805691D02*
X65716798Y-83788023D01*
X64575656Y-83729995D02*
X64524744Y-83581067D01*
X65068486Y-86173426D02*
X65014212Y-86074760D01*
X59876743Y-86857561D02*
X59932869Y-86867062D01*
X60048516Y-87067311D02*
X60030686Y-87112843D01*
X65447621Y-84818704D02*
X65451651Y-85222429D01*
X65759340Y-83600870D02*
X65814151Y-83812973D01*
X64886681Y-86909050D02*
X64615696Y-86909050D01*
X65227594Y-84701682D02*
X65226689Y-84070607D01*
X61436902Y-85741088D02*
X61310541Y-85736779D01*
X65615259Y-84447370D02*
X65610114Y-84460073D01*
X64295371Y-83796630D02*
X64288763Y-83796974D01*
X64662990Y-84429134D02*
X64661647Y-84829446D01*
X65815699Y-84811260D02*
X65813894Y-85419850D01*
X65357336Y-83696417D02*
X65280516Y-83427476D01*
X65905604Y-84150319D02*
X65912210Y-84141996D01*
X65839957Y-83808910D02*
X65768772Y-83528955D01*
X65031272Y-82110907D02*
X65532137Y-83504387D01*
X64249106Y-84153262D02*
X64246746Y-84161007D01*
X64416161Y-85258664D02*
X64415789Y-84817858D01*
X60570536Y-87248577D02*
X60602388Y-87314327D01*
X64620156Y-84842076D02*
X64620156Y-84407706D01*
X64666752Y-84379609D02*
X64662990Y-84429134D01*
X65001663Y-81941826D02*
X64996984Y-81931214D01*
X65890897Y-85441272D02*
X65881056Y-85431181D01*
X63452305Y-86425255D02*
X63429865Y-86557556D01*
X61138738Y-86337195D02*
X61116339Y-86305851D01*
X61781241Y-86316692D02*
X62048357Y-86316692D01*
X65713546Y-85266538D02*
X65718140Y-85231041D01*
X65324397Y-85208025D02*
X65375532Y-85217010D01*
X61788197Y-85861928D02*
X61722683Y-85822480D01*
X65279364Y-83718085D02*
X65568629Y-83794954D01*
X61114267Y-87156454D02*
X61077946Y-87089436D01*
X58998541Y-87618955D02*
X59455527Y-87618955D01*
X61069563Y-87060590D02*
X61068256Y-87054251D01*
X65280516Y-83427476D02*
X65205223Y-83160107D01*
X65713771Y-84178826D02*
X65813536Y-84201749D01*
X65703779Y-83400513D02*
X65759340Y-83600870D01*
X65187737Y-86457971D02*
X65167914Y-86450155D01*
X65152531Y-86945929D02*
X65156351Y-86917694D01*
X70000000Y-83550000D02*
X70000000Y-70500000D01*
X60344836Y-85896790D02*
X60286014Y-85863344D01*
X65467779Y-84384729D02*
X65454255Y-84404755D01*
X65680491Y-83562295D02*
X65686832Y-83773289D01*
X60572347Y-86406578D02*
X60598079Y-86515473D01*
X65860894Y-85470111D02*
X65882001Y-85468816D01*
X61919931Y-87534252D02*
X61891407Y-87618957D01*
X64257644Y-83801195D02*
X64237423Y-83804795D01*
X65015858Y-84323497D02*
X64993959Y-84307142D01*
X65183131Y-85379488D02*
X65189470Y-85378208D01*
X64720103Y-87587007D02*
X64798848Y-87543350D01*
X60656097Y-86008588D02*
X60611138Y-86091264D01*
X60407060Y-85947550D02*
X60344836Y-85896790D01*
X65189471Y-85336284D02*
X65125510Y-85346046D01*
X65276549Y-85194131D02*
X65324401Y-85208024D01*
X62971450Y-86994325D02*
X62793009Y-86994325D01*
X62062022Y-86842433D02*
X62036711Y-86789346D01*
X65273594Y-84386316D02*
X65272994Y-84787658D01*
X61555124Y-87643328D02*
X61701405Y-87602097D01*
X60538769Y-86864915D02*
X60499703Y-86793585D01*
X64964283Y-87397131D02*
X65030716Y-87303455D01*
X64635500Y-87621484D02*
X64720103Y-87587007D01*
X64820869Y-84374401D02*
X64795763Y-84343307D01*
X65660717Y-85259987D02*
X65703910Y-85267687D01*
X61289612Y-86415397D02*
X61223939Y-86391059D01*
X65229304Y-85331977D02*
X65227594Y-84701682D01*
X65813536Y-84201749D02*
X65815706Y-84811264D01*
X64859870Y-84120205D02*
X65183132Y-84072979D01*
X65553443Y-85240837D02*
X65558363Y-85236802D01*
X63600143Y-86083021D02*
X63538601Y-86184763D01*
X65719581Y-84869256D02*
X65717211Y-84465835D01*
X65484999Y-84372604D02*
X65467779Y-84384729D01*
X65619101Y-85250373D02*
X65660714Y-85259988D01*
X64636916Y-84055511D02*
X64636919Y-84055514D01*
D10*
X72526409Y-75419967D02*
X72526409Y-74819967D01*
X72812123Y-75419967D02*
X72812123Y-74819967D01*
X72812123Y-74819967D02*
X73154980Y-75419967D01*
X73154980Y-75419967D02*
X73154980Y-74819967D01*
X73697837Y-74819967D02*
X73583551Y-74819967D01*
X73583551Y-74819967D02*
X73526408Y-74848538D01*
X73526408Y-74848538D02*
X73497837Y-74877110D01*
X73497837Y-74877110D02*
X73440694Y-74962824D01*
X73440694Y-74962824D02*
X73412122Y-75077110D01*
X73412122Y-75077110D02*
X73412122Y-75305681D01*
X73412122Y-75305681D02*
X73440694Y-75362824D01*
X73440694Y-75362824D02*
X73469265Y-75391396D01*
X73469265Y-75391396D02*
X73526408Y-75419967D01*
X73526408Y-75419967D02*
X73640694Y-75419967D01*
X73640694Y-75419967D02*
X73697837Y-75391396D01*
X73697837Y-75391396D02*
X73726408Y-75362824D01*
X73726408Y-75362824D02*
X73754979Y-75305681D01*
X73754979Y-75305681D02*
X73754979Y-75162824D01*
X73754979Y-75162824D02*
X73726408Y-75105681D01*
X73726408Y-75105681D02*
X73697837Y-75077110D01*
X73697837Y-75077110D02*
X73640694Y-75048538D01*
X73640694Y-75048538D02*
X73526408Y-75048538D01*
X73526408Y-75048538D02*
X73469265Y-75077110D01*
X73469265Y-75077110D02*
X73440694Y-75105681D01*
X73440694Y-75105681D02*
X73412122Y-75162824D01*
X41540694Y-52648538D02*
X41483552Y-52619967D01*
X41483552Y-52619967D02*
X41397837Y-52619967D01*
X41397837Y-52619967D02*
X41312123Y-52648538D01*
X41312123Y-52648538D02*
X41254980Y-52705681D01*
X41254980Y-52705681D02*
X41226409Y-52762824D01*
X41226409Y-52762824D02*
X41197837Y-52877110D01*
X41197837Y-52877110D02*
X41197837Y-52962824D01*
X41197837Y-52962824D02*
X41226409Y-53077110D01*
X41226409Y-53077110D02*
X41254980Y-53134253D01*
X41254980Y-53134253D02*
X41312123Y-53191396D01*
X41312123Y-53191396D02*
X41397837Y-53219967D01*
X41397837Y-53219967D02*
X41454980Y-53219967D01*
X41454980Y-53219967D02*
X41540694Y-53191396D01*
X41540694Y-53191396D02*
X41569266Y-53162824D01*
X41569266Y-53162824D02*
X41569266Y-52962824D01*
X41569266Y-52962824D02*
X41454980Y-52962824D01*
X41826409Y-53219967D02*
X41826409Y-52619967D01*
X41826409Y-52619967D02*
X42169266Y-53219967D01*
X42169266Y-53219967D02*
X42169266Y-52619967D01*
X42454980Y-53219967D02*
X42454980Y-52619967D01*
X42454980Y-52619967D02*
X42597837Y-52619967D01*
X42597837Y-52619967D02*
X42683551Y-52648538D01*
X42683551Y-52648538D02*
X42740694Y-52705681D01*
X42740694Y-52705681D02*
X42769265Y-52762824D01*
X42769265Y-52762824D02*
X42797837Y-52877110D01*
X42797837Y-52877110D02*
X42797837Y-52962824D01*
X42797837Y-52962824D02*
X42769265Y-53077110D01*
X42769265Y-53077110D02*
X42740694Y-53134253D01*
X42740694Y-53134253D02*
X42683551Y-53191396D01*
X42683551Y-53191396D02*
X42597837Y-53219967D01*
X42597837Y-53219967D02*
X42454980Y-53219967D01*
X41540694Y-78648538D02*
X41483552Y-78619967D01*
X41483552Y-78619967D02*
X41397837Y-78619967D01*
X41397837Y-78619967D02*
X41312123Y-78648538D01*
X41312123Y-78648538D02*
X41254980Y-78705681D01*
X41254980Y-78705681D02*
X41226409Y-78762824D01*
X41226409Y-78762824D02*
X41197837Y-78877110D01*
X41197837Y-78877110D02*
X41197837Y-78962824D01*
X41197837Y-78962824D02*
X41226409Y-79077110D01*
X41226409Y-79077110D02*
X41254980Y-79134253D01*
X41254980Y-79134253D02*
X41312123Y-79191396D01*
X41312123Y-79191396D02*
X41397837Y-79219967D01*
X41397837Y-79219967D02*
X41454980Y-79219967D01*
X41454980Y-79219967D02*
X41540694Y-79191396D01*
X41540694Y-79191396D02*
X41569266Y-79162824D01*
X41569266Y-79162824D02*
X41569266Y-78962824D01*
X41569266Y-78962824D02*
X41454980Y-78962824D01*
X41826409Y-79219967D02*
X41826409Y-78619967D01*
X41826409Y-78619967D02*
X42169266Y-79219967D01*
X42169266Y-79219967D02*
X42169266Y-78619967D01*
X42454980Y-79219967D02*
X42454980Y-78619967D01*
X42454980Y-78619967D02*
X42597837Y-78619967D01*
X42597837Y-78619967D02*
X42683551Y-78648538D01*
X42683551Y-78648538D02*
X42740694Y-78705681D01*
X42740694Y-78705681D02*
X42769265Y-78762824D01*
X42769265Y-78762824D02*
X42797837Y-78877110D01*
X42797837Y-78877110D02*
X42797837Y-78962824D01*
X42797837Y-78962824D02*
X42769265Y-79077110D01*
X42769265Y-79077110D02*
X42740694Y-79134253D01*
X42740694Y-79134253D02*
X42683551Y-79191396D01*
X42683551Y-79191396D02*
X42597837Y-79219967D01*
X42597837Y-79219967D02*
X42454980Y-79219967D01*
X46626409Y-75419967D02*
X46626409Y-74819967D01*
X46912123Y-75419967D02*
X46912123Y-74819967D01*
X46912123Y-74819967D02*
X47254980Y-75419967D01*
X47254980Y-75419967D02*
X47254980Y-74819967D01*
X47512122Y-74877110D02*
X47540694Y-74848538D01*
X47540694Y-74848538D02*
X47597837Y-74819967D01*
X47597837Y-74819967D02*
X47740694Y-74819967D01*
X47740694Y-74819967D02*
X47797837Y-74848538D01*
X47797837Y-74848538D02*
X47826408Y-74877110D01*
X47826408Y-74877110D02*
X47854979Y-74934253D01*
X47854979Y-74934253D02*
X47854979Y-74991396D01*
X47854979Y-74991396D02*
X47826408Y-75077110D01*
X47826408Y-75077110D02*
X47483551Y-75419967D01*
X47483551Y-75419967D02*
X47854979Y-75419967D01*
D13*
X57669673Y-64367219D02*
X57669673Y-63367219D01*
X57669673Y-63367219D02*
X58003006Y-64081504D01*
X58003006Y-64081504D02*
X58336339Y-63367219D01*
X58336339Y-63367219D02*
X58336339Y-64367219D01*
X58812530Y-63367219D02*
X58812530Y-64176742D01*
X58812530Y-64176742D02*
X58860149Y-64271980D01*
X58860149Y-64271980D02*
X58907768Y-64319600D01*
X58907768Y-64319600D02*
X59003006Y-64367219D01*
X59003006Y-64367219D02*
X59193482Y-64367219D01*
X59193482Y-64367219D02*
X59288720Y-64319600D01*
X59288720Y-64319600D02*
X59336339Y-64271980D01*
X59336339Y-64271980D02*
X59383958Y-64176742D01*
X59383958Y-64176742D02*
X59383958Y-63367219D01*
X59764911Y-63367219D02*
X60431577Y-64367219D01*
X60431577Y-63367219D02*
X59764911Y-64367219D01*
D10*
X41526409Y-88419967D02*
X41526409Y-87819967D01*
X41812123Y-88419967D02*
X41812123Y-87819967D01*
X41812123Y-87819967D02*
X42154980Y-88419967D01*
X42154980Y-88419967D02*
X42154980Y-87819967D01*
X42383551Y-87819967D02*
X42754979Y-87819967D01*
X42754979Y-87819967D02*
X42554979Y-88048538D01*
X42554979Y-88048538D02*
X42640694Y-88048538D01*
X42640694Y-88048538D02*
X42697837Y-88077110D01*
X42697837Y-88077110D02*
X42726408Y-88105681D01*
X42726408Y-88105681D02*
X42754979Y-88162824D01*
X42754979Y-88162824D02*
X42754979Y-88305681D01*
X42754979Y-88305681D02*
X42726408Y-88362824D01*
X42726408Y-88362824D02*
X42697837Y-88391396D01*
X42697837Y-88391396D02*
X42640694Y-88419967D01*
X42640694Y-88419967D02*
X42469265Y-88419967D01*
X42469265Y-88419967D02*
X42412122Y-88391396D01*
X42412122Y-88391396D02*
X42383551Y-88362824D01*
D13*
X40822054Y-90319600D02*
X40964911Y-90367219D01*
X40964911Y-90367219D02*
X41203006Y-90367219D01*
X41203006Y-90367219D02*
X41298244Y-90319600D01*
X41298244Y-90319600D02*
X41345863Y-90271980D01*
X41345863Y-90271980D02*
X41393482Y-90176742D01*
X41393482Y-90176742D02*
X41393482Y-90081504D01*
X41393482Y-90081504D02*
X41345863Y-89986266D01*
X41345863Y-89986266D02*
X41298244Y-89938647D01*
X41298244Y-89938647D02*
X41203006Y-89891028D01*
X41203006Y-89891028D02*
X41012530Y-89843409D01*
X41012530Y-89843409D02*
X40917292Y-89795790D01*
X40917292Y-89795790D02*
X40869673Y-89748171D01*
X40869673Y-89748171D02*
X40822054Y-89652933D01*
X40822054Y-89652933D02*
X40822054Y-89557695D01*
X40822054Y-89557695D02*
X40869673Y-89462457D01*
X40869673Y-89462457D02*
X40917292Y-89414838D01*
X40917292Y-89414838D02*
X41012530Y-89367219D01*
X41012530Y-89367219D02*
X41250625Y-89367219D01*
X41250625Y-89367219D02*
X41393482Y-89414838D01*
X41822054Y-89843409D02*
X42155387Y-89843409D01*
X42298244Y-90367219D02*
X41822054Y-90367219D01*
X41822054Y-90367219D02*
X41822054Y-89367219D01*
X41822054Y-89367219D02*
X42298244Y-89367219D01*
X42726816Y-90367219D02*
X42726816Y-89367219D01*
X42726816Y-89367219D02*
X43298244Y-90367219D01*
X43298244Y-90367219D02*
X43298244Y-89367219D01*
X43726816Y-90319600D02*
X43869673Y-90367219D01*
X43869673Y-90367219D02*
X44107768Y-90367219D01*
X44107768Y-90367219D02*
X44203006Y-90319600D01*
X44203006Y-90319600D02*
X44250625Y-90271980D01*
X44250625Y-90271980D02*
X44298244Y-90176742D01*
X44298244Y-90176742D02*
X44298244Y-90081504D01*
X44298244Y-90081504D02*
X44250625Y-89986266D01*
X44250625Y-89986266D02*
X44203006Y-89938647D01*
X44203006Y-89938647D02*
X44107768Y-89891028D01*
X44107768Y-89891028D02*
X43917292Y-89843409D01*
X43917292Y-89843409D02*
X43822054Y-89795790D01*
X43822054Y-89795790D02*
X43774435Y-89748171D01*
X43774435Y-89748171D02*
X43726816Y-89652933D01*
X43726816Y-89652933D02*
X43726816Y-89557695D01*
X43726816Y-89557695D02*
X43774435Y-89462457D01*
X43774435Y-89462457D02*
X43822054Y-89414838D01*
X43822054Y-89414838D02*
X43917292Y-89367219D01*
X43917292Y-89367219D02*
X44155387Y-89367219D01*
X44155387Y-89367219D02*
X44298244Y-89414838D01*
X44917292Y-89367219D02*
X45107768Y-89367219D01*
X45107768Y-89367219D02*
X45203006Y-89414838D01*
X45203006Y-89414838D02*
X45298244Y-89510076D01*
X45298244Y-89510076D02*
X45345863Y-89700552D01*
X45345863Y-89700552D02*
X45345863Y-90033885D01*
X45345863Y-90033885D02*
X45298244Y-90224361D01*
X45298244Y-90224361D02*
X45203006Y-90319600D01*
X45203006Y-90319600D02*
X45107768Y-90367219D01*
X45107768Y-90367219D02*
X44917292Y-90367219D01*
X44917292Y-90367219D02*
X44822054Y-90319600D01*
X44822054Y-90319600D02*
X44726816Y-90224361D01*
X44726816Y-90224361D02*
X44679197Y-90033885D01*
X44679197Y-90033885D02*
X44679197Y-89700552D01*
X44679197Y-89700552D02*
X44726816Y-89510076D01*
X44726816Y-89510076D02*
X44822054Y-89414838D01*
X44822054Y-89414838D02*
X44917292Y-89367219D01*
X46345863Y-90367219D02*
X46012530Y-89891028D01*
X45774435Y-90367219D02*
X45774435Y-89367219D01*
X45774435Y-89367219D02*
X46155387Y-89367219D01*
X46155387Y-89367219D02*
X46250625Y-89414838D01*
X46250625Y-89414838D02*
X46298244Y-89462457D01*
X46298244Y-89462457D02*
X46345863Y-89557695D01*
X46345863Y-89557695D02*
X46345863Y-89700552D01*
X46345863Y-89700552D02*
X46298244Y-89795790D01*
X46298244Y-89795790D02*
X46250625Y-89843409D01*
X46250625Y-89843409D02*
X46155387Y-89891028D01*
X46155387Y-89891028D02*
X45774435Y-89891028D01*
X47441102Y-89367219D02*
X48060149Y-89367219D01*
X48060149Y-89367219D02*
X47726816Y-89748171D01*
X47726816Y-89748171D02*
X47869673Y-89748171D01*
X47869673Y-89748171D02*
X47964911Y-89795790D01*
X47964911Y-89795790D02*
X48012530Y-89843409D01*
X48012530Y-89843409D02*
X48060149Y-89938647D01*
X48060149Y-89938647D02*
X48060149Y-90176742D01*
X48060149Y-90176742D02*
X48012530Y-90271980D01*
X48012530Y-90271980D02*
X47964911Y-90319600D01*
X47964911Y-90319600D02*
X47869673Y-90367219D01*
X47869673Y-90367219D02*
X47583959Y-90367219D01*
X47583959Y-90367219D02*
X47488721Y-90319600D01*
X47488721Y-90319600D02*
X47441102Y-90271980D01*
X40822054Y-77319600D02*
X40964911Y-77367219D01*
X40964911Y-77367219D02*
X41203006Y-77367219D01*
X41203006Y-77367219D02*
X41298244Y-77319600D01*
X41298244Y-77319600D02*
X41345863Y-77271980D01*
X41345863Y-77271980D02*
X41393482Y-77176742D01*
X41393482Y-77176742D02*
X41393482Y-77081504D01*
X41393482Y-77081504D02*
X41345863Y-76986266D01*
X41345863Y-76986266D02*
X41298244Y-76938647D01*
X41298244Y-76938647D02*
X41203006Y-76891028D01*
X41203006Y-76891028D02*
X41012530Y-76843409D01*
X41012530Y-76843409D02*
X40917292Y-76795790D01*
X40917292Y-76795790D02*
X40869673Y-76748171D01*
X40869673Y-76748171D02*
X40822054Y-76652933D01*
X40822054Y-76652933D02*
X40822054Y-76557695D01*
X40822054Y-76557695D02*
X40869673Y-76462457D01*
X40869673Y-76462457D02*
X40917292Y-76414838D01*
X40917292Y-76414838D02*
X41012530Y-76367219D01*
X41012530Y-76367219D02*
X41250625Y-76367219D01*
X41250625Y-76367219D02*
X41393482Y-76414838D01*
X41822054Y-76843409D02*
X42155387Y-76843409D01*
X42298244Y-77367219D02*
X41822054Y-77367219D01*
X41822054Y-77367219D02*
X41822054Y-76367219D01*
X41822054Y-76367219D02*
X42298244Y-76367219D01*
X42726816Y-77367219D02*
X42726816Y-76367219D01*
X42726816Y-76367219D02*
X43298244Y-77367219D01*
X43298244Y-77367219D02*
X43298244Y-76367219D01*
X43726816Y-77319600D02*
X43869673Y-77367219D01*
X43869673Y-77367219D02*
X44107768Y-77367219D01*
X44107768Y-77367219D02*
X44203006Y-77319600D01*
X44203006Y-77319600D02*
X44250625Y-77271980D01*
X44250625Y-77271980D02*
X44298244Y-77176742D01*
X44298244Y-77176742D02*
X44298244Y-77081504D01*
X44298244Y-77081504D02*
X44250625Y-76986266D01*
X44250625Y-76986266D02*
X44203006Y-76938647D01*
X44203006Y-76938647D02*
X44107768Y-76891028D01*
X44107768Y-76891028D02*
X43917292Y-76843409D01*
X43917292Y-76843409D02*
X43822054Y-76795790D01*
X43822054Y-76795790D02*
X43774435Y-76748171D01*
X43774435Y-76748171D02*
X43726816Y-76652933D01*
X43726816Y-76652933D02*
X43726816Y-76557695D01*
X43726816Y-76557695D02*
X43774435Y-76462457D01*
X43774435Y-76462457D02*
X43822054Y-76414838D01*
X43822054Y-76414838D02*
X43917292Y-76367219D01*
X43917292Y-76367219D02*
X44155387Y-76367219D01*
X44155387Y-76367219D02*
X44298244Y-76414838D01*
X44917292Y-76367219D02*
X45107768Y-76367219D01*
X45107768Y-76367219D02*
X45203006Y-76414838D01*
X45203006Y-76414838D02*
X45298244Y-76510076D01*
X45298244Y-76510076D02*
X45345863Y-76700552D01*
X45345863Y-76700552D02*
X45345863Y-77033885D01*
X45345863Y-77033885D02*
X45298244Y-77224361D01*
X45298244Y-77224361D02*
X45203006Y-77319600D01*
X45203006Y-77319600D02*
X45107768Y-77367219D01*
X45107768Y-77367219D02*
X44917292Y-77367219D01*
X44917292Y-77367219D02*
X44822054Y-77319600D01*
X44822054Y-77319600D02*
X44726816Y-77224361D01*
X44726816Y-77224361D02*
X44679197Y-77033885D01*
X44679197Y-77033885D02*
X44679197Y-76700552D01*
X44679197Y-76700552D02*
X44726816Y-76510076D01*
X44726816Y-76510076D02*
X44822054Y-76414838D01*
X44822054Y-76414838D02*
X44917292Y-76367219D01*
X46345863Y-77367219D02*
X46012530Y-76891028D01*
X45774435Y-77367219D02*
X45774435Y-76367219D01*
X45774435Y-76367219D02*
X46155387Y-76367219D01*
X46155387Y-76367219D02*
X46250625Y-76414838D01*
X46250625Y-76414838D02*
X46298244Y-76462457D01*
X46298244Y-76462457D02*
X46345863Y-76557695D01*
X46345863Y-76557695D02*
X46345863Y-76700552D01*
X46345863Y-76700552D02*
X46298244Y-76795790D01*
X46298244Y-76795790D02*
X46250625Y-76843409D01*
X46250625Y-76843409D02*
X46155387Y-76891028D01*
X46155387Y-76891028D02*
X45774435Y-76891028D01*
X47488721Y-76462457D02*
X47536340Y-76414838D01*
X47536340Y-76414838D02*
X47631578Y-76367219D01*
X47631578Y-76367219D02*
X47869673Y-76367219D01*
X47869673Y-76367219D02*
X47964911Y-76414838D01*
X47964911Y-76414838D02*
X48012530Y-76462457D01*
X48012530Y-76462457D02*
X48060149Y-76557695D01*
X48060149Y-76557695D02*
X48060149Y-76652933D01*
X48060149Y-76652933D02*
X48012530Y-76795790D01*
X48012530Y-76795790D02*
X47441102Y-77367219D01*
X47441102Y-77367219D02*
X48060149Y-77367219D01*
X40822054Y-51319600D02*
X40964911Y-51367219D01*
X40964911Y-51367219D02*
X41203006Y-51367219D01*
X41203006Y-51367219D02*
X41298244Y-51319600D01*
X41298244Y-51319600D02*
X41345863Y-51271980D01*
X41345863Y-51271980D02*
X41393482Y-51176742D01*
X41393482Y-51176742D02*
X41393482Y-51081504D01*
X41393482Y-51081504D02*
X41345863Y-50986266D01*
X41345863Y-50986266D02*
X41298244Y-50938647D01*
X41298244Y-50938647D02*
X41203006Y-50891028D01*
X41203006Y-50891028D02*
X41012530Y-50843409D01*
X41012530Y-50843409D02*
X40917292Y-50795790D01*
X40917292Y-50795790D02*
X40869673Y-50748171D01*
X40869673Y-50748171D02*
X40822054Y-50652933D01*
X40822054Y-50652933D02*
X40822054Y-50557695D01*
X40822054Y-50557695D02*
X40869673Y-50462457D01*
X40869673Y-50462457D02*
X40917292Y-50414838D01*
X40917292Y-50414838D02*
X41012530Y-50367219D01*
X41012530Y-50367219D02*
X41250625Y-50367219D01*
X41250625Y-50367219D02*
X41393482Y-50414838D01*
X41822054Y-50843409D02*
X42155387Y-50843409D01*
X42298244Y-51367219D02*
X41822054Y-51367219D01*
X41822054Y-51367219D02*
X41822054Y-50367219D01*
X41822054Y-50367219D02*
X42298244Y-50367219D01*
X42726816Y-51367219D02*
X42726816Y-50367219D01*
X42726816Y-50367219D02*
X43298244Y-51367219D01*
X43298244Y-51367219D02*
X43298244Y-50367219D01*
X43726816Y-51319600D02*
X43869673Y-51367219D01*
X43869673Y-51367219D02*
X44107768Y-51367219D01*
X44107768Y-51367219D02*
X44203006Y-51319600D01*
X44203006Y-51319600D02*
X44250625Y-51271980D01*
X44250625Y-51271980D02*
X44298244Y-51176742D01*
X44298244Y-51176742D02*
X44298244Y-51081504D01*
X44298244Y-51081504D02*
X44250625Y-50986266D01*
X44250625Y-50986266D02*
X44203006Y-50938647D01*
X44203006Y-50938647D02*
X44107768Y-50891028D01*
X44107768Y-50891028D02*
X43917292Y-50843409D01*
X43917292Y-50843409D02*
X43822054Y-50795790D01*
X43822054Y-50795790D02*
X43774435Y-50748171D01*
X43774435Y-50748171D02*
X43726816Y-50652933D01*
X43726816Y-50652933D02*
X43726816Y-50557695D01*
X43726816Y-50557695D02*
X43774435Y-50462457D01*
X43774435Y-50462457D02*
X43822054Y-50414838D01*
X43822054Y-50414838D02*
X43917292Y-50367219D01*
X43917292Y-50367219D02*
X44155387Y-50367219D01*
X44155387Y-50367219D02*
X44298244Y-50414838D01*
X44917292Y-50367219D02*
X45107768Y-50367219D01*
X45107768Y-50367219D02*
X45203006Y-50414838D01*
X45203006Y-50414838D02*
X45298244Y-50510076D01*
X45298244Y-50510076D02*
X45345863Y-50700552D01*
X45345863Y-50700552D02*
X45345863Y-51033885D01*
X45345863Y-51033885D02*
X45298244Y-51224361D01*
X45298244Y-51224361D02*
X45203006Y-51319600D01*
X45203006Y-51319600D02*
X45107768Y-51367219D01*
X45107768Y-51367219D02*
X44917292Y-51367219D01*
X44917292Y-51367219D02*
X44822054Y-51319600D01*
X44822054Y-51319600D02*
X44726816Y-51224361D01*
X44726816Y-51224361D02*
X44679197Y-51033885D01*
X44679197Y-51033885D02*
X44679197Y-50700552D01*
X44679197Y-50700552D02*
X44726816Y-50510076D01*
X44726816Y-50510076D02*
X44822054Y-50414838D01*
X44822054Y-50414838D02*
X44917292Y-50367219D01*
X46345863Y-51367219D02*
X46012530Y-50891028D01*
X45774435Y-51367219D02*
X45774435Y-50367219D01*
X45774435Y-50367219D02*
X46155387Y-50367219D01*
X46155387Y-50367219D02*
X46250625Y-50414838D01*
X46250625Y-50414838D02*
X46298244Y-50462457D01*
X46298244Y-50462457D02*
X46345863Y-50557695D01*
X46345863Y-50557695D02*
X46345863Y-50700552D01*
X46345863Y-50700552D02*
X46298244Y-50795790D01*
X46298244Y-50795790D02*
X46250625Y-50843409D01*
X46250625Y-50843409D02*
X46155387Y-50891028D01*
X46155387Y-50891028D02*
X45774435Y-50891028D01*
X47726816Y-50367219D02*
X47822054Y-50367219D01*
X47822054Y-50367219D02*
X47917292Y-50414838D01*
X47917292Y-50414838D02*
X47964911Y-50462457D01*
X47964911Y-50462457D02*
X48012530Y-50557695D01*
X48012530Y-50557695D02*
X48060149Y-50748171D01*
X48060149Y-50748171D02*
X48060149Y-50986266D01*
X48060149Y-50986266D02*
X48012530Y-51176742D01*
X48012530Y-51176742D02*
X47964911Y-51271980D01*
X47964911Y-51271980D02*
X47917292Y-51319600D01*
X47917292Y-51319600D02*
X47822054Y-51367219D01*
X47822054Y-51367219D02*
X47726816Y-51367219D01*
X47726816Y-51367219D02*
X47631578Y-51319600D01*
X47631578Y-51319600D02*
X47583959Y-51271980D01*
X47583959Y-51271980D02*
X47536340Y-51176742D01*
X47536340Y-51176742D02*
X47488721Y-50986266D01*
X47488721Y-50986266D02*
X47488721Y-50748171D01*
X47488721Y-50748171D02*
X47536340Y-50557695D01*
X47536340Y-50557695D02*
X47583959Y-50462457D01*
X47583959Y-50462457D02*
X47631578Y-50414838D01*
X47631578Y-50414838D02*
X47726816Y-50367219D01*
D10*
X44026409Y-75419967D02*
X44026409Y-74819967D01*
X44312123Y-75419967D02*
X44312123Y-74819967D01*
X44312123Y-74819967D02*
X44654980Y-75419967D01*
X44654980Y-75419967D02*
X44654980Y-74819967D01*
X44912122Y-74877110D02*
X44940694Y-74848538D01*
X44940694Y-74848538D02*
X44997837Y-74819967D01*
X44997837Y-74819967D02*
X45140694Y-74819967D01*
X45140694Y-74819967D02*
X45197837Y-74848538D01*
X45197837Y-74848538D02*
X45226408Y-74877110D01*
X45226408Y-74877110D02*
X45254979Y-74934253D01*
X45254979Y-74934253D02*
X45254979Y-74991396D01*
X45254979Y-74991396D02*
X45226408Y-75077110D01*
X45226408Y-75077110D02*
X44883551Y-75419967D01*
X44883551Y-75419967D02*
X45254979Y-75419967D01*
X77626409Y-88419967D02*
X77626409Y-87819967D01*
X77912123Y-88419967D02*
X77912123Y-87819967D01*
X77912123Y-87819967D02*
X78254980Y-88419967D01*
X78254980Y-88419967D02*
X78254980Y-87819967D01*
X78483551Y-87819967D02*
X78883551Y-87819967D01*
X78883551Y-87819967D02*
X78626408Y-88419967D01*
X44026409Y-49419967D02*
X44026409Y-48819967D01*
X44312123Y-49419967D02*
X44312123Y-48819967D01*
X44312123Y-48819967D02*
X44654980Y-49419967D01*
X44654980Y-49419967D02*
X44654980Y-48819967D01*
X45054979Y-48819967D02*
X45112122Y-48819967D01*
X45112122Y-48819967D02*
X45169265Y-48848538D01*
X45169265Y-48848538D02*
X45197837Y-48877110D01*
X45197837Y-48877110D02*
X45226408Y-48934253D01*
X45226408Y-48934253D02*
X45254979Y-49048538D01*
X45254979Y-49048538D02*
X45254979Y-49191396D01*
X45254979Y-49191396D02*
X45226408Y-49305681D01*
X45226408Y-49305681D02*
X45197837Y-49362824D01*
X45197837Y-49362824D02*
X45169265Y-49391396D01*
X45169265Y-49391396D02*
X45112122Y-49419967D01*
X45112122Y-49419967D02*
X45054979Y-49419967D01*
X45054979Y-49419967D02*
X44997837Y-49391396D01*
X44997837Y-49391396D02*
X44969265Y-49362824D01*
X44969265Y-49362824D02*
X44940694Y-49305681D01*
X44940694Y-49305681D02*
X44912122Y-49191396D01*
X44912122Y-49191396D02*
X44912122Y-49048538D01*
X44912122Y-49048538D02*
X44940694Y-48934253D01*
X44940694Y-48934253D02*
X44969265Y-48877110D01*
X44969265Y-48877110D02*
X44997837Y-48848538D01*
X44997837Y-48848538D02*
X45054979Y-48819967D01*
X72526409Y-49419967D02*
X72526409Y-48819967D01*
X72812123Y-49419967D02*
X72812123Y-48819967D01*
X72812123Y-48819967D02*
X73154980Y-49419967D01*
X73154980Y-49419967D02*
X73154980Y-48819967D01*
X73697837Y-49019967D02*
X73697837Y-49419967D01*
X73554979Y-48791396D02*
X73412122Y-49219967D01*
X73412122Y-49219967D02*
X73783551Y-49219967D01*
X77626409Y-49419967D02*
X77626409Y-48819967D01*
X77912123Y-49419967D02*
X77912123Y-48819967D01*
X77912123Y-48819967D02*
X78254980Y-49419967D01*
X78254980Y-49419967D02*
X78254980Y-48819967D01*
X78797837Y-49019967D02*
X78797837Y-49419967D01*
X78654979Y-48791396D02*
X78512122Y-49219967D01*
X78512122Y-49219967D02*
X78883551Y-49219967D01*
X75026409Y-62419967D02*
X75026409Y-61819967D01*
X75312123Y-62419967D02*
X75312123Y-61819967D01*
X75312123Y-61819967D02*
X75654980Y-62419967D01*
X75654980Y-62419967D02*
X75654980Y-61819967D01*
X76226408Y-61819967D02*
X75940694Y-61819967D01*
X75940694Y-61819967D02*
X75912122Y-62105681D01*
X75912122Y-62105681D02*
X75940694Y-62077110D01*
X75940694Y-62077110D02*
X75997837Y-62048538D01*
X75997837Y-62048538D02*
X76140694Y-62048538D01*
X76140694Y-62048538D02*
X76197837Y-62077110D01*
X76197837Y-62077110D02*
X76226408Y-62105681D01*
X76226408Y-62105681D02*
X76254979Y-62162824D01*
X76254979Y-62162824D02*
X76254979Y-62305681D01*
X76254979Y-62305681D02*
X76226408Y-62362824D01*
X76226408Y-62362824D02*
X76197837Y-62391396D01*
X76197837Y-62391396D02*
X76140694Y-62419967D01*
X76140694Y-62419967D02*
X75997837Y-62419967D01*
X75997837Y-62419967D02*
X75940694Y-62391396D01*
X75940694Y-62391396D02*
X75912122Y-62362824D01*
X45626409Y-39805681D02*
X45826409Y-39805681D01*
X45912123Y-40119967D02*
X45626409Y-40119967D01*
X45626409Y-40119967D02*
X45626409Y-39519967D01*
X45626409Y-39519967D02*
X45912123Y-39519967D01*
X46169266Y-40119967D02*
X46169266Y-39519967D01*
X46169266Y-39519967D02*
X46512123Y-40119967D01*
X46512123Y-40119967D02*
X46512123Y-39519967D01*
X46997837Y-39805681D02*
X47083551Y-39834253D01*
X47083551Y-39834253D02*
X47112122Y-39862824D01*
X47112122Y-39862824D02*
X47140694Y-39919967D01*
X47140694Y-39919967D02*
X47140694Y-40005681D01*
X47140694Y-40005681D02*
X47112122Y-40062824D01*
X47112122Y-40062824D02*
X47083551Y-40091396D01*
X47083551Y-40091396D02*
X47026408Y-40119967D01*
X47026408Y-40119967D02*
X46797837Y-40119967D01*
X46797837Y-40119967D02*
X46797837Y-39519967D01*
X46797837Y-39519967D02*
X46997837Y-39519967D01*
X46997837Y-39519967D02*
X47054980Y-39548538D01*
X47054980Y-39548538D02*
X47083551Y-39577110D01*
X47083551Y-39577110D02*
X47112122Y-39634253D01*
X47112122Y-39634253D02*
X47112122Y-39691396D01*
X47112122Y-39691396D02*
X47083551Y-39748538D01*
X47083551Y-39748538D02*
X47054980Y-39777110D01*
X47054980Y-39777110D02*
X46997837Y-39805681D01*
X46997837Y-39805681D02*
X46797837Y-39805681D01*
X41540694Y-65648538D02*
X41483552Y-65619967D01*
X41483552Y-65619967D02*
X41397837Y-65619967D01*
X41397837Y-65619967D02*
X41312123Y-65648538D01*
X41312123Y-65648538D02*
X41254980Y-65705681D01*
X41254980Y-65705681D02*
X41226409Y-65762824D01*
X41226409Y-65762824D02*
X41197837Y-65877110D01*
X41197837Y-65877110D02*
X41197837Y-65962824D01*
X41197837Y-65962824D02*
X41226409Y-66077110D01*
X41226409Y-66077110D02*
X41254980Y-66134253D01*
X41254980Y-66134253D02*
X41312123Y-66191396D01*
X41312123Y-66191396D02*
X41397837Y-66219967D01*
X41397837Y-66219967D02*
X41454980Y-66219967D01*
X41454980Y-66219967D02*
X41540694Y-66191396D01*
X41540694Y-66191396D02*
X41569266Y-66162824D01*
X41569266Y-66162824D02*
X41569266Y-65962824D01*
X41569266Y-65962824D02*
X41454980Y-65962824D01*
X41826409Y-66219967D02*
X41826409Y-65619967D01*
X41826409Y-65619967D02*
X42169266Y-66219967D01*
X42169266Y-66219967D02*
X42169266Y-65619967D01*
X42454980Y-66219967D02*
X42454980Y-65619967D01*
X42454980Y-65619967D02*
X42597837Y-65619967D01*
X42597837Y-65619967D02*
X42683551Y-65648538D01*
X42683551Y-65648538D02*
X42740694Y-65705681D01*
X42740694Y-65705681D02*
X42769265Y-65762824D01*
X42769265Y-65762824D02*
X42797837Y-65877110D01*
X42797837Y-65877110D02*
X42797837Y-65962824D01*
X42797837Y-65962824D02*
X42769265Y-66077110D01*
X42769265Y-66077110D02*
X42740694Y-66134253D01*
X42740694Y-66134253D02*
X42683551Y-66191396D01*
X42683551Y-66191396D02*
X42597837Y-66219967D01*
X42597837Y-66219967D02*
X42454980Y-66219967D01*
X75140694Y-52648538D02*
X75083552Y-52619967D01*
X75083552Y-52619967D02*
X74997837Y-52619967D01*
X74997837Y-52619967D02*
X74912123Y-52648538D01*
X74912123Y-52648538D02*
X74854980Y-52705681D01*
X74854980Y-52705681D02*
X74826409Y-52762824D01*
X74826409Y-52762824D02*
X74797837Y-52877110D01*
X74797837Y-52877110D02*
X74797837Y-52962824D01*
X74797837Y-52962824D02*
X74826409Y-53077110D01*
X74826409Y-53077110D02*
X74854980Y-53134253D01*
X74854980Y-53134253D02*
X74912123Y-53191396D01*
X74912123Y-53191396D02*
X74997837Y-53219967D01*
X74997837Y-53219967D02*
X75054980Y-53219967D01*
X75054980Y-53219967D02*
X75140694Y-53191396D01*
X75140694Y-53191396D02*
X75169266Y-53162824D01*
X75169266Y-53162824D02*
X75169266Y-52962824D01*
X75169266Y-52962824D02*
X75054980Y-52962824D01*
X75426409Y-53219967D02*
X75426409Y-52619967D01*
X75426409Y-52619967D02*
X75769266Y-53219967D01*
X75769266Y-53219967D02*
X75769266Y-52619967D01*
X76054980Y-53219967D02*
X76054980Y-52619967D01*
X76054980Y-52619967D02*
X76197837Y-52619967D01*
X76197837Y-52619967D02*
X76283551Y-52648538D01*
X76283551Y-52648538D02*
X76340694Y-52705681D01*
X76340694Y-52705681D02*
X76369265Y-52762824D01*
X76369265Y-52762824D02*
X76397837Y-52877110D01*
X76397837Y-52877110D02*
X76397837Y-52962824D01*
X76397837Y-52962824D02*
X76369265Y-53077110D01*
X76369265Y-53077110D02*
X76340694Y-53134253D01*
X76340694Y-53134253D02*
X76283551Y-53191396D01*
X76283551Y-53191396D02*
X76197837Y-53219967D01*
X76197837Y-53219967D02*
X76054980Y-53219967D01*
X63140694Y-46419967D02*
X63340694Y-47019967D01*
X63340694Y-47019967D02*
X63540694Y-46419967D01*
X63740695Y-47019967D02*
X63740695Y-46419967D01*
X63740695Y-46419967D02*
X63883552Y-46419967D01*
X63883552Y-46419967D02*
X63969266Y-46448538D01*
X63969266Y-46448538D02*
X64026409Y-46505681D01*
X64026409Y-46505681D02*
X64054980Y-46562824D01*
X64054980Y-46562824D02*
X64083552Y-46677110D01*
X64083552Y-46677110D02*
X64083552Y-46762824D01*
X64083552Y-46762824D02*
X64054980Y-46877110D01*
X64054980Y-46877110D02*
X64026409Y-46934253D01*
X64026409Y-46934253D02*
X63969266Y-46991396D01*
X63969266Y-46991396D02*
X63883552Y-47019967D01*
X63883552Y-47019967D02*
X63740695Y-47019967D01*
X64340695Y-47019967D02*
X64340695Y-46419967D01*
X64340695Y-46419967D02*
X64483552Y-46419967D01*
X64483552Y-46419967D02*
X64569266Y-46448538D01*
X64569266Y-46448538D02*
X64626409Y-46505681D01*
X64626409Y-46505681D02*
X64654980Y-46562824D01*
X64654980Y-46562824D02*
X64683552Y-46677110D01*
X64683552Y-46677110D02*
X64683552Y-46762824D01*
X64683552Y-46762824D02*
X64654980Y-46877110D01*
X64654980Y-46877110D02*
X64626409Y-46934253D01*
X64626409Y-46934253D02*
X64569266Y-46991396D01*
X64569266Y-46991396D02*
X64483552Y-47019967D01*
X64483552Y-47019967D02*
X64340695Y-47019967D01*
X75026409Y-75419967D02*
X75026409Y-74819967D01*
X75312123Y-75419967D02*
X75312123Y-74819967D01*
X75312123Y-74819967D02*
X75654980Y-75419967D01*
X75654980Y-75419967D02*
X75654980Y-74819967D01*
X76197837Y-74819967D02*
X76083551Y-74819967D01*
X76083551Y-74819967D02*
X76026408Y-74848538D01*
X76026408Y-74848538D02*
X75997837Y-74877110D01*
X75997837Y-74877110D02*
X75940694Y-74962824D01*
X75940694Y-74962824D02*
X75912122Y-75077110D01*
X75912122Y-75077110D02*
X75912122Y-75305681D01*
X75912122Y-75305681D02*
X75940694Y-75362824D01*
X75940694Y-75362824D02*
X75969265Y-75391396D01*
X75969265Y-75391396D02*
X76026408Y-75419967D01*
X76026408Y-75419967D02*
X76140694Y-75419967D01*
X76140694Y-75419967D02*
X76197837Y-75391396D01*
X76197837Y-75391396D02*
X76226408Y-75362824D01*
X76226408Y-75362824D02*
X76254979Y-75305681D01*
X76254979Y-75305681D02*
X76254979Y-75162824D01*
X76254979Y-75162824D02*
X76226408Y-75105681D01*
X76226408Y-75105681D02*
X76197837Y-75077110D01*
X76197837Y-75077110D02*
X76140694Y-75048538D01*
X76140694Y-75048538D02*
X76026408Y-75048538D01*
X76026408Y-75048538D02*
X75969265Y-75077110D01*
X75969265Y-75077110D02*
X75940694Y-75105681D01*
X75940694Y-75105681D02*
X75912122Y-75162824D01*
X77640694Y-91648538D02*
X77583552Y-91619967D01*
X77583552Y-91619967D02*
X77497837Y-91619967D01*
X77497837Y-91619967D02*
X77412123Y-91648538D01*
X77412123Y-91648538D02*
X77354980Y-91705681D01*
X77354980Y-91705681D02*
X77326409Y-91762824D01*
X77326409Y-91762824D02*
X77297837Y-91877110D01*
X77297837Y-91877110D02*
X77297837Y-91962824D01*
X77297837Y-91962824D02*
X77326409Y-92077110D01*
X77326409Y-92077110D02*
X77354980Y-92134253D01*
X77354980Y-92134253D02*
X77412123Y-92191396D01*
X77412123Y-92191396D02*
X77497837Y-92219967D01*
X77497837Y-92219967D02*
X77554980Y-92219967D01*
X77554980Y-92219967D02*
X77640694Y-92191396D01*
X77640694Y-92191396D02*
X77669266Y-92162824D01*
X77669266Y-92162824D02*
X77669266Y-91962824D01*
X77669266Y-91962824D02*
X77554980Y-91962824D01*
X77926409Y-92219967D02*
X77926409Y-91619967D01*
X77926409Y-91619967D02*
X78269266Y-92219967D01*
X78269266Y-92219967D02*
X78269266Y-91619967D01*
X78554980Y-92219967D02*
X78554980Y-91619967D01*
X78554980Y-91619967D02*
X78697837Y-91619967D01*
X78697837Y-91619967D02*
X78783551Y-91648538D01*
X78783551Y-91648538D02*
X78840694Y-91705681D01*
X78840694Y-91705681D02*
X78869265Y-91762824D01*
X78869265Y-91762824D02*
X78897837Y-91877110D01*
X78897837Y-91877110D02*
X78897837Y-91962824D01*
X78897837Y-91962824D02*
X78869265Y-92077110D01*
X78869265Y-92077110D02*
X78840694Y-92134253D01*
X78840694Y-92134253D02*
X78783551Y-92191396D01*
X78783551Y-92191396D02*
X78697837Y-92219967D01*
X78697837Y-92219967D02*
X78554980Y-92219967D01*
X41540694Y-91648538D02*
X41483552Y-91619967D01*
X41483552Y-91619967D02*
X41397837Y-91619967D01*
X41397837Y-91619967D02*
X41312123Y-91648538D01*
X41312123Y-91648538D02*
X41254980Y-91705681D01*
X41254980Y-91705681D02*
X41226409Y-91762824D01*
X41226409Y-91762824D02*
X41197837Y-91877110D01*
X41197837Y-91877110D02*
X41197837Y-91962824D01*
X41197837Y-91962824D02*
X41226409Y-92077110D01*
X41226409Y-92077110D02*
X41254980Y-92134253D01*
X41254980Y-92134253D02*
X41312123Y-92191396D01*
X41312123Y-92191396D02*
X41397837Y-92219967D01*
X41397837Y-92219967D02*
X41454980Y-92219967D01*
X41454980Y-92219967D02*
X41540694Y-92191396D01*
X41540694Y-92191396D02*
X41569266Y-92162824D01*
X41569266Y-92162824D02*
X41569266Y-91962824D01*
X41569266Y-91962824D02*
X41454980Y-91962824D01*
X41826409Y-92219967D02*
X41826409Y-91619967D01*
X41826409Y-91619967D02*
X42169266Y-92219967D01*
X42169266Y-92219967D02*
X42169266Y-91619967D01*
X42454980Y-92219967D02*
X42454980Y-91619967D01*
X42454980Y-91619967D02*
X42597837Y-91619967D01*
X42597837Y-91619967D02*
X42683551Y-91648538D01*
X42683551Y-91648538D02*
X42740694Y-91705681D01*
X42740694Y-91705681D02*
X42769265Y-91762824D01*
X42769265Y-91762824D02*
X42797837Y-91877110D01*
X42797837Y-91877110D02*
X42797837Y-91962824D01*
X42797837Y-91962824D02*
X42769265Y-92077110D01*
X42769265Y-92077110D02*
X42740694Y-92134253D01*
X42740694Y-92134253D02*
X42683551Y-92191396D01*
X42683551Y-92191396D02*
X42597837Y-92219967D01*
X42597837Y-92219967D02*
X42454980Y-92219967D01*
X77640694Y-52648538D02*
X77583552Y-52619967D01*
X77583552Y-52619967D02*
X77497837Y-52619967D01*
X77497837Y-52619967D02*
X77412123Y-52648538D01*
X77412123Y-52648538D02*
X77354980Y-52705681D01*
X77354980Y-52705681D02*
X77326409Y-52762824D01*
X77326409Y-52762824D02*
X77297837Y-52877110D01*
X77297837Y-52877110D02*
X77297837Y-52962824D01*
X77297837Y-52962824D02*
X77326409Y-53077110D01*
X77326409Y-53077110D02*
X77354980Y-53134253D01*
X77354980Y-53134253D02*
X77412123Y-53191396D01*
X77412123Y-53191396D02*
X77497837Y-53219967D01*
X77497837Y-53219967D02*
X77554980Y-53219967D01*
X77554980Y-53219967D02*
X77640694Y-53191396D01*
X77640694Y-53191396D02*
X77669266Y-53162824D01*
X77669266Y-53162824D02*
X77669266Y-52962824D01*
X77669266Y-52962824D02*
X77554980Y-52962824D01*
X77926409Y-53219967D02*
X77926409Y-52619967D01*
X77926409Y-52619967D02*
X78269266Y-53219967D01*
X78269266Y-53219967D02*
X78269266Y-52619967D01*
X78554980Y-53219967D02*
X78554980Y-52619967D01*
X78554980Y-52619967D02*
X78697837Y-52619967D01*
X78697837Y-52619967D02*
X78783551Y-52648538D01*
X78783551Y-52648538D02*
X78840694Y-52705681D01*
X78840694Y-52705681D02*
X78869265Y-52762824D01*
X78869265Y-52762824D02*
X78897837Y-52877110D01*
X78897837Y-52877110D02*
X78897837Y-52962824D01*
X78897837Y-52962824D02*
X78869265Y-53077110D01*
X78869265Y-53077110D02*
X78840694Y-53134253D01*
X78840694Y-53134253D02*
X78783551Y-53191396D01*
X78783551Y-53191396D02*
X78697837Y-53219967D01*
X78697837Y-53219967D02*
X78554980Y-53219967D01*
X75026409Y-49419967D02*
X75026409Y-48819967D01*
X75312123Y-49419967D02*
X75312123Y-48819967D01*
X75312123Y-48819967D02*
X75654980Y-49419967D01*
X75654980Y-49419967D02*
X75654980Y-48819967D01*
X76197837Y-49019967D02*
X76197837Y-49419967D01*
X76054979Y-48791396D02*
X75912122Y-49219967D01*
X75912122Y-49219967D02*
X76283551Y-49219967D01*
X53097837Y-40091396D02*
X53183552Y-40119967D01*
X53183552Y-40119967D02*
X53326409Y-40119967D01*
X53326409Y-40119967D02*
X53383552Y-40091396D01*
X53383552Y-40091396D02*
X53412123Y-40062824D01*
X53412123Y-40062824D02*
X53440694Y-40005681D01*
X53440694Y-40005681D02*
X53440694Y-39948538D01*
X53440694Y-39948538D02*
X53412123Y-39891396D01*
X53412123Y-39891396D02*
X53383552Y-39862824D01*
X53383552Y-39862824D02*
X53326409Y-39834253D01*
X53326409Y-39834253D02*
X53212123Y-39805681D01*
X53212123Y-39805681D02*
X53154980Y-39777110D01*
X53154980Y-39777110D02*
X53126409Y-39748538D01*
X53126409Y-39748538D02*
X53097837Y-39691396D01*
X53097837Y-39691396D02*
X53097837Y-39634253D01*
X53097837Y-39634253D02*
X53126409Y-39577110D01*
X53126409Y-39577110D02*
X53154980Y-39548538D01*
X53154980Y-39548538D02*
X53212123Y-39519967D01*
X53212123Y-39519967D02*
X53354980Y-39519967D01*
X53354980Y-39519967D02*
X53440694Y-39548538D01*
X53697838Y-39805681D02*
X53897838Y-39805681D01*
X53983552Y-40119967D02*
X53697838Y-40119967D01*
X53697838Y-40119967D02*
X53697838Y-39519967D01*
X53697838Y-39519967D02*
X53983552Y-39519967D01*
X54526409Y-40119967D02*
X54240695Y-40119967D01*
X54240695Y-40119967D02*
X54240695Y-39519967D01*
X54697837Y-39577110D02*
X54726409Y-39548538D01*
X54726409Y-39548538D02*
X54783552Y-39519967D01*
X54783552Y-39519967D02*
X54926409Y-39519967D01*
X54926409Y-39519967D02*
X54983552Y-39548538D01*
X54983552Y-39548538D02*
X55012123Y-39577110D01*
X55012123Y-39577110D02*
X55040694Y-39634253D01*
X55040694Y-39634253D02*
X55040694Y-39691396D01*
X55040694Y-39691396D02*
X55012123Y-39777110D01*
X55012123Y-39777110D02*
X54669266Y-40119967D01*
X54669266Y-40119967D02*
X55040694Y-40119967D01*
X72540694Y-78648538D02*
X72483552Y-78619967D01*
X72483552Y-78619967D02*
X72397837Y-78619967D01*
X72397837Y-78619967D02*
X72312123Y-78648538D01*
X72312123Y-78648538D02*
X72254980Y-78705681D01*
X72254980Y-78705681D02*
X72226409Y-78762824D01*
X72226409Y-78762824D02*
X72197837Y-78877110D01*
X72197837Y-78877110D02*
X72197837Y-78962824D01*
X72197837Y-78962824D02*
X72226409Y-79077110D01*
X72226409Y-79077110D02*
X72254980Y-79134253D01*
X72254980Y-79134253D02*
X72312123Y-79191396D01*
X72312123Y-79191396D02*
X72397837Y-79219967D01*
X72397837Y-79219967D02*
X72454980Y-79219967D01*
X72454980Y-79219967D02*
X72540694Y-79191396D01*
X72540694Y-79191396D02*
X72569266Y-79162824D01*
X72569266Y-79162824D02*
X72569266Y-78962824D01*
X72569266Y-78962824D02*
X72454980Y-78962824D01*
X72826409Y-79219967D02*
X72826409Y-78619967D01*
X72826409Y-78619967D02*
X73169266Y-79219967D01*
X73169266Y-79219967D02*
X73169266Y-78619967D01*
X73454980Y-79219967D02*
X73454980Y-78619967D01*
X73454980Y-78619967D02*
X73597837Y-78619967D01*
X73597837Y-78619967D02*
X73683551Y-78648538D01*
X73683551Y-78648538D02*
X73740694Y-78705681D01*
X73740694Y-78705681D02*
X73769265Y-78762824D01*
X73769265Y-78762824D02*
X73797837Y-78877110D01*
X73797837Y-78877110D02*
X73797837Y-78962824D01*
X73797837Y-78962824D02*
X73769265Y-79077110D01*
X73769265Y-79077110D02*
X73740694Y-79134253D01*
X73740694Y-79134253D02*
X73683551Y-79191396D01*
X73683551Y-79191396D02*
X73597837Y-79219967D01*
X73597837Y-79219967D02*
X73454980Y-79219967D01*
X72540694Y-91648538D02*
X72483552Y-91619967D01*
X72483552Y-91619967D02*
X72397837Y-91619967D01*
X72397837Y-91619967D02*
X72312123Y-91648538D01*
X72312123Y-91648538D02*
X72254980Y-91705681D01*
X72254980Y-91705681D02*
X72226409Y-91762824D01*
X72226409Y-91762824D02*
X72197837Y-91877110D01*
X72197837Y-91877110D02*
X72197837Y-91962824D01*
X72197837Y-91962824D02*
X72226409Y-92077110D01*
X72226409Y-92077110D02*
X72254980Y-92134253D01*
X72254980Y-92134253D02*
X72312123Y-92191396D01*
X72312123Y-92191396D02*
X72397837Y-92219967D01*
X72397837Y-92219967D02*
X72454980Y-92219967D01*
X72454980Y-92219967D02*
X72540694Y-92191396D01*
X72540694Y-92191396D02*
X72569266Y-92162824D01*
X72569266Y-92162824D02*
X72569266Y-91962824D01*
X72569266Y-91962824D02*
X72454980Y-91962824D01*
X72826409Y-92219967D02*
X72826409Y-91619967D01*
X72826409Y-91619967D02*
X73169266Y-92219967D01*
X73169266Y-92219967D02*
X73169266Y-91619967D01*
X73454980Y-92219967D02*
X73454980Y-91619967D01*
X73454980Y-91619967D02*
X73597837Y-91619967D01*
X73597837Y-91619967D02*
X73683551Y-91648538D01*
X73683551Y-91648538D02*
X73740694Y-91705681D01*
X73740694Y-91705681D02*
X73769265Y-91762824D01*
X73769265Y-91762824D02*
X73797837Y-91877110D01*
X73797837Y-91877110D02*
X73797837Y-91962824D01*
X73797837Y-91962824D02*
X73769265Y-92077110D01*
X73769265Y-92077110D02*
X73740694Y-92134253D01*
X73740694Y-92134253D02*
X73683551Y-92191396D01*
X73683551Y-92191396D02*
X73597837Y-92219967D01*
X73597837Y-92219967D02*
X73454980Y-92219967D01*
X72526409Y-62419967D02*
X72526409Y-61819967D01*
X72812123Y-62419967D02*
X72812123Y-61819967D01*
X72812123Y-61819967D02*
X73154980Y-62419967D01*
X73154980Y-62419967D02*
X73154980Y-61819967D01*
X73726408Y-61819967D02*
X73440694Y-61819967D01*
X73440694Y-61819967D02*
X73412122Y-62105681D01*
X73412122Y-62105681D02*
X73440694Y-62077110D01*
X73440694Y-62077110D02*
X73497837Y-62048538D01*
X73497837Y-62048538D02*
X73640694Y-62048538D01*
X73640694Y-62048538D02*
X73697837Y-62077110D01*
X73697837Y-62077110D02*
X73726408Y-62105681D01*
X73726408Y-62105681D02*
X73754979Y-62162824D01*
X73754979Y-62162824D02*
X73754979Y-62305681D01*
X73754979Y-62305681D02*
X73726408Y-62362824D01*
X73726408Y-62362824D02*
X73697837Y-62391396D01*
X73697837Y-62391396D02*
X73640694Y-62419967D01*
X73640694Y-62419967D02*
X73497837Y-62419967D01*
X73497837Y-62419967D02*
X73440694Y-62391396D01*
X73440694Y-62391396D02*
X73412122Y-62362824D01*
X60940694Y-46448538D02*
X60883552Y-46419967D01*
X60883552Y-46419967D02*
X60797837Y-46419967D01*
X60797837Y-46419967D02*
X60712123Y-46448538D01*
X60712123Y-46448538D02*
X60654980Y-46505681D01*
X60654980Y-46505681D02*
X60626409Y-46562824D01*
X60626409Y-46562824D02*
X60597837Y-46677110D01*
X60597837Y-46677110D02*
X60597837Y-46762824D01*
X60597837Y-46762824D02*
X60626409Y-46877110D01*
X60626409Y-46877110D02*
X60654980Y-46934253D01*
X60654980Y-46934253D02*
X60712123Y-46991396D01*
X60712123Y-46991396D02*
X60797837Y-47019967D01*
X60797837Y-47019967D02*
X60854980Y-47019967D01*
X60854980Y-47019967D02*
X60940694Y-46991396D01*
X60940694Y-46991396D02*
X60969266Y-46962824D01*
X60969266Y-46962824D02*
X60969266Y-46762824D01*
X60969266Y-46762824D02*
X60854980Y-46762824D01*
X61226409Y-47019967D02*
X61226409Y-46419967D01*
X61226409Y-46419967D02*
X61569266Y-47019967D01*
X61569266Y-47019967D02*
X61569266Y-46419967D01*
X61854980Y-47019967D02*
X61854980Y-46419967D01*
X61854980Y-46419967D02*
X61997837Y-46419967D01*
X61997837Y-46419967D02*
X62083551Y-46448538D01*
X62083551Y-46448538D02*
X62140694Y-46505681D01*
X62140694Y-46505681D02*
X62169265Y-46562824D01*
X62169265Y-46562824D02*
X62197837Y-46677110D01*
X62197837Y-46677110D02*
X62197837Y-46762824D01*
X62197837Y-46762824D02*
X62169265Y-46877110D01*
X62169265Y-46877110D02*
X62140694Y-46934253D01*
X62140694Y-46934253D02*
X62083551Y-46991396D01*
X62083551Y-46991396D02*
X61997837Y-47019967D01*
X61997837Y-47019967D02*
X61854980Y-47019967D01*
X46626409Y-62419967D02*
X46626409Y-61819967D01*
X46912123Y-62419967D02*
X46912123Y-61819967D01*
X46912123Y-61819967D02*
X47254980Y-62419967D01*
X47254980Y-62419967D02*
X47254980Y-61819967D01*
X47854979Y-62419967D02*
X47512122Y-62419967D01*
X47683551Y-62419967D02*
X47683551Y-61819967D01*
X47683551Y-61819967D02*
X47626408Y-61905681D01*
X47626408Y-61905681D02*
X47569265Y-61962824D01*
X47569265Y-61962824D02*
X47512122Y-61991396D01*
X44140694Y-65648538D02*
X44083552Y-65619967D01*
X44083552Y-65619967D02*
X43997837Y-65619967D01*
X43997837Y-65619967D02*
X43912123Y-65648538D01*
X43912123Y-65648538D02*
X43854980Y-65705681D01*
X43854980Y-65705681D02*
X43826409Y-65762824D01*
X43826409Y-65762824D02*
X43797837Y-65877110D01*
X43797837Y-65877110D02*
X43797837Y-65962824D01*
X43797837Y-65962824D02*
X43826409Y-66077110D01*
X43826409Y-66077110D02*
X43854980Y-66134253D01*
X43854980Y-66134253D02*
X43912123Y-66191396D01*
X43912123Y-66191396D02*
X43997837Y-66219967D01*
X43997837Y-66219967D02*
X44054980Y-66219967D01*
X44054980Y-66219967D02*
X44140694Y-66191396D01*
X44140694Y-66191396D02*
X44169266Y-66162824D01*
X44169266Y-66162824D02*
X44169266Y-65962824D01*
X44169266Y-65962824D02*
X44054980Y-65962824D01*
X44426409Y-66219967D02*
X44426409Y-65619967D01*
X44426409Y-65619967D02*
X44769266Y-66219967D01*
X44769266Y-66219967D02*
X44769266Y-65619967D01*
X45054980Y-66219967D02*
X45054980Y-65619967D01*
X45054980Y-65619967D02*
X45197837Y-65619967D01*
X45197837Y-65619967D02*
X45283551Y-65648538D01*
X45283551Y-65648538D02*
X45340694Y-65705681D01*
X45340694Y-65705681D02*
X45369265Y-65762824D01*
X45369265Y-65762824D02*
X45397837Y-65877110D01*
X45397837Y-65877110D02*
X45397837Y-65962824D01*
X45397837Y-65962824D02*
X45369265Y-66077110D01*
X45369265Y-66077110D02*
X45340694Y-66134253D01*
X45340694Y-66134253D02*
X45283551Y-66191396D01*
X45283551Y-66191396D02*
X45197837Y-66219967D01*
X45197837Y-66219967D02*
X45054980Y-66219967D01*
X46626409Y-88419967D02*
X46626409Y-87819967D01*
X46912123Y-88419967D02*
X46912123Y-87819967D01*
X46912123Y-87819967D02*
X47254980Y-88419967D01*
X47254980Y-88419967D02*
X47254980Y-87819967D01*
X47483551Y-87819967D02*
X47854979Y-87819967D01*
X47854979Y-87819967D02*
X47654979Y-88048538D01*
X47654979Y-88048538D02*
X47740694Y-88048538D01*
X47740694Y-88048538D02*
X47797837Y-88077110D01*
X47797837Y-88077110D02*
X47826408Y-88105681D01*
X47826408Y-88105681D02*
X47854979Y-88162824D01*
X47854979Y-88162824D02*
X47854979Y-88305681D01*
X47854979Y-88305681D02*
X47826408Y-88362824D01*
X47826408Y-88362824D02*
X47797837Y-88391396D01*
X47797837Y-88391396D02*
X47740694Y-88419967D01*
X47740694Y-88419967D02*
X47569265Y-88419967D01*
X47569265Y-88419967D02*
X47512122Y-88391396D01*
X47512122Y-88391396D02*
X47483551Y-88362824D01*
X77626409Y-75419967D02*
X77626409Y-74819967D01*
X77912123Y-75419967D02*
X77912123Y-74819967D01*
X77912123Y-74819967D02*
X78254980Y-75419967D01*
X78254980Y-75419967D02*
X78254980Y-74819967D01*
X78797837Y-74819967D02*
X78683551Y-74819967D01*
X78683551Y-74819967D02*
X78626408Y-74848538D01*
X78626408Y-74848538D02*
X78597837Y-74877110D01*
X78597837Y-74877110D02*
X78540694Y-74962824D01*
X78540694Y-74962824D02*
X78512122Y-75077110D01*
X78512122Y-75077110D02*
X78512122Y-75305681D01*
X78512122Y-75305681D02*
X78540694Y-75362824D01*
X78540694Y-75362824D02*
X78569265Y-75391396D01*
X78569265Y-75391396D02*
X78626408Y-75419967D01*
X78626408Y-75419967D02*
X78740694Y-75419967D01*
X78740694Y-75419967D02*
X78797837Y-75391396D01*
X78797837Y-75391396D02*
X78826408Y-75362824D01*
X78826408Y-75362824D02*
X78854979Y-75305681D01*
X78854979Y-75305681D02*
X78854979Y-75162824D01*
X78854979Y-75162824D02*
X78826408Y-75105681D01*
X78826408Y-75105681D02*
X78797837Y-75077110D01*
X78797837Y-75077110D02*
X78740694Y-75048538D01*
X78740694Y-75048538D02*
X78626408Y-75048538D01*
X78626408Y-75048538D02*
X78569265Y-75077110D01*
X78569265Y-75077110D02*
X78540694Y-75105681D01*
X78540694Y-75105681D02*
X78512122Y-75162824D01*
X44140694Y-52648538D02*
X44083552Y-52619967D01*
X44083552Y-52619967D02*
X43997837Y-52619967D01*
X43997837Y-52619967D02*
X43912123Y-52648538D01*
X43912123Y-52648538D02*
X43854980Y-52705681D01*
X43854980Y-52705681D02*
X43826409Y-52762824D01*
X43826409Y-52762824D02*
X43797837Y-52877110D01*
X43797837Y-52877110D02*
X43797837Y-52962824D01*
X43797837Y-52962824D02*
X43826409Y-53077110D01*
X43826409Y-53077110D02*
X43854980Y-53134253D01*
X43854980Y-53134253D02*
X43912123Y-53191396D01*
X43912123Y-53191396D02*
X43997837Y-53219967D01*
X43997837Y-53219967D02*
X44054980Y-53219967D01*
X44054980Y-53219967D02*
X44140694Y-53191396D01*
X44140694Y-53191396D02*
X44169266Y-53162824D01*
X44169266Y-53162824D02*
X44169266Y-52962824D01*
X44169266Y-52962824D02*
X44054980Y-52962824D01*
X44426409Y-53219967D02*
X44426409Y-52619967D01*
X44426409Y-52619967D02*
X44769266Y-53219967D01*
X44769266Y-53219967D02*
X44769266Y-52619967D01*
X45054980Y-53219967D02*
X45054980Y-52619967D01*
X45054980Y-52619967D02*
X45197837Y-52619967D01*
X45197837Y-52619967D02*
X45283551Y-52648538D01*
X45283551Y-52648538D02*
X45340694Y-52705681D01*
X45340694Y-52705681D02*
X45369265Y-52762824D01*
X45369265Y-52762824D02*
X45397837Y-52877110D01*
X45397837Y-52877110D02*
X45397837Y-52962824D01*
X45397837Y-52962824D02*
X45369265Y-53077110D01*
X45369265Y-53077110D02*
X45340694Y-53134253D01*
X45340694Y-53134253D02*
X45283551Y-53191396D01*
X45283551Y-53191396D02*
X45197837Y-53219967D01*
X45197837Y-53219967D02*
X45054980Y-53219967D01*
X41526409Y-75419967D02*
X41526409Y-74819967D01*
X41812123Y-75419967D02*
X41812123Y-74819967D01*
X41812123Y-74819967D02*
X42154980Y-75419967D01*
X42154980Y-75419967D02*
X42154980Y-74819967D01*
X42412122Y-74877110D02*
X42440694Y-74848538D01*
X42440694Y-74848538D02*
X42497837Y-74819967D01*
X42497837Y-74819967D02*
X42640694Y-74819967D01*
X42640694Y-74819967D02*
X42697837Y-74848538D01*
X42697837Y-74848538D02*
X42726408Y-74877110D01*
X42726408Y-74877110D02*
X42754979Y-74934253D01*
X42754979Y-74934253D02*
X42754979Y-74991396D01*
X42754979Y-74991396D02*
X42726408Y-75077110D01*
X42726408Y-75077110D02*
X42383551Y-75419967D01*
X42383551Y-75419967D02*
X42754979Y-75419967D01*
X63140694Y-39519967D02*
X63340694Y-40119967D01*
X63340694Y-40119967D02*
X63540694Y-39519967D01*
X63740695Y-40119967D02*
X63740695Y-39519967D01*
X63740695Y-39519967D02*
X63883552Y-39519967D01*
X63883552Y-39519967D02*
X63969266Y-39548538D01*
X63969266Y-39548538D02*
X64026409Y-39605681D01*
X64026409Y-39605681D02*
X64054980Y-39662824D01*
X64054980Y-39662824D02*
X64083552Y-39777110D01*
X64083552Y-39777110D02*
X64083552Y-39862824D01*
X64083552Y-39862824D02*
X64054980Y-39977110D01*
X64054980Y-39977110D02*
X64026409Y-40034253D01*
X64026409Y-40034253D02*
X63969266Y-40091396D01*
X63969266Y-40091396D02*
X63883552Y-40119967D01*
X63883552Y-40119967D02*
X63740695Y-40119967D01*
X64340695Y-40119967D02*
X64340695Y-39519967D01*
X64340695Y-39519967D02*
X64483552Y-39519967D01*
X64483552Y-39519967D02*
X64569266Y-39548538D01*
X64569266Y-39548538D02*
X64626409Y-39605681D01*
X64626409Y-39605681D02*
X64654980Y-39662824D01*
X64654980Y-39662824D02*
X64683552Y-39777110D01*
X64683552Y-39777110D02*
X64683552Y-39862824D01*
X64683552Y-39862824D02*
X64654980Y-39977110D01*
X64654980Y-39977110D02*
X64626409Y-40034253D01*
X64626409Y-40034253D02*
X64569266Y-40091396D01*
X64569266Y-40091396D02*
X64483552Y-40119967D01*
X64483552Y-40119967D02*
X64340695Y-40119967D01*
X46640694Y-78648538D02*
X46583552Y-78619967D01*
X46583552Y-78619967D02*
X46497837Y-78619967D01*
X46497837Y-78619967D02*
X46412123Y-78648538D01*
X46412123Y-78648538D02*
X46354980Y-78705681D01*
X46354980Y-78705681D02*
X46326409Y-78762824D01*
X46326409Y-78762824D02*
X46297837Y-78877110D01*
X46297837Y-78877110D02*
X46297837Y-78962824D01*
X46297837Y-78962824D02*
X46326409Y-79077110D01*
X46326409Y-79077110D02*
X46354980Y-79134253D01*
X46354980Y-79134253D02*
X46412123Y-79191396D01*
X46412123Y-79191396D02*
X46497837Y-79219967D01*
X46497837Y-79219967D02*
X46554980Y-79219967D01*
X46554980Y-79219967D02*
X46640694Y-79191396D01*
X46640694Y-79191396D02*
X46669266Y-79162824D01*
X46669266Y-79162824D02*
X46669266Y-78962824D01*
X46669266Y-78962824D02*
X46554980Y-78962824D01*
X46926409Y-79219967D02*
X46926409Y-78619967D01*
X46926409Y-78619967D02*
X47269266Y-79219967D01*
X47269266Y-79219967D02*
X47269266Y-78619967D01*
X47554980Y-79219967D02*
X47554980Y-78619967D01*
X47554980Y-78619967D02*
X47697837Y-78619967D01*
X47697837Y-78619967D02*
X47783551Y-78648538D01*
X47783551Y-78648538D02*
X47840694Y-78705681D01*
X47840694Y-78705681D02*
X47869265Y-78762824D01*
X47869265Y-78762824D02*
X47897837Y-78877110D01*
X47897837Y-78877110D02*
X47897837Y-78962824D01*
X47897837Y-78962824D02*
X47869265Y-79077110D01*
X47869265Y-79077110D02*
X47840694Y-79134253D01*
X47840694Y-79134253D02*
X47783551Y-79191396D01*
X47783551Y-79191396D02*
X47697837Y-79219967D01*
X47697837Y-79219967D02*
X47554980Y-79219967D01*
X77640694Y-65648538D02*
X77583552Y-65619967D01*
X77583552Y-65619967D02*
X77497837Y-65619967D01*
X77497837Y-65619967D02*
X77412123Y-65648538D01*
X77412123Y-65648538D02*
X77354980Y-65705681D01*
X77354980Y-65705681D02*
X77326409Y-65762824D01*
X77326409Y-65762824D02*
X77297837Y-65877110D01*
X77297837Y-65877110D02*
X77297837Y-65962824D01*
X77297837Y-65962824D02*
X77326409Y-66077110D01*
X77326409Y-66077110D02*
X77354980Y-66134253D01*
X77354980Y-66134253D02*
X77412123Y-66191396D01*
X77412123Y-66191396D02*
X77497837Y-66219967D01*
X77497837Y-66219967D02*
X77554980Y-66219967D01*
X77554980Y-66219967D02*
X77640694Y-66191396D01*
X77640694Y-66191396D02*
X77669266Y-66162824D01*
X77669266Y-66162824D02*
X77669266Y-65962824D01*
X77669266Y-65962824D02*
X77554980Y-65962824D01*
X77926409Y-66219967D02*
X77926409Y-65619967D01*
X77926409Y-65619967D02*
X78269266Y-66219967D01*
X78269266Y-66219967D02*
X78269266Y-65619967D01*
X78554980Y-66219967D02*
X78554980Y-65619967D01*
X78554980Y-65619967D02*
X78697837Y-65619967D01*
X78697837Y-65619967D02*
X78783551Y-65648538D01*
X78783551Y-65648538D02*
X78840694Y-65705681D01*
X78840694Y-65705681D02*
X78869265Y-65762824D01*
X78869265Y-65762824D02*
X78897837Y-65877110D01*
X78897837Y-65877110D02*
X78897837Y-65962824D01*
X78897837Y-65962824D02*
X78869265Y-66077110D01*
X78869265Y-66077110D02*
X78840694Y-66134253D01*
X78840694Y-66134253D02*
X78783551Y-66191396D01*
X78783551Y-66191396D02*
X78697837Y-66219967D01*
X78697837Y-66219967D02*
X78554980Y-66219967D01*
X60940694Y-39548538D02*
X60883552Y-39519967D01*
X60883552Y-39519967D02*
X60797837Y-39519967D01*
X60797837Y-39519967D02*
X60712123Y-39548538D01*
X60712123Y-39548538D02*
X60654980Y-39605681D01*
X60654980Y-39605681D02*
X60626409Y-39662824D01*
X60626409Y-39662824D02*
X60597837Y-39777110D01*
X60597837Y-39777110D02*
X60597837Y-39862824D01*
X60597837Y-39862824D02*
X60626409Y-39977110D01*
X60626409Y-39977110D02*
X60654980Y-40034253D01*
X60654980Y-40034253D02*
X60712123Y-40091396D01*
X60712123Y-40091396D02*
X60797837Y-40119967D01*
X60797837Y-40119967D02*
X60854980Y-40119967D01*
X60854980Y-40119967D02*
X60940694Y-40091396D01*
X60940694Y-40091396D02*
X60969266Y-40062824D01*
X60969266Y-40062824D02*
X60969266Y-39862824D01*
X60969266Y-39862824D02*
X60854980Y-39862824D01*
X61226409Y-40119967D02*
X61226409Y-39519967D01*
X61226409Y-39519967D02*
X61569266Y-40119967D01*
X61569266Y-40119967D02*
X61569266Y-39519967D01*
X61854980Y-40119967D02*
X61854980Y-39519967D01*
X61854980Y-39519967D02*
X61997837Y-39519967D01*
X61997837Y-39519967D02*
X62083551Y-39548538D01*
X62083551Y-39548538D02*
X62140694Y-39605681D01*
X62140694Y-39605681D02*
X62169265Y-39662824D01*
X62169265Y-39662824D02*
X62197837Y-39777110D01*
X62197837Y-39777110D02*
X62197837Y-39862824D01*
X62197837Y-39862824D02*
X62169265Y-39977110D01*
X62169265Y-39977110D02*
X62140694Y-40034253D01*
X62140694Y-40034253D02*
X62083551Y-40091396D01*
X62083551Y-40091396D02*
X61997837Y-40119967D01*
X61997837Y-40119967D02*
X61854980Y-40119967D01*
D13*
X71922054Y-51319600D02*
X72064911Y-51367219D01*
X72064911Y-51367219D02*
X72303006Y-51367219D01*
X72303006Y-51367219D02*
X72398244Y-51319600D01*
X72398244Y-51319600D02*
X72445863Y-51271980D01*
X72445863Y-51271980D02*
X72493482Y-51176742D01*
X72493482Y-51176742D02*
X72493482Y-51081504D01*
X72493482Y-51081504D02*
X72445863Y-50986266D01*
X72445863Y-50986266D02*
X72398244Y-50938647D01*
X72398244Y-50938647D02*
X72303006Y-50891028D01*
X72303006Y-50891028D02*
X72112530Y-50843409D01*
X72112530Y-50843409D02*
X72017292Y-50795790D01*
X72017292Y-50795790D02*
X71969673Y-50748171D01*
X71969673Y-50748171D02*
X71922054Y-50652933D01*
X71922054Y-50652933D02*
X71922054Y-50557695D01*
X71922054Y-50557695D02*
X71969673Y-50462457D01*
X71969673Y-50462457D02*
X72017292Y-50414838D01*
X72017292Y-50414838D02*
X72112530Y-50367219D01*
X72112530Y-50367219D02*
X72350625Y-50367219D01*
X72350625Y-50367219D02*
X72493482Y-50414838D01*
X72922054Y-50843409D02*
X73255387Y-50843409D01*
X73398244Y-51367219D02*
X72922054Y-51367219D01*
X72922054Y-51367219D02*
X72922054Y-50367219D01*
X72922054Y-50367219D02*
X73398244Y-50367219D01*
X73826816Y-51367219D02*
X73826816Y-50367219D01*
X73826816Y-50367219D02*
X74398244Y-51367219D01*
X74398244Y-51367219D02*
X74398244Y-50367219D01*
X74826816Y-51319600D02*
X74969673Y-51367219D01*
X74969673Y-51367219D02*
X75207768Y-51367219D01*
X75207768Y-51367219D02*
X75303006Y-51319600D01*
X75303006Y-51319600D02*
X75350625Y-51271980D01*
X75350625Y-51271980D02*
X75398244Y-51176742D01*
X75398244Y-51176742D02*
X75398244Y-51081504D01*
X75398244Y-51081504D02*
X75350625Y-50986266D01*
X75350625Y-50986266D02*
X75303006Y-50938647D01*
X75303006Y-50938647D02*
X75207768Y-50891028D01*
X75207768Y-50891028D02*
X75017292Y-50843409D01*
X75017292Y-50843409D02*
X74922054Y-50795790D01*
X74922054Y-50795790D02*
X74874435Y-50748171D01*
X74874435Y-50748171D02*
X74826816Y-50652933D01*
X74826816Y-50652933D02*
X74826816Y-50557695D01*
X74826816Y-50557695D02*
X74874435Y-50462457D01*
X74874435Y-50462457D02*
X74922054Y-50414838D01*
X74922054Y-50414838D02*
X75017292Y-50367219D01*
X75017292Y-50367219D02*
X75255387Y-50367219D01*
X75255387Y-50367219D02*
X75398244Y-50414838D01*
X76017292Y-50367219D02*
X76207768Y-50367219D01*
X76207768Y-50367219D02*
X76303006Y-50414838D01*
X76303006Y-50414838D02*
X76398244Y-50510076D01*
X76398244Y-50510076D02*
X76445863Y-50700552D01*
X76445863Y-50700552D02*
X76445863Y-51033885D01*
X76445863Y-51033885D02*
X76398244Y-51224361D01*
X76398244Y-51224361D02*
X76303006Y-51319600D01*
X76303006Y-51319600D02*
X76207768Y-51367219D01*
X76207768Y-51367219D02*
X76017292Y-51367219D01*
X76017292Y-51367219D02*
X75922054Y-51319600D01*
X75922054Y-51319600D02*
X75826816Y-51224361D01*
X75826816Y-51224361D02*
X75779197Y-51033885D01*
X75779197Y-51033885D02*
X75779197Y-50700552D01*
X75779197Y-50700552D02*
X75826816Y-50510076D01*
X75826816Y-50510076D02*
X75922054Y-50414838D01*
X75922054Y-50414838D02*
X76017292Y-50367219D01*
X77445863Y-51367219D02*
X77112530Y-50891028D01*
X76874435Y-51367219D02*
X76874435Y-50367219D01*
X76874435Y-50367219D02*
X77255387Y-50367219D01*
X77255387Y-50367219D02*
X77350625Y-50414838D01*
X77350625Y-50414838D02*
X77398244Y-50462457D01*
X77398244Y-50462457D02*
X77445863Y-50557695D01*
X77445863Y-50557695D02*
X77445863Y-50700552D01*
X77445863Y-50700552D02*
X77398244Y-50795790D01*
X77398244Y-50795790D02*
X77350625Y-50843409D01*
X77350625Y-50843409D02*
X77255387Y-50891028D01*
X77255387Y-50891028D02*
X76874435Y-50891028D01*
X79064911Y-50700552D02*
X79064911Y-51367219D01*
X78826816Y-50319600D02*
X78588721Y-51033885D01*
X78588721Y-51033885D02*
X79207768Y-51033885D01*
X71922054Y-90319600D02*
X72064911Y-90367219D01*
X72064911Y-90367219D02*
X72303006Y-90367219D01*
X72303006Y-90367219D02*
X72398244Y-90319600D01*
X72398244Y-90319600D02*
X72445863Y-90271980D01*
X72445863Y-90271980D02*
X72493482Y-90176742D01*
X72493482Y-90176742D02*
X72493482Y-90081504D01*
X72493482Y-90081504D02*
X72445863Y-89986266D01*
X72445863Y-89986266D02*
X72398244Y-89938647D01*
X72398244Y-89938647D02*
X72303006Y-89891028D01*
X72303006Y-89891028D02*
X72112530Y-89843409D01*
X72112530Y-89843409D02*
X72017292Y-89795790D01*
X72017292Y-89795790D02*
X71969673Y-89748171D01*
X71969673Y-89748171D02*
X71922054Y-89652933D01*
X71922054Y-89652933D02*
X71922054Y-89557695D01*
X71922054Y-89557695D02*
X71969673Y-89462457D01*
X71969673Y-89462457D02*
X72017292Y-89414838D01*
X72017292Y-89414838D02*
X72112530Y-89367219D01*
X72112530Y-89367219D02*
X72350625Y-89367219D01*
X72350625Y-89367219D02*
X72493482Y-89414838D01*
X72922054Y-89843409D02*
X73255387Y-89843409D01*
X73398244Y-90367219D02*
X72922054Y-90367219D01*
X72922054Y-90367219D02*
X72922054Y-89367219D01*
X72922054Y-89367219D02*
X73398244Y-89367219D01*
X73826816Y-90367219D02*
X73826816Y-89367219D01*
X73826816Y-89367219D02*
X74398244Y-90367219D01*
X74398244Y-90367219D02*
X74398244Y-89367219D01*
X74826816Y-90319600D02*
X74969673Y-90367219D01*
X74969673Y-90367219D02*
X75207768Y-90367219D01*
X75207768Y-90367219D02*
X75303006Y-90319600D01*
X75303006Y-90319600D02*
X75350625Y-90271980D01*
X75350625Y-90271980D02*
X75398244Y-90176742D01*
X75398244Y-90176742D02*
X75398244Y-90081504D01*
X75398244Y-90081504D02*
X75350625Y-89986266D01*
X75350625Y-89986266D02*
X75303006Y-89938647D01*
X75303006Y-89938647D02*
X75207768Y-89891028D01*
X75207768Y-89891028D02*
X75017292Y-89843409D01*
X75017292Y-89843409D02*
X74922054Y-89795790D01*
X74922054Y-89795790D02*
X74874435Y-89748171D01*
X74874435Y-89748171D02*
X74826816Y-89652933D01*
X74826816Y-89652933D02*
X74826816Y-89557695D01*
X74826816Y-89557695D02*
X74874435Y-89462457D01*
X74874435Y-89462457D02*
X74922054Y-89414838D01*
X74922054Y-89414838D02*
X75017292Y-89367219D01*
X75017292Y-89367219D02*
X75255387Y-89367219D01*
X75255387Y-89367219D02*
X75398244Y-89414838D01*
X76017292Y-89367219D02*
X76207768Y-89367219D01*
X76207768Y-89367219D02*
X76303006Y-89414838D01*
X76303006Y-89414838D02*
X76398244Y-89510076D01*
X76398244Y-89510076D02*
X76445863Y-89700552D01*
X76445863Y-89700552D02*
X76445863Y-90033885D01*
X76445863Y-90033885D02*
X76398244Y-90224361D01*
X76398244Y-90224361D02*
X76303006Y-90319600D01*
X76303006Y-90319600D02*
X76207768Y-90367219D01*
X76207768Y-90367219D02*
X76017292Y-90367219D01*
X76017292Y-90367219D02*
X75922054Y-90319600D01*
X75922054Y-90319600D02*
X75826816Y-90224361D01*
X75826816Y-90224361D02*
X75779197Y-90033885D01*
X75779197Y-90033885D02*
X75779197Y-89700552D01*
X75779197Y-89700552D02*
X75826816Y-89510076D01*
X75826816Y-89510076D02*
X75922054Y-89414838D01*
X75922054Y-89414838D02*
X76017292Y-89367219D01*
X77445863Y-90367219D02*
X77112530Y-89891028D01*
X76874435Y-90367219D02*
X76874435Y-89367219D01*
X76874435Y-89367219D02*
X77255387Y-89367219D01*
X77255387Y-89367219D02*
X77350625Y-89414838D01*
X77350625Y-89414838D02*
X77398244Y-89462457D01*
X77398244Y-89462457D02*
X77445863Y-89557695D01*
X77445863Y-89557695D02*
X77445863Y-89700552D01*
X77445863Y-89700552D02*
X77398244Y-89795790D01*
X77398244Y-89795790D02*
X77350625Y-89843409D01*
X77350625Y-89843409D02*
X77255387Y-89891028D01*
X77255387Y-89891028D02*
X76874435Y-89891028D01*
X78541102Y-89367219D02*
X79207768Y-89367219D01*
X79207768Y-89367219D02*
X78779197Y-90367219D01*
D10*
X48097837Y-40091396D02*
X48183552Y-40119967D01*
X48183552Y-40119967D02*
X48326409Y-40119967D01*
X48326409Y-40119967D02*
X48383552Y-40091396D01*
X48383552Y-40091396D02*
X48412123Y-40062824D01*
X48412123Y-40062824D02*
X48440694Y-40005681D01*
X48440694Y-40005681D02*
X48440694Y-39948538D01*
X48440694Y-39948538D02*
X48412123Y-39891396D01*
X48412123Y-39891396D02*
X48383552Y-39862824D01*
X48383552Y-39862824D02*
X48326409Y-39834253D01*
X48326409Y-39834253D02*
X48212123Y-39805681D01*
X48212123Y-39805681D02*
X48154980Y-39777110D01*
X48154980Y-39777110D02*
X48126409Y-39748538D01*
X48126409Y-39748538D02*
X48097837Y-39691396D01*
X48097837Y-39691396D02*
X48097837Y-39634253D01*
X48097837Y-39634253D02*
X48126409Y-39577110D01*
X48126409Y-39577110D02*
X48154980Y-39548538D01*
X48154980Y-39548538D02*
X48212123Y-39519967D01*
X48212123Y-39519967D02*
X48354980Y-39519967D01*
X48354980Y-39519967D02*
X48440694Y-39548538D01*
X48697838Y-39805681D02*
X48897838Y-39805681D01*
X48983552Y-40119967D02*
X48697838Y-40119967D01*
X48697838Y-40119967D02*
X48697838Y-39519967D01*
X48697838Y-39519967D02*
X48983552Y-39519967D01*
X49526409Y-40119967D02*
X49240695Y-40119967D01*
X49240695Y-40119967D02*
X49240695Y-39519967D01*
X49840694Y-39519967D02*
X49897837Y-39519967D01*
X49897837Y-39519967D02*
X49954980Y-39548538D01*
X49954980Y-39548538D02*
X49983552Y-39577110D01*
X49983552Y-39577110D02*
X50012123Y-39634253D01*
X50012123Y-39634253D02*
X50040694Y-39748538D01*
X50040694Y-39748538D02*
X50040694Y-39891396D01*
X50040694Y-39891396D02*
X50012123Y-40005681D01*
X50012123Y-40005681D02*
X49983552Y-40062824D01*
X49983552Y-40062824D02*
X49954980Y-40091396D01*
X49954980Y-40091396D02*
X49897837Y-40119967D01*
X49897837Y-40119967D02*
X49840694Y-40119967D01*
X49840694Y-40119967D02*
X49783552Y-40091396D01*
X49783552Y-40091396D02*
X49754980Y-40062824D01*
X49754980Y-40062824D02*
X49726409Y-40005681D01*
X49726409Y-40005681D02*
X49697837Y-39891396D01*
X49697837Y-39891396D02*
X49697837Y-39748538D01*
X49697837Y-39748538D02*
X49726409Y-39634253D01*
X49726409Y-39634253D02*
X49754980Y-39577110D01*
X49754980Y-39577110D02*
X49783552Y-39548538D01*
X49783552Y-39548538D02*
X49840694Y-39519967D01*
X72869266Y-40062824D02*
X72840694Y-40091396D01*
X72840694Y-40091396D02*
X72754980Y-40119967D01*
X72754980Y-40119967D02*
X72697837Y-40119967D01*
X72697837Y-40119967D02*
X72612123Y-40091396D01*
X72612123Y-40091396D02*
X72554980Y-40034253D01*
X72554980Y-40034253D02*
X72526409Y-39977110D01*
X72526409Y-39977110D02*
X72497837Y-39862824D01*
X72497837Y-39862824D02*
X72497837Y-39777110D01*
X72497837Y-39777110D02*
X72526409Y-39662824D01*
X72526409Y-39662824D02*
X72554980Y-39605681D01*
X72554980Y-39605681D02*
X72612123Y-39548538D01*
X72612123Y-39548538D02*
X72697837Y-39519967D01*
X72697837Y-39519967D02*
X72754980Y-39519967D01*
X72754980Y-39519967D02*
X72840694Y-39548538D01*
X72840694Y-39548538D02*
X72869266Y-39577110D01*
X73240694Y-39519967D02*
X73354980Y-39519967D01*
X73354980Y-39519967D02*
X73412123Y-39548538D01*
X73412123Y-39548538D02*
X73469266Y-39605681D01*
X73469266Y-39605681D02*
X73497837Y-39719967D01*
X73497837Y-39719967D02*
X73497837Y-39919967D01*
X73497837Y-39919967D02*
X73469266Y-40034253D01*
X73469266Y-40034253D02*
X73412123Y-40091396D01*
X73412123Y-40091396D02*
X73354980Y-40119967D01*
X73354980Y-40119967D02*
X73240694Y-40119967D01*
X73240694Y-40119967D02*
X73183552Y-40091396D01*
X73183552Y-40091396D02*
X73126409Y-40034253D01*
X73126409Y-40034253D02*
X73097837Y-39919967D01*
X73097837Y-39919967D02*
X73097837Y-39719967D01*
X73097837Y-39719967D02*
X73126409Y-39605681D01*
X73126409Y-39605681D02*
X73183552Y-39548538D01*
X73183552Y-39548538D02*
X73240694Y-39519967D01*
X73754980Y-40119967D02*
X73754980Y-39519967D01*
X73754980Y-39519967D02*
X73954980Y-39948538D01*
X73954980Y-39948538D02*
X74154980Y-39519967D01*
X74154980Y-39519967D02*
X74154980Y-40119967D01*
X74440694Y-40119967D02*
X74440694Y-39519967D01*
X74440694Y-39519967D02*
X74640694Y-39948538D01*
X74640694Y-39948538D02*
X74840694Y-39519967D01*
X74840694Y-39519967D02*
X74840694Y-40119967D01*
X44140694Y-91648538D02*
X44083552Y-91619967D01*
X44083552Y-91619967D02*
X43997837Y-91619967D01*
X43997837Y-91619967D02*
X43912123Y-91648538D01*
X43912123Y-91648538D02*
X43854980Y-91705681D01*
X43854980Y-91705681D02*
X43826409Y-91762824D01*
X43826409Y-91762824D02*
X43797837Y-91877110D01*
X43797837Y-91877110D02*
X43797837Y-91962824D01*
X43797837Y-91962824D02*
X43826409Y-92077110D01*
X43826409Y-92077110D02*
X43854980Y-92134253D01*
X43854980Y-92134253D02*
X43912123Y-92191396D01*
X43912123Y-92191396D02*
X43997837Y-92219967D01*
X43997837Y-92219967D02*
X44054980Y-92219967D01*
X44054980Y-92219967D02*
X44140694Y-92191396D01*
X44140694Y-92191396D02*
X44169266Y-92162824D01*
X44169266Y-92162824D02*
X44169266Y-91962824D01*
X44169266Y-91962824D02*
X44054980Y-91962824D01*
X44426409Y-92219967D02*
X44426409Y-91619967D01*
X44426409Y-91619967D02*
X44769266Y-92219967D01*
X44769266Y-92219967D02*
X44769266Y-91619967D01*
X45054980Y-92219967D02*
X45054980Y-91619967D01*
X45054980Y-91619967D02*
X45197837Y-91619967D01*
X45197837Y-91619967D02*
X45283551Y-91648538D01*
X45283551Y-91648538D02*
X45340694Y-91705681D01*
X45340694Y-91705681D02*
X45369265Y-91762824D01*
X45369265Y-91762824D02*
X45397837Y-91877110D01*
X45397837Y-91877110D02*
X45397837Y-91962824D01*
X45397837Y-91962824D02*
X45369265Y-92077110D01*
X45369265Y-92077110D02*
X45340694Y-92134253D01*
X45340694Y-92134253D02*
X45283551Y-92191396D01*
X45283551Y-92191396D02*
X45197837Y-92219967D01*
X45197837Y-92219967D02*
X45054980Y-92219967D01*
X41526409Y-49419967D02*
X41526409Y-48819967D01*
X41812123Y-49419967D02*
X41812123Y-48819967D01*
X41812123Y-48819967D02*
X42154980Y-49419967D01*
X42154980Y-49419967D02*
X42154980Y-48819967D01*
X42554979Y-48819967D02*
X42612122Y-48819967D01*
X42612122Y-48819967D02*
X42669265Y-48848538D01*
X42669265Y-48848538D02*
X42697837Y-48877110D01*
X42697837Y-48877110D02*
X42726408Y-48934253D01*
X42726408Y-48934253D02*
X42754979Y-49048538D01*
X42754979Y-49048538D02*
X42754979Y-49191396D01*
X42754979Y-49191396D02*
X42726408Y-49305681D01*
X42726408Y-49305681D02*
X42697837Y-49362824D01*
X42697837Y-49362824D02*
X42669265Y-49391396D01*
X42669265Y-49391396D02*
X42612122Y-49419967D01*
X42612122Y-49419967D02*
X42554979Y-49419967D01*
X42554979Y-49419967D02*
X42497837Y-49391396D01*
X42497837Y-49391396D02*
X42469265Y-49362824D01*
X42469265Y-49362824D02*
X42440694Y-49305681D01*
X42440694Y-49305681D02*
X42412122Y-49191396D01*
X42412122Y-49191396D02*
X42412122Y-49048538D01*
X42412122Y-49048538D02*
X42440694Y-48934253D01*
X42440694Y-48934253D02*
X42469265Y-48877110D01*
X42469265Y-48877110D02*
X42497837Y-48848538D01*
X42497837Y-48848538D02*
X42554979Y-48819967D01*
X44140694Y-78648538D02*
X44083552Y-78619967D01*
X44083552Y-78619967D02*
X43997837Y-78619967D01*
X43997837Y-78619967D02*
X43912123Y-78648538D01*
X43912123Y-78648538D02*
X43854980Y-78705681D01*
X43854980Y-78705681D02*
X43826409Y-78762824D01*
X43826409Y-78762824D02*
X43797837Y-78877110D01*
X43797837Y-78877110D02*
X43797837Y-78962824D01*
X43797837Y-78962824D02*
X43826409Y-79077110D01*
X43826409Y-79077110D02*
X43854980Y-79134253D01*
X43854980Y-79134253D02*
X43912123Y-79191396D01*
X43912123Y-79191396D02*
X43997837Y-79219967D01*
X43997837Y-79219967D02*
X44054980Y-79219967D01*
X44054980Y-79219967D02*
X44140694Y-79191396D01*
X44140694Y-79191396D02*
X44169266Y-79162824D01*
X44169266Y-79162824D02*
X44169266Y-78962824D01*
X44169266Y-78962824D02*
X44054980Y-78962824D01*
X44426409Y-79219967D02*
X44426409Y-78619967D01*
X44426409Y-78619967D02*
X44769266Y-79219967D01*
X44769266Y-79219967D02*
X44769266Y-78619967D01*
X45054980Y-79219967D02*
X45054980Y-78619967D01*
X45054980Y-78619967D02*
X45197837Y-78619967D01*
X45197837Y-78619967D02*
X45283551Y-78648538D01*
X45283551Y-78648538D02*
X45340694Y-78705681D01*
X45340694Y-78705681D02*
X45369265Y-78762824D01*
X45369265Y-78762824D02*
X45397837Y-78877110D01*
X45397837Y-78877110D02*
X45397837Y-78962824D01*
X45397837Y-78962824D02*
X45369265Y-79077110D01*
X45369265Y-79077110D02*
X45340694Y-79134253D01*
X45340694Y-79134253D02*
X45283551Y-79191396D01*
X45283551Y-79191396D02*
X45197837Y-79219967D01*
X45197837Y-79219967D02*
X45054980Y-79219967D01*
X77626409Y-62419967D02*
X77626409Y-61819967D01*
X77912123Y-62419967D02*
X77912123Y-61819967D01*
X77912123Y-61819967D02*
X78254980Y-62419967D01*
X78254980Y-62419967D02*
X78254980Y-61819967D01*
X78826408Y-61819967D02*
X78540694Y-61819967D01*
X78540694Y-61819967D02*
X78512122Y-62105681D01*
X78512122Y-62105681D02*
X78540694Y-62077110D01*
X78540694Y-62077110D02*
X78597837Y-62048538D01*
X78597837Y-62048538D02*
X78740694Y-62048538D01*
X78740694Y-62048538D02*
X78797837Y-62077110D01*
X78797837Y-62077110D02*
X78826408Y-62105681D01*
X78826408Y-62105681D02*
X78854979Y-62162824D01*
X78854979Y-62162824D02*
X78854979Y-62305681D01*
X78854979Y-62305681D02*
X78826408Y-62362824D01*
X78826408Y-62362824D02*
X78797837Y-62391396D01*
X78797837Y-62391396D02*
X78740694Y-62419967D01*
X78740694Y-62419967D02*
X78597837Y-62419967D01*
X78597837Y-62419967D02*
X78540694Y-62391396D01*
X78540694Y-62391396D02*
X78512122Y-62362824D01*
X44026409Y-62419967D02*
X44026409Y-61819967D01*
X44312123Y-62419967D02*
X44312123Y-61819967D01*
X44312123Y-61819967D02*
X44654980Y-62419967D01*
X44654980Y-62419967D02*
X44654980Y-61819967D01*
X45254979Y-62419967D02*
X44912122Y-62419967D01*
X45083551Y-62419967D02*
X45083551Y-61819967D01*
X45083551Y-61819967D02*
X45026408Y-61905681D01*
X45026408Y-61905681D02*
X44969265Y-61962824D01*
X44969265Y-61962824D02*
X44912122Y-61991396D01*
X75140694Y-78648538D02*
X75083552Y-78619967D01*
X75083552Y-78619967D02*
X74997837Y-78619967D01*
X74997837Y-78619967D02*
X74912123Y-78648538D01*
X74912123Y-78648538D02*
X74854980Y-78705681D01*
X74854980Y-78705681D02*
X74826409Y-78762824D01*
X74826409Y-78762824D02*
X74797837Y-78877110D01*
X74797837Y-78877110D02*
X74797837Y-78962824D01*
X74797837Y-78962824D02*
X74826409Y-79077110D01*
X74826409Y-79077110D02*
X74854980Y-79134253D01*
X74854980Y-79134253D02*
X74912123Y-79191396D01*
X74912123Y-79191396D02*
X74997837Y-79219967D01*
X74997837Y-79219967D02*
X75054980Y-79219967D01*
X75054980Y-79219967D02*
X75140694Y-79191396D01*
X75140694Y-79191396D02*
X75169266Y-79162824D01*
X75169266Y-79162824D02*
X75169266Y-78962824D01*
X75169266Y-78962824D02*
X75054980Y-78962824D01*
X75426409Y-79219967D02*
X75426409Y-78619967D01*
X75426409Y-78619967D02*
X75769266Y-79219967D01*
X75769266Y-79219967D02*
X75769266Y-78619967D01*
X76054980Y-79219967D02*
X76054980Y-78619967D01*
X76054980Y-78619967D02*
X76197837Y-78619967D01*
X76197837Y-78619967D02*
X76283551Y-78648538D01*
X76283551Y-78648538D02*
X76340694Y-78705681D01*
X76340694Y-78705681D02*
X76369265Y-78762824D01*
X76369265Y-78762824D02*
X76397837Y-78877110D01*
X76397837Y-78877110D02*
X76397837Y-78962824D01*
X76397837Y-78962824D02*
X76369265Y-79077110D01*
X76369265Y-79077110D02*
X76340694Y-79134253D01*
X76340694Y-79134253D02*
X76283551Y-79191396D01*
X76283551Y-79191396D02*
X76197837Y-79219967D01*
X76197837Y-79219967D02*
X76054980Y-79219967D01*
X50597837Y-40091396D02*
X50683552Y-40119967D01*
X50683552Y-40119967D02*
X50826409Y-40119967D01*
X50826409Y-40119967D02*
X50883552Y-40091396D01*
X50883552Y-40091396D02*
X50912123Y-40062824D01*
X50912123Y-40062824D02*
X50940694Y-40005681D01*
X50940694Y-40005681D02*
X50940694Y-39948538D01*
X50940694Y-39948538D02*
X50912123Y-39891396D01*
X50912123Y-39891396D02*
X50883552Y-39862824D01*
X50883552Y-39862824D02*
X50826409Y-39834253D01*
X50826409Y-39834253D02*
X50712123Y-39805681D01*
X50712123Y-39805681D02*
X50654980Y-39777110D01*
X50654980Y-39777110D02*
X50626409Y-39748538D01*
X50626409Y-39748538D02*
X50597837Y-39691396D01*
X50597837Y-39691396D02*
X50597837Y-39634253D01*
X50597837Y-39634253D02*
X50626409Y-39577110D01*
X50626409Y-39577110D02*
X50654980Y-39548538D01*
X50654980Y-39548538D02*
X50712123Y-39519967D01*
X50712123Y-39519967D02*
X50854980Y-39519967D01*
X50854980Y-39519967D02*
X50940694Y-39548538D01*
X51197838Y-39805681D02*
X51397838Y-39805681D01*
X51483552Y-40119967D02*
X51197838Y-40119967D01*
X51197838Y-40119967D02*
X51197838Y-39519967D01*
X51197838Y-39519967D02*
X51483552Y-39519967D01*
X52026409Y-40119967D02*
X51740695Y-40119967D01*
X51740695Y-40119967D02*
X51740695Y-39519967D01*
X52540694Y-40119967D02*
X52197837Y-40119967D01*
X52369266Y-40119967D02*
X52369266Y-39519967D01*
X52369266Y-39519967D02*
X52312123Y-39605681D01*
X52312123Y-39605681D02*
X52254980Y-39662824D01*
X52254980Y-39662824D02*
X52197837Y-39691396D01*
X75026409Y-88419967D02*
X75026409Y-87819967D01*
X75312123Y-88419967D02*
X75312123Y-87819967D01*
X75312123Y-87819967D02*
X75654980Y-88419967D01*
X75654980Y-88419967D02*
X75654980Y-87819967D01*
X75883551Y-87819967D02*
X76283551Y-87819967D01*
X76283551Y-87819967D02*
X76026408Y-88419967D01*
D13*
X40822054Y-64319600D02*
X40964911Y-64367219D01*
X40964911Y-64367219D02*
X41203006Y-64367219D01*
X41203006Y-64367219D02*
X41298244Y-64319600D01*
X41298244Y-64319600D02*
X41345863Y-64271980D01*
X41345863Y-64271980D02*
X41393482Y-64176742D01*
X41393482Y-64176742D02*
X41393482Y-64081504D01*
X41393482Y-64081504D02*
X41345863Y-63986266D01*
X41345863Y-63986266D02*
X41298244Y-63938647D01*
X41298244Y-63938647D02*
X41203006Y-63891028D01*
X41203006Y-63891028D02*
X41012530Y-63843409D01*
X41012530Y-63843409D02*
X40917292Y-63795790D01*
X40917292Y-63795790D02*
X40869673Y-63748171D01*
X40869673Y-63748171D02*
X40822054Y-63652933D01*
X40822054Y-63652933D02*
X40822054Y-63557695D01*
X40822054Y-63557695D02*
X40869673Y-63462457D01*
X40869673Y-63462457D02*
X40917292Y-63414838D01*
X40917292Y-63414838D02*
X41012530Y-63367219D01*
X41012530Y-63367219D02*
X41250625Y-63367219D01*
X41250625Y-63367219D02*
X41393482Y-63414838D01*
X41822054Y-63843409D02*
X42155387Y-63843409D01*
X42298244Y-64367219D02*
X41822054Y-64367219D01*
X41822054Y-64367219D02*
X41822054Y-63367219D01*
X41822054Y-63367219D02*
X42298244Y-63367219D01*
X42726816Y-64367219D02*
X42726816Y-63367219D01*
X42726816Y-63367219D02*
X43298244Y-64367219D01*
X43298244Y-64367219D02*
X43298244Y-63367219D01*
X43726816Y-64319600D02*
X43869673Y-64367219D01*
X43869673Y-64367219D02*
X44107768Y-64367219D01*
X44107768Y-64367219D02*
X44203006Y-64319600D01*
X44203006Y-64319600D02*
X44250625Y-64271980D01*
X44250625Y-64271980D02*
X44298244Y-64176742D01*
X44298244Y-64176742D02*
X44298244Y-64081504D01*
X44298244Y-64081504D02*
X44250625Y-63986266D01*
X44250625Y-63986266D02*
X44203006Y-63938647D01*
X44203006Y-63938647D02*
X44107768Y-63891028D01*
X44107768Y-63891028D02*
X43917292Y-63843409D01*
X43917292Y-63843409D02*
X43822054Y-63795790D01*
X43822054Y-63795790D02*
X43774435Y-63748171D01*
X43774435Y-63748171D02*
X43726816Y-63652933D01*
X43726816Y-63652933D02*
X43726816Y-63557695D01*
X43726816Y-63557695D02*
X43774435Y-63462457D01*
X43774435Y-63462457D02*
X43822054Y-63414838D01*
X43822054Y-63414838D02*
X43917292Y-63367219D01*
X43917292Y-63367219D02*
X44155387Y-63367219D01*
X44155387Y-63367219D02*
X44298244Y-63414838D01*
X44917292Y-63367219D02*
X45107768Y-63367219D01*
X45107768Y-63367219D02*
X45203006Y-63414838D01*
X45203006Y-63414838D02*
X45298244Y-63510076D01*
X45298244Y-63510076D02*
X45345863Y-63700552D01*
X45345863Y-63700552D02*
X45345863Y-64033885D01*
X45345863Y-64033885D02*
X45298244Y-64224361D01*
X45298244Y-64224361D02*
X45203006Y-64319600D01*
X45203006Y-64319600D02*
X45107768Y-64367219D01*
X45107768Y-64367219D02*
X44917292Y-64367219D01*
X44917292Y-64367219D02*
X44822054Y-64319600D01*
X44822054Y-64319600D02*
X44726816Y-64224361D01*
X44726816Y-64224361D02*
X44679197Y-64033885D01*
X44679197Y-64033885D02*
X44679197Y-63700552D01*
X44679197Y-63700552D02*
X44726816Y-63510076D01*
X44726816Y-63510076D02*
X44822054Y-63414838D01*
X44822054Y-63414838D02*
X44917292Y-63367219D01*
X46345863Y-64367219D02*
X46012530Y-63891028D01*
X45774435Y-64367219D02*
X45774435Y-63367219D01*
X45774435Y-63367219D02*
X46155387Y-63367219D01*
X46155387Y-63367219D02*
X46250625Y-63414838D01*
X46250625Y-63414838D02*
X46298244Y-63462457D01*
X46298244Y-63462457D02*
X46345863Y-63557695D01*
X46345863Y-63557695D02*
X46345863Y-63700552D01*
X46345863Y-63700552D02*
X46298244Y-63795790D01*
X46298244Y-63795790D02*
X46250625Y-63843409D01*
X46250625Y-63843409D02*
X46155387Y-63891028D01*
X46155387Y-63891028D02*
X45774435Y-63891028D01*
X48060149Y-64367219D02*
X47488721Y-64367219D01*
X47774435Y-64367219D02*
X47774435Y-63367219D01*
X47774435Y-63367219D02*
X47679197Y-63510076D01*
X47679197Y-63510076D02*
X47583959Y-63605314D01*
X47583959Y-63605314D02*
X47488721Y-63652933D01*
D10*
X69969266Y-40062824D02*
X69940694Y-40091396D01*
X69940694Y-40091396D02*
X69854980Y-40119967D01*
X69854980Y-40119967D02*
X69797837Y-40119967D01*
X69797837Y-40119967D02*
X69712123Y-40091396D01*
X69712123Y-40091396D02*
X69654980Y-40034253D01*
X69654980Y-40034253D02*
X69626409Y-39977110D01*
X69626409Y-39977110D02*
X69597837Y-39862824D01*
X69597837Y-39862824D02*
X69597837Y-39777110D01*
X69597837Y-39777110D02*
X69626409Y-39662824D01*
X69626409Y-39662824D02*
X69654980Y-39605681D01*
X69654980Y-39605681D02*
X69712123Y-39548538D01*
X69712123Y-39548538D02*
X69797837Y-39519967D01*
X69797837Y-39519967D02*
X69854980Y-39519967D01*
X69854980Y-39519967D02*
X69940694Y-39548538D01*
X69940694Y-39548538D02*
X69969266Y-39577110D01*
X70340694Y-39519967D02*
X70454980Y-39519967D01*
X70454980Y-39519967D02*
X70512123Y-39548538D01*
X70512123Y-39548538D02*
X70569266Y-39605681D01*
X70569266Y-39605681D02*
X70597837Y-39719967D01*
X70597837Y-39719967D02*
X70597837Y-39919967D01*
X70597837Y-39919967D02*
X70569266Y-40034253D01*
X70569266Y-40034253D02*
X70512123Y-40091396D01*
X70512123Y-40091396D02*
X70454980Y-40119967D01*
X70454980Y-40119967D02*
X70340694Y-40119967D01*
X70340694Y-40119967D02*
X70283552Y-40091396D01*
X70283552Y-40091396D02*
X70226409Y-40034253D01*
X70226409Y-40034253D02*
X70197837Y-39919967D01*
X70197837Y-39919967D02*
X70197837Y-39719967D01*
X70197837Y-39719967D02*
X70226409Y-39605681D01*
X70226409Y-39605681D02*
X70283552Y-39548538D01*
X70283552Y-39548538D02*
X70340694Y-39519967D01*
X70854980Y-40119967D02*
X70854980Y-39519967D01*
X70854980Y-39519967D02*
X71054980Y-39948538D01*
X71054980Y-39948538D02*
X71254980Y-39519967D01*
X71254980Y-39519967D02*
X71254980Y-40119967D01*
X71540694Y-40119967D02*
X71540694Y-39519967D01*
X71540694Y-39519967D02*
X71740694Y-39948538D01*
X71740694Y-39948538D02*
X71940694Y-39519967D01*
X71940694Y-39519967D02*
X71940694Y-40119967D01*
X75140694Y-65648538D02*
X75083552Y-65619967D01*
X75083552Y-65619967D02*
X74997837Y-65619967D01*
X74997837Y-65619967D02*
X74912123Y-65648538D01*
X74912123Y-65648538D02*
X74854980Y-65705681D01*
X74854980Y-65705681D02*
X74826409Y-65762824D01*
X74826409Y-65762824D02*
X74797837Y-65877110D01*
X74797837Y-65877110D02*
X74797837Y-65962824D01*
X74797837Y-65962824D02*
X74826409Y-66077110D01*
X74826409Y-66077110D02*
X74854980Y-66134253D01*
X74854980Y-66134253D02*
X74912123Y-66191396D01*
X74912123Y-66191396D02*
X74997837Y-66219967D01*
X74997837Y-66219967D02*
X75054980Y-66219967D01*
X75054980Y-66219967D02*
X75140694Y-66191396D01*
X75140694Y-66191396D02*
X75169266Y-66162824D01*
X75169266Y-66162824D02*
X75169266Y-65962824D01*
X75169266Y-65962824D02*
X75054980Y-65962824D01*
X75426409Y-66219967D02*
X75426409Y-65619967D01*
X75426409Y-65619967D02*
X75769266Y-66219967D01*
X75769266Y-66219967D02*
X75769266Y-65619967D01*
X76054980Y-66219967D02*
X76054980Y-65619967D01*
X76054980Y-65619967D02*
X76197837Y-65619967D01*
X76197837Y-65619967D02*
X76283551Y-65648538D01*
X76283551Y-65648538D02*
X76340694Y-65705681D01*
X76340694Y-65705681D02*
X76369265Y-65762824D01*
X76369265Y-65762824D02*
X76397837Y-65877110D01*
X76397837Y-65877110D02*
X76397837Y-65962824D01*
X76397837Y-65962824D02*
X76369265Y-66077110D01*
X76369265Y-66077110D02*
X76340694Y-66134253D01*
X76340694Y-66134253D02*
X76283551Y-66191396D01*
X76283551Y-66191396D02*
X76197837Y-66219967D01*
X76197837Y-66219967D02*
X76054980Y-66219967D01*
X72540694Y-52648538D02*
X72483552Y-52619967D01*
X72483552Y-52619967D02*
X72397837Y-52619967D01*
X72397837Y-52619967D02*
X72312123Y-52648538D01*
X72312123Y-52648538D02*
X72254980Y-52705681D01*
X72254980Y-52705681D02*
X72226409Y-52762824D01*
X72226409Y-52762824D02*
X72197837Y-52877110D01*
X72197837Y-52877110D02*
X72197837Y-52962824D01*
X72197837Y-52962824D02*
X72226409Y-53077110D01*
X72226409Y-53077110D02*
X72254980Y-53134253D01*
X72254980Y-53134253D02*
X72312123Y-53191396D01*
X72312123Y-53191396D02*
X72397837Y-53219967D01*
X72397837Y-53219967D02*
X72454980Y-53219967D01*
X72454980Y-53219967D02*
X72540694Y-53191396D01*
X72540694Y-53191396D02*
X72569266Y-53162824D01*
X72569266Y-53162824D02*
X72569266Y-52962824D01*
X72569266Y-52962824D02*
X72454980Y-52962824D01*
X72826409Y-53219967D02*
X72826409Y-52619967D01*
X72826409Y-52619967D02*
X73169266Y-53219967D01*
X73169266Y-53219967D02*
X73169266Y-52619967D01*
X73454980Y-53219967D02*
X73454980Y-52619967D01*
X73454980Y-52619967D02*
X73597837Y-52619967D01*
X73597837Y-52619967D02*
X73683551Y-52648538D01*
X73683551Y-52648538D02*
X73740694Y-52705681D01*
X73740694Y-52705681D02*
X73769265Y-52762824D01*
X73769265Y-52762824D02*
X73797837Y-52877110D01*
X73797837Y-52877110D02*
X73797837Y-52962824D01*
X73797837Y-52962824D02*
X73769265Y-53077110D01*
X73769265Y-53077110D02*
X73740694Y-53134253D01*
X73740694Y-53134253D02*
X73683551Y-53191396D01*
X73683551Y-53191396D02*
X73597837Y-53219967D01*
X73597837Y-53219967D02*
X73454980Y-53219967D01*
X72540694Y-65648538D02*
X72483552Y-65619967D01*
X72483552Y-65619967D02*
X72397837Y-65619967D01*
X72397837Y-65619967D02*
X72312123Y-65648538D01*
X72312123Y-65648538D02*
X72254980Y-65705681D01*
X72254980Y-65705681D02*
X72226409Y-65762824D01*
X72226409Y-65762824D02*
X72197837Y-65877110D01*
X72197837Y-65877110D02*
X72197837Y-65962824D01*
X72197837Y-65962824D02*
X72226409Y-66077110D01*
X72226409Y-66077110D02*
X72254980Y-66134253D01*
X72254980Y-66134253D02*
X72312123Y-66191396D01*
X72312123Y-66191396D02*
X72397837Y-66219967D01*
X72397837Y-66219967D02*
X72454980Y-66219967D01*
X72454980Y-66219967D02*
X72540694Y-66191396D01*
X72540694Y-66191396D02*
X72569266Y-66162824D01*
X72569266Y-66162824D02*
X72569266Y-65962824D01*
X72569266Y-65962824D02*
X72454980Y-65962824D01*
X72826409Y-66219967D02*
X72826409Y-65619967D01*
X72826409Y-65619967D02*
X73169266Y-66219967D01*
X73169266Y-66219967D02*
X73169266Y-65619967D01*
X73454980Y-66219967D02*
X73454980Y-65619967D01*
X73454980Y-65619967D02*
X73597837Y-65619967D01*
X73597837Y-65619967D02*
X73683551Y-65648538D01*
X73683551Y-65648538D02*
X73740694Y-65705681D01*
X73740694Y-65705681D02*
X73769265Y-65762824D01*
X73769265Y-65762824D02*
X73797837Y-65877110D01*
X73797837Y-65877110D02*
X73797837Y-65962824D01*
X73797837Y-65962824D02*
X73769265Y-66077110D01*
X73769265Y-66077110D02*
X73740694Y-66134253D01*
X73740694Y-66134253D02*
X73683551Y-66191396D01*
X73683551Y-66191396D02*
X73597837Y-66219967D01*
X73597837Y-66219967D02*
X73454980Y-66219967D01*
D13*
X71922054Y-77319600D02*
X72064911Y-77367219D01*
X72064911Y-77367219D02*
X72303006Y-77367219D01*
X72303006Y-77367219D02*
X72398244Y-77319600D01*
X72398244Y-77319600D02*
X72445863Y-77271980D01*
X72445863Y-77271980D02*
X72493482Y-77176742D01*
X72493482Y-77176742D02*
X72493482Y-77081504D01*
X72493482Y-77081504D02*
X72445863Y-76986266D01*
X72445863Y-76986266D02*
X72398244Y-76938647D01*
X72398244Y-76938647D02*
X72303006Y-76891028D01*
X72303006Y-76891028D02*
X72112530Y-76843409D01*
X72112530Y-76843409D02*
X72017292Y-76795790D01*
X72017292Y-76795790D02*
X71969673Y-76748171D01*
X71969673Y-76748171D02*
X71922054Y-76652933D01*
X71922054Y-76652933D02*
X71922054Y-76557695D01*
X71922054Y-76557695D02*
X71969673Y-76462457D01*
X71969673Y-76462457D02*
X72017292Y-76414838D01*
X72017292Y-76414838D02*
X72112530Y-76367219D01*
X72112530Y-76367219D02*
X72350625Y-76367219D01*
X72350625Y-76367219D02*
X72493482Y-76414838D01*
X72922054Y-76843409D02*
X73255387Y-76843409D01*
X73398244Y-77367219D02*
X72922054Y-77367219D01*
X72922054Y-77367219D02*
X72922054Y-76367219D01*
X72922054Y-76367219D02*
X73398244Y-76367219D01*
X73826816Y-77367219D02*
X73826816Y-76367219D01*
X73826816Y-76367219D02*
X74398244Y-77367219D01*
X74398244Y-77367219D02*
X74398244Y-76367219D01*
X74826816Y-77319600D02*
X74969673Y-77367219D01*
X74969673Y-77367219D02*
X75207768Y-77367219D01*
X75207768Y-77367219D02*
X75303006Y-77319600D01*
X75303006Y-77319600D02*
X75350625Y-77271980D01*
X75350625Y-77271980D02*
X75398244Y-77176742D01*
X75398244Y-77176742D02*
X75398244Y-77081504D01*
X75398244Y-77081504D02*
X75350625Y-76986266D01*
X75350625Y-76986266D02*
X75303006Y-76938647D01*
X75303006Y-76938647D02*
X75207768Y-76891028D01*
X75207768Y-76891028D02*
X75017292Y-76843409D01*
X75017292Y-76843409D02*
X74922054Y-76795790D01*
X74922054Y-76795790D02*
X74874435Y-76748171D01*
X74874435Y-76748171D02*
X74826816Y-76652933D01*
X74826816Y-76652933D02*
X74826816Y-76557695D01*
X74826816Y-76557695D02*
X74874435Y-76462457D01*
X74874435Y-76462457D02*
X74922054Y-76414838D01*
X74922054Y-76414838D02*
X75017292Y-76367219D01*
X75017292Y-76367219D02*
X75255387Y-76367219D01*
X75255387Y-76367219D02*
X75398244Y-76414838D01*
X76017292Y-76367219D02*
X76207768Y-76367219D01*
X76207768Y-76367219D02*
X76303006Y-76414838D01*
X76303006Y-76414838D02*
X76398244Y-76510076D01*
X76398244Y-76510076D02*
X76445863Y-76700552D01*
X76445863Y-76700552D02*
X76445863Y-77033885D01*
X76445863Y-77033885D02*
X76398244Y-77224361D01*
X76398244Y-77224361D02*
X76303006Y-77319600D01*
X76303006Y-77319600D02*
X76207768Y-77367219D01*
X76207768Y-77367219D02*
X76017292Y-77367219D01*
X76017292Y-77367219D02*
X75922054Y-77319600D01*
X75922054Y-77319600D02*
X75826816Y-77224361D01*
X75826816Y-77224361D02*
X75779197Y-77033885D01*
X75779197Y-77033885D02*
X75779197Y-76700552D01*
X75779197Y-76700552D02*
X75826816Y-76510076D01*
X75826816Y-76510076D02*
X75922054Y-76414838D01*
X75922054Y-76414838D02*
X76017292Y-76367219D01*
X77445863Y-77367219D02*
X77112530Y-76891028D01*
X76874435Y-77367219D02*
X76874435Y-76367219D01*
X76874435Y-76367219D02*
X77255387Y-76367219D01*
X77255387Y-76367219D02*
X77350625Y-76414838D01*
X77350625Y-76414838D02*
X77398244Y-76462457D01*
X77398244Y-76462457D02*
X77445863Y-76557695D01*
X77445863Y-76557695D02*
X77445863Y-76700552D01*
X77445863Y-76700552D02*
X77398244Y-76795790D01*
X77398244Y-76795790D02*
X77350625Y-76843409D01*
X77350625Y-76843409D02*
X77255387Y-76891028D01*
X77255387Y-76891028D02*
X76874435Y-76891028D01*
X79064911Y-76367219D02*
X78874435Y-76367219D01*
X78874435Y-76367219D02*
X78779197Y-76414838D01*
X78779197Y-76414838D02*
X78731578Y-76462457D01*
X78731578Y-76462457D02*
X78636340Y-76605314D01*
X78636340Y-76605314D02*
X78588721Y-76795790D01*
X78588721Y-76795790D02*
X78588721Y-77176742D01*
X78588721Y-77176742D02*
X78636340Y-77271980D01*
X78636340Y-77271980D02*
X78683959Y-77319600D01*
X78683959Y-77319600D02*
X78779197Y-77367219D01*
X78779197Y-77367219D02*
X78969673Y-77367219D01*
X78969673Y-77367219D02*
X79064911Y-77319600D01*
X79064911Y-77319600D02*
X79112530Y-77271980D01*
X79112530Y-77271980D02*
X79160149Y-77176742D01*
X79160149Y-77176742D02*
X79160149Y-76938647D01*
X79160149Y-76938647D02*
X79112530Y-76843409D01*
X79112530Y-76843409D02*
X79064911Y-76795790D01*
X79064911Y-76795790D02*
X78969673Y-76748171D01*
X78969673Y-76748171D02*
X78779197Y-76748171D01*
X78779197Y-76748171D02*
X78683959Y-76795790D01*
X78683959Y-76795790D02*
X78636340Y-76843409D01*
X78636340Y-76843409D02*
X78588721Y-76938647D01*
D11*
X55176184Y-85106330D02*
X55176184Y-84606330D01*
X55176184Y-84606330D02*
X55342851Y-84963473D01*
X55342851Y-84963473D02*
X55509517Y-84606330D01*
X55509517Y-84606330D02*
X55509517Y-85106330D01*
X55961899Y-84772997D02*
X55961899Y-85106330D01*
X55747613Y-84772997D02*
X55747613Y-85034901D01*
X55747613Y-85034901D02*
X55771423Y-85082521D01*
X55771423Y-85082521D02*
X55819042Y-85106330D01*
X55819042Y-85106330D02*
X55890470Y-85106330D01*
X55890470Y-85106330D02*
X55938089Y-85082521D01*
X55938089Y-85082521D02*
X55961899Y-85058711D01*
X56152375Y-85106330D02*
X56414280Y-84772997D01*
X56152375Y-84772997D02*
X56414280Y-85106330D01*
X57152375Y-84844425D02*
X57223803Y-84868235D01*
X57223803Y-84868235D02*
X57247613Y-84892044D01*
X57247613Y-84892044D02*
X57271422Y-84939663D01*
X57271422Y-84939663D02*
X57271422Y-85011092D01*
X57271422Y-85011092D02*
X57247613Y-85058711D01*
X57247613Y-85058711D02*
X57223803Y-85082521D01*
X57223803Y-85082521D02*
X57176184Y-85106330D01*
X57176184Y-85106330D02*
X56985708Y-85106330D01*
X56985708Y-85106330D02*
X56985708Y-84606330D01*
X56985708Y-84606330D02*
X57152375Y-84606330D01*
X57152375Y-84606330D02*
X57199994Y-84630140D01*
X57199994Y-84630140D02*
X57223803Y-84653949D01*
X57223803Y-84653949D02*
X57247613Y-84701568D01*
X57247613Y-84701568D02*
X57247613Y-84749187D01*
X57247613Y-84749187D02*
X57223803Y-84796806D01*
X57223803Y-84796806D02*
X57199994Y-84820616D01*
X57199994Y-84820616D02*
X57152375Y-84844425D01*
X57152375Y-84844425D02*
X56985708Y-84844425D01*
X57485708Y-85106330D02*
X57485708Y-84772997D01*
X57485708Y-84868235D02*
X57509518Y-84820616D01*
X57509518Y-84820616D02*
X57533327Y-84796806D01*
X57533327Y-84796806D02*
X57580946Y-84772997D01*
X57580946Y-84772997D02*
X57628565Y-84772997D01*
X57985708Y-85082521D02*
X57938089Y-85106330D01*
X57938089Y-85106330D02*
X57842851Y-85106330D01*
X57842851Y-85106330D02*
X57795232Y-85082521D01*
X57795232Y-85082521D02*
X57771423Y-85034901D01*
X57771423Y-85034901D02*
X57771423Y-84844425D01*
X57771423Y-84844425D02*
X57795232Y-84796806D01*
X57795232Y-84796806D02*
X57842851Y-84772997D01*
X57842851Y-84772997D02*
X57938089Y-84772997D01*
X57938089Y-84772997D02*
X57985708Y-84796806D01*
X57985708Y-84796806D02*
X58009518Y-84844425D01*
X58009518Y-84844425D02*
X58009518Y-84892044D01*
X58009518Y-84892044D02*
X57771423Y-84939663D01*
X58438089Y-85106330D02*
X58438089Y-84844425D01*
X58438089Y-84844425D02*
X58414279Y-84796806D01*
X58414279Y-84796806D02*
X58366660Y-84772997D01*
X58366660Y-84772997D02*
X58271422Y-84772997D01*
X58271422Y-84772997D02*
X58223803Y-84796806D01*
X58438089Y-85082521D02*
X58390470Y-85106330D01*
X58390470Y-85106330D02*
X58271422Y-85106330D01*
X58271422Y-85106330D02*
X58223803Y-85082521D01*
X58223803Y-85082521D02*
X58199994Y-85034901D01*
X58199994Y-85034901D02*
X58199994Y-84987282D01*
X58199994Y-84987282D02*
X58223803Y-84939663D01*
X58223803Y-84939663D02*
X58271422Y-84915854D01*
X58271422Y-84915854D02*
X58390470Y-84915854D01*
X58390470Y-84915854D02*
X58438089Y-84892044D01*
X58676184Y-85106330D02*
X58676184Y-84606330D01*
X58723803Y-84915854D02*
X58866660Y-85106330D01*
X58866660Y-84772997D02*
X58676184Y-84963473D01*
X59152375Y-85106330D02*
X59104756Y-85082521D01*
X59104756Y-85082521D02*
X59080946Y-85058711D01*
X59080946Y-85058711D02*
X59057137Y-85011092D01*
X59057137Y-85011092D02*
X59057137Y-84868235D01*
X59057137Y-84868235D02*
X59080946Y-84820616D01*
X59080946Y-84820616D02*
X59104756Y-84796806D01*
X59104756Y-84796806D02*
X59152375Y-84772997D01*
X59152375Y-84772997D02*
X59223803Y-84772997D01*
X59223803Y-84772997D02*
X59271422Y-84796806D01*
X59271422Y-84796806D02*
X59295232Y-84820616D01*
X59295232Y-84820616D02*
X59319041Y-84868235D01*
X59319041Y-84868235D02*
X59319041Y-85011092D01*
X59319041Y-85011092D02*
X59295232Y-85058711D01*
X59295232Y-85058711D02*
X59271422Y-85082521D01*
X59271422Y-85082521D02*
X59223803Y-85106330D01*
X59223803Y-85106330D02*
X59152375Y-85106330D01*
X59747613Y-84772997D02*
X59747613Y-85106330D01*
X59533327Y-84772997D02*
X59533327Y-85034901D01*
X59533327Y-85034901D02*
X59557137Y-85082521D01*
X59557137Y-85082521D02*
X59604756Y-85106330D01*
X59604756Y-85106330D02*
X59676184Y-85106330D01*
X59676184Y-85106330D02*
X59723803Y-85082521D01*
X59723803Y-85082521D02*
X59747613Y-85058711D01*
X59914280Y-84772997D02*
X60104756Y-84772997D01*
X59985708Y-84606330D02*
X59985708Y-85034901D01*
X59985708Y-85034901D02*
X60009518Y-85082521D01*
X60009518Y-85082521D02*
X60057137Y-85106330D01*
X60057137Y-85106330D02*
X60104756Y-85106330D01*
X60938088Y-85106330D02*
X60771422Y-84868235D01*
X60652374Y-85106330D02*
X60652374Y-84606330D01*
X60652374Y-84606330D02*
X60842850Y-84606330D01*
X60842850Y-84606330D02*
X60890469Y-84630140D01*
X60890469Y-84630140D02*
X60914279Y-84653949D01*
X60914279Y-84653949D02*
X60938088Y-84701568D01*
X60938088Y-84701568D02*
X60938088Y-84772997D01*
X60938088Y-84772997D02*
X60914279Y-84820616D01*
X60914279Y-84820616D02*
X60890469Y-84844425D01*
X60890469Y-84844425D02*
X60842850Y-84868235D01*
X60842850Y-84868235D02*
X60652374Y-84868235D01*
X61342850Y-85082521D02*
X61295231Y-85106330D01*
X61295231Y-85106330D02*
X61199993Y-85106330D01*
X61199993Y-85106330D02*
X61152374Y-85082521D01*
X61152374Y-85082521D02*
X61128565Y-85034901D01*
X61128565Y-85034901D02*
X61128565Y-84844425D01*
X61128565Y-84844425D02*
X61152374Y-84796806D01*
X61152374Y-84796806D02*
X61199993Y-84772997D01*
X61199993Y-84772997D02*
X61295231Y-84772997D01*
X61295231Y-84772997D02*
X61342850Y-84796806D01*
X61342850Y-84796806D02*
X61366660Y-84844425D01*
X61366660Y-84844425D02*
X61366660Y-84892044D01*
X61366660Y-84892044D02*
X61128565Y-84939663D01*
X61533326Y-84772997D02*
X61652374Y-85106330D01*
X61652374Y-85106330D02*
X61771421Y-84772997D01*
X61961897Y-85058711D02*
X61985707Y-85082521D01*
X61985707Y-85082521D02*
X61961897Y-85106330D01*
X61961897Y-85106330D02*
X61938088Y-85082521D01*
X61938088Y-85082521D02*
X61961897Y-85058711D01*
X61961897Y-85058711D02*
X61961897Y-85106330D01*
X62461897Y-85106330D02*
X62176183Y-85106330D01*
X62319040Y-85106330D02*
X62319040Y-84606330D01*
X62319040Y-84606330D02*
X62271421Y-84677759D01*
X62271421Y-84677759D02*
X62223802Y-84725378D01*
X62223802Y-84725378D02*
X62176183Y-84749187D01*
D10*
X77640694Y-78648538D02*
X77583552Y-78619967D01*
X77583552Y-78619967D02*
X77497837Y-78619967D01*
X77497837Y-78619967D02*
X77412123Y-78648538D01*
X77412123Y-78648538D02*
X77354980Y-78705681D01*
X77354980Y-78705681D02*
X77326409Y-78762824D01*
X77326409Y-78762824D02*
X77297837Y-78877110D01*
X77297837Y-78877110D02*
X77297837Y-78962824D01*
X77297837Y-78962824D02*
X77326409Y-79077110D01*
X77326409Y-79077110D02*
X77354980Y-79134253D01*
X77354980Y-79134253D02*
X77412123Y-79191396D01*
X77412123Y-79191396D02*
X77497837Y-79219967D01*
X77497837Y-79219967D02*
X77554980Y-79219967D01*
X77554980Y-79219967D02*
X77640694Y-79191396D01*
X77640694Y-79191396D02*
X77669266Y-79162824D01*
X77669266Y-79162824D02*
X77669266Y-78962824D01*
X77669266Y-78962824D02*
X77554980Y-78962824D01*
X77926409Y-79219967D02*
X77926409Y-78619967D01*
X77926409Y-78619967D02*
X78269266Y-79219967D01*
X78269266Y-79219967D02*
X78269266Y-78619967D01*
X78554980Y-79219967D02*
X78554980Y-78619967D01*
X78554980Y-78619967D02*
X78697837Y-78619967D01*
X78697837Y-78619967D02*
X78783551Y-78648538D01*
X78783551Y-78648538D02*
X78840694Y-78705681D01*
X78840694Y-78705681D02*
X78869265Y-78762824D01*
X78869265Y-78762824D02*
X78897837Y-78877110D01*
X78897837Y-78877110D02*
X78897837Y-78962824D01*
X78897837Y-78962824D02*
X78869265Y-79077110D01*
X78869265Y-79077110D02*
X78840694Y-79134253D01*
X78840694Y-79134253D02*
X78783551Y-79191396D01*
X78783551Y-79191396D02*
X78697837Y-79219967D01*
X78697837Y-79219967D02*
X78554980Y-79219967D01*
X72526409Y-88419967D02*
X72526409Y-87819967D01*
X72812123Y-88419967D02*
X72812123Y-87819967D01*
X72812123Y-87819967D02*
X73154980Y-88419967D01*
X73154980Y-88419967D02*
X73154980Y-87819967D01*
X73383551Y-87819967D02*
X73783551Y-87819967D01*
X73783551Y-87819967D02*
X73526408Y-88419967D01*
X41526409Y-62419967D02*
X41526409Y-61819967D01*
X41812123Y-62419967D02*
X41812123Y-61819967D01*
X41812123Y-61819967D02*
X42154980Y-62419967D01*
X42154980Y-62419967D02*
X42154980Y-61819967D01*
X42754979Y-62419967D02*
X42412122Y-62419967D01*
X42583551Y-62419967D02*
X42583551Y-61819967D01*
X42583551Y-61819967D02*
X42526408Y-61905681D01*
X42526408Y-61905681D02*
X42469265Y-61962824D01*
X42469265Y-61962824D02*
X42412122Y-61991396D01*
X75140694Y-91648538D02*
X75083552Y-91619967D01*
X75083552Y-91619967D02*
X74997837Y-91619967D01*
X74997837Y-91619967D02*
X74912123Y-91648538D01*
X74912123Y-91648538D02*
X74854980Y-91705681D01*
X74854980Y-91705681D02*
X74826409Y-91762824D01*
X74826409Y-91762824D02*
X74797837Y-91877110D01*
X74797837Y-91877110D02*
X74797837Y-91962824D01*
X74797837Y-91962824D02*
X74826409Y-92077110D01*
X74826409Y-92077110D02*
X74854980Y-92134253D01*
X74854980Y-92134253D02*
X74912123Y-92191396D01*
X74912123Y-92191396D02*
X74997837Y-92219967D01*
X74997837Y-92219967D02*
X75054980Y-92219967D01*
X75054980Y-92219967D02*
X75140694Y-92191396D01*
X75140694Y-92191396D02*
X75169266Y-92162824D01*
X75169266Y-92162824D02*
X75169266Y-91962824D01*
X75169266Y-91962824D02*
X75054980Y-91962824D01*
X75426409Y-92219967D02*
X75426409Y-91619967D01*
X75426409Y-91619967D02*
X75769266Y-92219967D01*
X75769266Y-92219967D02*
X75769266Y-91619967D01*
X76054980Y-92219967D02*
X76054980Y-91619967D01*
X76054980Y-91619967D02*
X76197837Y-91619967D01*
X76197837Y-91619967D02*
X76283551Y-91648538D01*
X76283551Y-91648538D02*
X76340694Y-91705681D01*
X76340694Y-91705681D02*
X76369265Y-91762824D01*
X76369265Y-91762824D02*
X76397837Y-91877110D01*
X76397837Y-91877110D02*
X76397837Y-91962824D01*
X76397837Y-91962824D02*
X76369265Y-92077110D01*
X76369265Y-92077110D02*
X76340694Y-92134253D01*
X76340694Y-92134253D02*
X76283551Y-92191396D01*
X76283551Y-92191396D02*
X76197837Y-92219967D01*
X76197837Y-92219967D02*
X76054980Y-92219967D01*
X46640694Y-91648538D02*
X46583552Y-91619967D01*
X46583552Y-91619967D02*
X46497837Y-91619967D01*
X46497837Y-91619967D02*
X46412123Y-91648538D01*
X46412123Y-91648538D02*
X46354980Y-91705681D01*
X46354980Y-91705681D02*
X46326409Y-91762824D01*
X46326409Y-91762824D02*
X46297837Y-91877110D01*
X46297837Y-91877110D02*
X46297837Y-91962824D01*
X46297837Y-91962824D02*
X46326409Y-92077110D01*
X46326409Y-92077110D02*
X46354980Y-92134253D01*
X46354980Y-92134253D02*
X46412123Y-92191396D01*
X46412123Y-92191396D02*
X46497837Y-92219967D01*
X46497837Y-92219967D02*
X46554980Y-92219967D01*
X46554980Y-92219967D02*
X46640694Y-92191396D01*
X46640694Y-92191396D02*
X46669266Y-92162824D01*
X46669266Y-92162824D02*
X46669266Y-91962824D01*
X46669266Y-91962824D02*
X46554980Y-91962824D01*
X46926409Y-92219967D02*
X46926409Y-91619967D01*
X46926409Y-91619967D02*
X47269266Y-92219967D01*
X47269266Y-92219967D02*
X47269266Y-91619967D01*
X47554980Y-92219967D02*
X47554980Y-91619967D01*
X47554980Y-91619967D02*
X47697837Y-91619967D01*
X47697837Y-91619967D02*
X47783551Y-91648538D01*
X47783551Y-91648538D02*
X47840694Y-91705681D01*
X47840694Y-91705681D02*
X47869265Y-91762824D01*
X47869265Y-91762824D02*
X47897837Y-91877110D01*
X47897837Y-91877110D02*
X47897837Y-91962824D01*
X47897837Y-91962824D02*
X47869265Y-92077110D01*
X47869265Y-92077110D02*
X47840694Y-92134253D01*
X47840694Y-92134253D02*
X47783551Y-92191396D01*
X47783551Y-92191396D02*
X47697837Y-92219967D01*
X47697837Y-92219967D02*
X47554980Y-92219967D01*
D13*
X71922054Y-64319600D02*
X72064911Y-64367219D01*
X72064911Y-64367219D02*
X72303006Y-64367219D01*
X72303006Y-64367219D02*
X72398244Y-64319600D01*
X72398244Y-64319600D02*
X72445863Y-64271980D01*
X72445863Y-64271980D02*
X72493482Y-64176742D01*
X72493482Y-64176742D02*
X72493482Y-64081504D01*
X72493482Y-64081504D02*
X72445863Y-63986266D01*
X72445863Y-63986266D02*
X72398244Y-63938647D01*
X72398244Y-63938647D02*
X72303006Y-63891028D01*
X72303006Y-63891028D02*
X72112530Y-63843409D01*
X72112530Y-63843409D02*
X72017292Y-63795790D01*
X72017292Y-63795790D02*
X71969673Y-63748171D01*
X71969673Y-63748171D02*
X71922054Y-63652933D01*
X71922054Y-63652933D02*
X71922054Y-63557695D01*
X71922054Y-63557695D02*
X71969673Y-63462457D01*
X71969673Y-63462457D02*
X72017292Y-63414838D01*
X72017292Y-63414838D02*
X72112530Y-63367219D01*
X72112530Y-63367219D02*
X72350625Y-63367219D01*
X72350625Y-63367219D02*
X72493482Y-63414838D01*
X72922054Y-63843409D02*
X73255387Y-63843409D01*
X73398244Y-64367219D02*
X72922054Y-64367219D01*
X72922054Y-64367219D02*
X72922054Y-63367219D01*
X72922054Y-63367219D02*
X73398244Y-63367219D01*
X73826816Y-64367219D02*
X73826816Y-63367219D01*
X73826816Y-63367219D02*
X74398244Y-64367219D01*
X74398244Y-64367219D02*
X74398244Y-63367219D01*
X74826816Y-64319600D02*
X74969673Y-64367219D01*
X74969673Y-64367219D02*
X75207768Y-64367219D01*
X75207768Y-64367219D02*
X75303006Y-64319600D01*
X75303006Y-64319600D02*
X75350625Y-64271980D01*
X75350625Y-64271980D02*
X75398244Y-64176742D01*
X75398244Y-64176742D02*
X75398244Y-64081504D01*
X75398244Y-64081504D02*
X75350625Y-63986266D01*
X75350625Y-63986266D02*
X75303006Y-63938647D01*
X75303006Y-63938647D02*
X75207768Y-63891028D01*
X75207768Y-63891028D02*
X75017292Y-63843409D01*
X75017292Y-63843409D02*
X74922054Y-63795790D01*
X74922054Y-63795790D02*
X74874435Y-63748171D01*
X74874435Y-63748171D02*
X74826816Y-63652933D01*
X74826816Y-63652933D02*
X74826816Y-63557695D01*
X74826816Y-63557695D02*
X74874435Y-63462457D01*
X74874435Y-63462457D02*
X74922054Y-63414838D01*
X74922054Y-63414838D02*
X75017292Y-63367219D01*
X75017292Y-63367219D02*
X75255387Y-63367219D01*
X75255387Y-63367219D02*
X75398244Y-63414838D01*
X76017292Y-63367219D02*
X76207768Y-63367219D01*
X76207768Y-63367219D02*
X76303006Y-63414838D01*
X76303006Y-63414838D02*
X76398244Y-63510076D01*
X76398244Y-63510076D02*
X76445863Y-63700552D01*
X76445863Y-63700552D02*
X76445863Y-64033885D01*
X76445863Y-64033885D02*
X76398244Y-64224361D01*
X76398244Y-64224361D02*
X76303006Y-64319600D01*
X76303006Y-64319600D02*
X76207768Y-64367219D01*
X76207768Y-64367219D02*
X76017292Y-64367219D01*
X76017292Y-64367219D02*
X75922054Y-64319600D01*
X75922054Y-64319600D02*
X75826816Y-64224361D01*
X75826816Y-64224361D02*
X75779197Y-64033885D01*
X75779197Y-64033885D02*
X75779197Y-63700552D01*
X75779197Y-63700552D02*
X75826816Y-63510076D01*
X75826816Y-63510076D02*
X75922054Y-63414838D01*
X75922054Y-63414838D02*
X76017292Y-63367219D01*
X77445863Y-64367219D02*
X77112530Y-63891028D01*
X76874435Y-64367219D02*
X76874435Y-63367219D01*
X76874435Y-63367219D02*
X77255387Y-63367219D01*
X77255387Y-63367219D02*
X77350625Y-63414838D01*
X77350625Y-63414838D02*
X77398244Y-63462457D01*
X77398244Y-63462457D02*
X77445863Y-63557695D01*
X77445863Y-63557695D02*
X77445863Y-63700552D01*
X77445863Y-63700552D02*
X77398244Y-63795790D01*
X77398244Y-63795790D02*
X77350625Y-63843409D01*
X77350625Y-63843409D02*
X77255387Y-63891028D01*
X77255387Y-63891028D02*
X76874435Y-63891028D01*
X79112530Y-63367219D02*
X78636340Y-63367219D01*
X78636340Y-63367219D02*
X78588721Y-63843409D01*
X78588721Y-63843409D02*
X78636340Y-63795790D01*
X78636340Y-63795790D02*
X78731578Y-63748171D01*
X78731578Y-63748171D02*
X78969673Y-63748171D01*
X78969673Y-63748171D02*
X79064911Y-63795790D01*
X79064911Y-63795790D02*
X79112530Y-63843409D01*
X79112530Y-63843409D02*
X79160149Y-63938647D01*
X79160149Y-63938647D02*
X79160149Y-64176742D01*
X79160149Y-64176742D02*
X79112530Y-64271980D01*
X79112530Y-64271980D02*
X79064911Y-64319600D01*
X79064911Y-64319600D02*
X78969673Y-64367219D01*
X78969673Y-64367219D02*
X78731578Y-64367219D01*
X78731578Y-64367219D02*
X78636340Y-64319600D01*
X78636340Y-64319600D02*
X78588721Y-64271980D01*
D10*
X46626409Y-49419967D02*
X46626409Y-48819967D01*
X46912123Y-49419967D02*
X46912123Y-48819967D01*
X46912123Y-48819967D02*
X47254980Y-49419967D01*
X47254980Y-49419967D02*
X47254980Y-48819967D01*
X47654979Y-48819967D02*
X47712122Y-48819967D01*
X47712122Y-48819967D02*
X47769265Y-48848538D01*
X47769265Y-48848538D02*
X47797837Y-48877110D01*
X47797837Y-48877110D02*
X47826408Y-48934253D01*
X47826408Y-48934253D02*
X47854979Y-49048538D01*
X47854979Y-49048538D02*
X47854979Y-49191396D01*
X47854979Y-49191396D02*
X47826408Y-49305681D01*
X47826408Y-49305681D02*
X47797837Y-49362824D01*
X47797837Y-49362824D02*
X47769265Y-49391396D01*
X47769265Y-49391396D02*
X47712122Y-49419967D01*
X47712122Y-49419967D02*
X47654979Y-49419967D01*
X47654979Y-49419967D02*
X47597837Y-49391396D01*
X47597837Y-49391396D02*
X47569265Y-49362824D01*
X47569265Y-49362824D02*
X47540694Y-49305681D01*
X47540694Y-49305681D02*
X47512122Y-49191396D01*
X47512122Y-49191396D02*
X47512122Y-49048538D01*
X47512122Y-49048538D02*
X47540694Y-48934253D01*
X47540694Y-48934253D02*
X47569265Y-48877110D01*
X47569265Y-48877110D02*
X47597837Y-48848538D01*
X47597837Y-48848538D02*
X47654979Y-48819967D01*
X46640694Y-65648538D02*
X46583552Y-65619967D01*
X46583552Y-65619967D02*
X46497837Y-65619967D01*
X46497837Y-65619967D02*
X46412123Y-65648538D01*
X46412123Y-65648538D02*
X46354980Y-65705681D01*
X46354980Y-65705681D02*
X46326409Y-65762824D01*
X46326409Y-65762824D02*
X46297837Y-65877110D01*
X46297837Y-65877110D02*
X46297837Y-65962824D01*
X46297837Y-65962824D02*
X46326409Y-66077110D01*
X46326409Y-66077110D02*
X46354980Y-66134253D01*
X46354980Y-66134253D02*
X46412123Y-66191396D01*
X46412123Y-66191396D02*
X46497837Y-66219967D01*
X46497837Y-66219967D02*
X46554980Y-66219967D01*
X46554980Y-66219967D02*
X46640694Y-66191396D01*
X46640694Y-66191396D02*
X46669266Y-66162824D01*
X46669266Y-66162824D02*
X46669266Y-65962824D01*
X46669266Y-65962824D02*
X46554980Y-65962824D01*
X46926409Y-66219967D02*
X46926409Y-65619967D01*
X46926409Y-65619967D02*
X47269266Y-66219967D01*
X47269266Y-66219967D02*
X47269266Y-65619967D01*
X47554980Y-66219967D02*
X47554980Y-65619967D01*
X47554980Y-65619967D02*
X47697837Y-65619967D01*
X47697837Y-65619967D02*
X47783551Y-65648538D01*
X47783551Y-65648538D02*
X47840694Y-65705681D01*
X47840694Y-65705681D02*
X47869265Y-65762824D01*
X47869265Y-65762824D02*
X47897837Y-65877110D01*
X47897837Y-65877110D02*
X47897837Y-65962824D01*
X47897837Y-65962824D02*
X47869265Y-66077110D01*
X47869265Y-66077110D02*
X47840694Y-66134253D01*
X47840694Y-66134253D02*
X47783551Y-66191396D01*
X47783551Y-66191396D02*
X47697837Y-66219967D01*
X47697837Y-66219967D02*
X47554980Y-66219967D01*
X46640694Y-52648538D02*
X46583552Y-52619967D01*
X46583552Y-52619967D02*
X46497837Y-52619967D01*
X46497837Y-52619967D02*
X46412123Y-52648538D01*
X46412123Y-52648538D02*
X46354980Y-52705681D01*
X46354980Y-52705681D02*
X46326409Y-52762824D01*
X46326409Y-52762824D02*
X46297837Y-52877110D01*
X46297837Y-52877110D02*
X46297837Y-52962824D01*
X46297837Y-52962824D02*
X46326409Y-53077110D01*
X46326409Y-53077110D02*
X46354980Y-53134253D01*
X46354980Y-53134253D02*
X46412123Y-53191396D01*
X46412123Y-53191396D02*
X46497837Y-53219967D01*
X46497837Y-53219967D02*
X46554980Y-53219967D01*
X46554980Y-53219967D02*
X46640694Y-53191396D01*
X46640694Y-53191396D02*
X46669266Y-53162824D01*
X46669266Y-53162824D02*
X46669266Y-52962824D01*
X46669266Y-52962824D02*
X46554980Y-52962824D01*
X46926409Y-53219967D02*
X46926409Y-52619967D01*
X46926409Y-52619967D02*
X47269266Y-53219967D01*
X47269266Y-53219967D02*
X47269266Y-52619967D01*
X47554980Y-53219967D02*
X47554980Y-52619967D01*
X47554980Y-52619967D02*
X47697837Y-52619967D01*
X47697837Y-52619967D02*
X47783551Y-52648538D01*
X47783551Y-52648538D02*
X47840694Y-52705681D01*
X47840694Y-52705681D02*
X47869265Y-52762824D01*
X47869265Y-52762824D02*
X47897837Y-52877110D01*
X47897837Y-52877110D02*
X47897837Y-52962824D01*
X47897837Y-52962824D02*
X47869265Y-53077110D01*
X47869265Y-53077110D02*
X47840694Y-53134253D01*
X47840694Y-53134253D02*
X47783551Y-53191396D01*
X47783551Y-53191396D02*
X47697837Y-53219967D01*
X47697837Y-53219967D02*
X47554980Y-53219967D01*
X54434824Y-82448919D02*
X54520538Y-82477491D01*
X54520538Y-82477491D02*
X54549109Y-82506062D01*
X54549109Y-82506062D02*
X54577681Y-82563205D01*
X54577681Y-82563205D02*
X54577681Y-82648919D01*
X54577681Y-82648919D02*
X54549109Y-82706062D01*
X54549109Y-82706062D02*
X54520538Y-82734634D01*
X54520538Y-82734634D02*
X54463395Y-82763205D01*
X54463395Y-82763205D02*
X54234824Y-82763205D01*
X54234824Y-82763205D02*
X54234824Y-82163205D01*
X54234824Y-82163205D02*
X54434824Y-82163205D01*
X54434824Y-82163205D02*
X54491967Y-82191776D01*
X54491967Y-82191776D02*
X54520538Y-82220348D01*
X54520538Y-82220348D02*
X54549109Y-82277491D01*
X54549109Y-82277491D02*
X54549109Y-82334634D01*
X54549109Y-82334634D02*
X54520538Y-82391776D01*
X54520538Y-82391776D02*
X54491967Y-82420348D01*
X54491967Y-82420348D02*
X54434824Y-82448919D01*
X54434824Y-82448919D02*
X54234824Y-82448919D01*
X55063395Y-82734634D02*
X55006252Y-82763205D01*
X55006252Y-82763205D02*
X54891967Y-82763205D01*
X54891967Y-82763205D02*
X54834824Y-82734634D01*
X54834824Y-82734634D02*
X54806252Y-82677491D01*
X54806252Y-82677491D02*
X54806252Y-82448919D01*
X54806252Y-82448919D02*
X54834824Y-82391776D01*
X54834824Y-82391776D02*
X54891967Y-82363205D01*
X54891967Y-82363205D02*
X55006252Y-82363205D01*
X55006252Y-82363205D02*
X55063395Y-82391776D01*
X55063395Y-82391776D02*
X55091967Y-82448919D01*
X55091967Y-82448919D02*
X55091967Y-82506062D01*
X55091967Y-82506062D02*
X54806252Y-82563205D01*
X55349110Y-82763205D02*
X55349110Y-82363205D01*
X55349110Y-82477491D02*
X55377681Y-82420348D01*
X55377681Y-82420348D02*
X55406253Y-82391776D01*
X55406253Y-82391776D02*
X55463395Y-82363205D01*
X55463395Y-82363205D02*
X55520538Y-82363205D01*
X55720539Y-82763205D02*
X55720539Y-82163205D01*
X55777682Y-82534634D02*
X55949110Y-82763205D01*
X55949110Y-82363205D02*
X55720539Y-82591776D01*
X56434824Y-82734634D02*
X56377681Y-82763205D01*
X56377681Y-82763205D02*
X56263396Y-82763205D01*
X56263396Y-82763205D02*
X56206253Y-82734634D01*
X56206253Y-82734634D02*
X56177681Y-82677491D01*
X56177681Y-82677491D02*
X56177681Y-82448919D01*
X56177681Y-82448919D02*
X56206253Y-82391776D01*
X56206253Y-82391776D02*
X56263396Y-82363205D01*
X56263396Y-82363205D02*
X56377681Y-82363205D01*
X56377681Y-82363205D02*
X56434824Y-82391776D01*
X56434824Y-82391776D02*
X56463396Y-82448919D01*
X56463396Y-82448919D02*
X56463396Y-82506062D01*
X56463396Y-82506062D02*
X56177681Y-82563205D01*
X56806253Y-82763205D02*
X56749110Y-82734634D01*
X56749110Y-82734634D02*
X56720539Y-82677491D01*
X56720539Y-82677491D02*
X56720539Y-82163205D01*
X57263396Y-82734634D02*
X57206253Y-82763205D01*
X57206253Y-82763205D02*
X57091968Y-82763205D01*
X57091968Y-82763205D02*
X57034825Y-82734634D01*
X57034825Y-82734634D02*
X57006253Y-82677491D01*
X57006253Y-82677491D02*
X57006253Y-82448919D01*
X57006253Y-82448919D02*
X57034825Y-82391776D01*
X57034825Y-82391776D02*
X57091968Y-82363205D01*
X57091968Y-82363205D02*
X57206253Y-82363205D01*
X57206253Y-82363205D02*
X57263396Y-82391776D01*
X57263396Y-82391776D02*
X57291968Y-82448919D01*
X57291968Y-82448919D02*
X57291968Y-82506062D01*
X57291968Y-82506062D02*
X57006253Y-82563205D01*
X57491968Y-82363205D02*
X57634825Y-82763205D01*
X57777682Y-82363205D02*
X57634825Y-82763205D01*
X57634825Y-82763205D02*
X57577682Y-82906062D01*
X57577682Y-82906062D02*
X57549111Y-82934634D01*
X57549111Y-82934634D02*
X57491968Y-82963205D01*
X58434825Y-82591776D02*
X58720540Y-82591776D01*
X58377682Y-82763205D02*
X58577682Y-82163205D01*
X58577682Y-82163205D02*
X58777682Y-82763205D01*
X59234826Y-82363205D02*
X59234826Y-82763205D01*
X58977683Y-82363205D02*
X58977683Y-82677491D01*
X58977683Y-82677491D02*
X59006254Y-82734634D01*
X59006254Y-82734634D02*
X59063397Y-82763205D01*
X59063397Y-82763205D02*
X59149111Y-82763205D01*
X59149111Y-82763205D02*
X59206254Y-82734634D01*
X59206254Y-82734634D02*
X59234826Y-82706062D01*
X59434825Y-82363205D02*
X59663397Y-82363205D01*
X59520540Y-82163205D02*
X59520540Y-82677491D01*
X59520540Y-82677491D02*
X59549111Y-82734634D01*
X59549111Y-82734634D02*
X59606254Y-82763205D01*
X59606254Y-82763205D02*
X59663397Y-82763205D01*
X59949111Y-82763205D02*
X59891968Y-82734634D01*
X59891968Y-82734634D02*
X59863397Y-82706062D01*
X59863397Y-82706062D02*
X59834825Y-82648919D01*
X59834825Y-82648919D02*
X59834825Y-82477491D01*
X59834825Y-82477491D02*
X59863397Y-82420348D01*
X59863397Y-82420348D02*
X59891968Y-82391776D01*
X59891968Y-82391776D02*
X59949111Y-82363205D01*
X59949111Y-82363205D02*
X60034825Y-82363205D01*
X60034825Y-82363205D02*
X60091968Y-82391776D01*
X60091968Y-82391776D02*
X60120540Y-82420348D01*
X60120540Y-82420348D02*
X60149111Y-82477491D01*
X60149111Y-82477491D02*
X60149111Y-82648919D01*
X60149111Y-82648919D02*
X60120540Y-82706062D01*
X60120540Y-82706062D02*
X60091968Y-82734634D01*
X60091968Y-82734634D02*
X60034825Y-82763205D01*
X60034825Y-82763205D02*
X59949111Y-82763205D01*
X60406254Y-82363205D02*
X60406254Y-82763205D01*
X60406254Y-82420348D02*
X60434825Y-82391776D01*
X60434825Y-82391776D02*
X60491968Y-82363205D01*
X60491968Y-82363205D02*
X60577682Y-82363205D01*
X60577682Y-82363205D02*
X60634825Y-82391776D01*
X60634825Y-82391776D02*
X60663397Y-82448919D01*
X60663397Y-82448919D02*
X60663397Y-82763205D01*
X61034825Y-82763205D02*
X60977682Y-82734634D01*
X60977682Y-82734634D02*
X60949111Y-82706062D01*
X60949111Y-82706062D02*
X60920539Y-82648919D01*
X60920539Y-82648919D02*
X60920539Y-82477491D01*
X60920539Y-82477491D02*
X60949111Y-82420348D01*
X60949111Y-82420348D02*
X60977682Y-82391776D01*
X60977682Y-82391776D02*
X61034825Y-82363205D01*
X61034825Y-82363205D02*
X61120539Y-82363205D01*
X61120539Y-82363205D02*
X61177682Y-82391776D01*
X61177682Y-82391776D02*
X61206254Y-82420348D01*
X61206254Y-82420348D02*
X61234825Y-82477491D01*
X61234825Y-82477491D02*
X61234825Y-82648919D01*
X61234825Y-82648919D02*
X61206254Y-82706062D01*
X61206254Y-82706062D02*
X61177682Y-82734634D01*
X61177682Y-82734634D02*
X61120539Y-82763205D01*
X61120539Y-82763205D02*
X61034825Y-82763205D01*
X61491968Y-82763205D02*
X61491968Y-82363205D01*
X61491968Y-82420348D02*
X61520539Y-82391776D01*
X61520539Y-82391776D02*
X61577682Y-82363205D01*
X61577682Y-82363205D02*
X61663396Y-82363205D01*
X61663396Y-82363205D02*
X61720539Y-82391776D01*
X61720539Y-82391776D02*
X61749111Y-82448919D01*
X61749111Y-82448919D02*
X61749111Y-82763205D01*
X61749111Y-82448919D02*
X61777682Y-82391776D01*
X61777682Y-82391776D02*
X61834825Y-82363205D01*
X61834825Y-82363205D02*
X61920539Y-82363205D01*
X61920539Y-82363205D02*
X61977682Y-82391776D01*
X61977682Y-82391776D02*
X62006253Y-82448919D01*
X62006253Y-82448919D02*
X62006253Y-82763205D01*
X62377682Y-82763205D02*
X62320539Y-82734634D01*
X62320539Y-82734634D02*
X62291968Y-82706062D01*
X62291968Y-82706062D02*
X62263396Y-82648919D01*
X62263396Y-82648919D02*
X62263396Y-82477491D01*
X62263396Y-82477491D02*
X62291968Y-82420348D01*
X62291968Y-82420348D02*
X62320539Y-82391776D01*
X62320539Y-82391776D02*
X62377682Y-82363205D01*
X62377682Y-82363205D02*
X62463396Y-82363205D01*
X62463396Y-82363205D02*
X62520539Y-82391776D01*
X62520539Y-82391776D02*
X62549111Y-82420348D01*
X62549111Y-82420348D02*
X62577682Y-82477491D01*
X62577682Y-82477491D02*
X62577682Y-82648919D01*
X62577682Y-82648919D02*
X62549111Y-82706062D01*
X62549111Y-82706062D02*
X62520539Y-82734634D01*
X62520539Y-82734634D02*
X62463396Y-82763205D01*
X62463396Y-82763205D02*
X62377682Y-82763205D01*
X63091968Y-82363205D02*
X63091968Y-82763205D01*
X62834825Y-82363205D02*
X62834825Y-82677491D01*
X62834825Y-82677491D02*
X62863396Y-82734634D01*
X62863396Y-82734634D02*
X62920539Y-82763205D01*
X62920539Y-82763205D02*
X63006253Y-82763205D01*
X63006253Y-82763205D02*
X63063396Y-82734634D01*
X63063396Y-82734634D02*
X63091968Y-82706062D01*
X63349110Y-82734634D02*
X63406253Y-82763205D01*
X63406253Y-82763205D02*
X63520539Y-82763205D01*
X63520539Y-82763205D02*
X63577682Y-82734634D01*
X63577682Y-82734634D02*
X63606253Y-82677491D01*
X63606253Y-82677491D02*
X63606253Y-82648919D01*
X63606253Y-82648919D02*
X63577682Y-82591776D01*
X63577682Y-82591776D02*
X63520539Y-82563205D01*
X63520539Y-82563205D02*
X63434825Y-82563205D01*
X63434825Y-82563205D02*
X63377682Y-82534634D01*
X63377682Y-82534634D02*
X63349110Y-82477491D01*
X63349110Y-82477491D02*
X63349110Y-82448919D01*
X63349110Y-82448919D02*
X63377682Y-82391776D01*
X63377682Y-82391776D02*
X63434825Y-82363205D01*
X63434825Y-82363205D02*
X63520539Y-82363205D01*
X63520539Y-82363205D02*
X63577682Y-82391776D01*
X55049111Y-83729171D02*
X55049111Y-83129171D01*
X55049111Y-83129171D02*
X55249111Y-83557742D01*
X55249111Y-83557742D02*
X55449111Y-83129171D01*
X55449111Y-83129171D02*
X55449111Y-83729171D01*
X55734825Y-83729171D02*
X55734825Y-83329171D01*
X55734825Y-83129171D02*
X55706253Y-83157742D01*
X55706253Y-83157742D02*
X55734825Y-83186314D01*
X55734825Y-83186314D02*
X55763396Y-83157742D01*
X55763396Y-83157742D02*
X55734825Y-83129171D01*
X55734825Y-83129171D02*
X55734825Y-83186314D01*
X56277682Y-83700600D02*
X56220539Y-83729171D01*
X56220539Y-83729171D02*
X56106253Y-83729171D01*
X56106253Y-83729171D02*
X56049110Y-83700600D01*
X56049110Y-83700600D02*
X56020539Y-83672028D01*
X56020539Y-83672028D02*
X55991967Y-83614885D01*
X55991967Y-83614885D02*
X55991967Y-83443457D01*
X55991967Y-83443457D02*
X56020539Y-83386314D01*
X56020539Y-83386314D02*
X56049110Y-83357742D01*
X56049110Y-83357742D02*
X56106253Y-83329171D01*
X56106253Y-83329171D02*
X56220539Y-83329171D01*
X56220539Y-83329171D02*
X56277682Y-83357742D01*
X56534825Y-83729171D02*
X56534825Y-83329171D01*
X56534825Y-83443457D02*
X56563396Y-83386314D01*
X56563396Y-83386314D02*
X56591968Y-83357742D01*
X56591968Y-83357742D02*
X56649110Y-83329171D01*
X56649110Y-83329171D02*
X56706253Y-83329171D01*
X56991968Y-83729171D02*
X56934825Y-83700600D01*
X56934825Y-83700600D02*
X56906254Y-83672028D01*
X56906254Y-83672028D02*
X56877682Y-83614885D01*
X56877682Y-83614885D02*
X56877682Y-83443457D01*
X56877682Y-83443457D02*
X56906254Y-83386314D01*
X56906254Y-83386314D02*
X56934825Y-83357742D01*
X56934825Y-83357742D02*
X56991968Y-83329171D01*
X56991968Y-83329171D02*
X57077682Y-83329171D01*
X57077682Y-83329171D02*
X57134825Y-83357742D01*
X57134825Y-83357742D02*
X57163397Y-83386314D01*
X57163397Y-83386314D02*
X57191968Y-83443457D01*
X57191968Y-83443457D02*
X57191968Y-83614885D01*
X57191968Y-83614885D02*
X57163397Y-83672028D01*
X57163397Y-83672028D02*
X57134825Y-83700600D01*
X57134825Y-83700600D02*
X57077682Y-83729171D01*
X57077682Y-83729171D02*
X56991968Y-83729171D01*
X57420539Y-83700600D02*
X57477682Y-83729171D01*
X57477682Y-83729171D02*
X57591968Y-83729171D01*
X57591968Y-83729171D02*
X57649111Y-83700600D01*
X57649111Y-83700600D02*
X57677682Y-83643457D01*
X57677682Y-83643457D02*
X57677682Y-83614885D01*
X57677682Y-83614885D02*
X57649111Y-83557742D01*
X57649111Y-83557742D02*
X57591968Y-83529171D01*
X57591968Y-83529171D02*
X57506254Y-83529171D01*
X57506254Y-83529171D02*
X57449111Y-83500600D01*
X57449111Y-83500600D02*
X57420539Y-83443457D01*
X57420539Y-83443457D02*
X57420539Y-83414885D01*
X57420539Y-83414885D02*
X57449111Y-83357742D01*
X57449111Y-83357742D02*
X57506254Y-83329171D01*
X57506254Y-83329171D02*
X57591968Y-83329171D01*
X57591968Y-83329171D02*
X57649111Y-83357742D01*
X57877682Y-83329171D02*
X58020539Y-83729171D01*
X58163396Y-83329171D02*
X58020539Y-83729171D01*
X58020539Y-83729171D02*
X57963396Y-83872028D01*
X57963396Y-83872028D02*
X57934825Y-83900600D01*
X57934825Y-83900600D02*
X57877682Y-83929171D01*
X58363396Y-83700600D02*
X58420539Y-83729171D01*
X58420539Y-83729171D02*
X58534825Y-83729171D01*
X58534825Y-83729171D02*
X58591968Y-83700600D01*
X58591968Y-83700600D02*
X58620539Y-83643457D01*
X58620539Y-83643457D02*
X58620539Y-83614885D01*
X58620539Y-83614885D02*
X58591968Y-83557742D01*
X58591968Y-83557742D02*
X58534825Y-83529171D01*
X58534825Y-83529171D02*
X58449111Y-83529171D01*
X58449111Y-83529171D02*
X58391968Y-83500600D01*
X58391968Y-83500600D02*
X58363396Y-83443457D01*
X58363396Y-83443457D02*
X58363396Y-83414885D01*
X58363396Y-83414885D02*
X58391968Y-83357742D01*
X58391968Y-83357742D02*
X58449111Y-83329171D01*
X58449111Y-83329171D02*
X58534825Y-83329171D01*
X58534825Y-83329171D02*
X58591968Y-83357742D01*
X58791967Y-83329171D02*
X59020539Y-83329171D01*
X58877682Y-83129171D02*
X58877682Y-83643457D01*
X58877682Y-83643457D02*
X58906253Y-83700600D01*
X58906253Y-83700600D02*
X58963396Y-83729171D01*
X58963396Y-83729171D02*
X59020539Y-83729171D01*
X59449110Y-83700600D02*
X59391967Y-83729171D01*
X59391967Y-83729171D02*
X59277682Y-83729171D01*
X59277682Y-83729171D02*
X59220539Y-83700600D01*
X59220539Y-83700600D02*
X59191967Y-83643457D01*
X59191967Y-83643457D02*
X59191967Y-83414885D01*
X59191967Y-83414885D02*
X59220539Y-83357742D01*
X59220539Y-83357742D02*
X59277682Y-83329171D01*
X59277682Y-83329171D02*
X59391967Y-83329171D01*
X59391967Y-83329171D02*
X59449110Y-83357742D01*
X59449110Y-83357742D02*
X59477682Y-83414885D01*
X59477682Y-83414885D02*
X59477682Y-83472028D01*
X59477682Y-83472028D02*
X59191967Y-83529171D01*
X59734825Y-83729171D02*
X59734825Y-83329171D01*
X59734825Y-83386314D02*
X59763396Y-83357742D01*
X59763396Y-83357742D02*
X59820539Y-83329171D01*
X59820539Y-83329171D02*
X59906253Y-83329171D01*
X59906253Y-83329171D02*
X59963396Y-83357742D01*
X59963396Y-83357742D02*
X59991968Y-83414885D01*
X59991968Y-83414885D02*
X59991968Y-83729171D01*
X59991968Y-83414885D02*
X60020539Y-83357742D01*
X60020539Y-83357742D02*
X60077682Y-83329171D01*
X60077682Y-83329171D02*
X60163396Y-83329171D01*
X60163396Y-83329171D02*
X60220539Y-83357742D01*
X60220539Y-83357742D02*
X60249110Y-83414885D01*
X60249110Y-83414885D02*
X60249110Y-83729171D01*
X60506253Y-83700600D02*
X60563396Y-83729171D01*
X60563396Y-83729171D02*
X60677682Y-83729171D01*
X60677682Y-83729171D02*
X60734825Y-83700600D01*
X60734825Y-83700600D02*
X60763396Y-83643457D01*
X60763396Y-83643457D02*
X60763396Y-83614885D01*
X60763396Y-83614885D02*
X60734825Y-83557742D01*
X60734825Y-83557742D02*
X60677682Y-83529171D01*
X60677682Y-83529171D02*
X60591968Y-83529171D01*
X60591968Y-83529171D02*
X60534825Y-83500600D01*
X60534825Y-83500600D02*
X60506253Y-83443457D01*
X60506253Y-83443457D02*
X60506253Y-83414885D01*
X60506253Y-83414885D02*
X60534825Y-83357742D01*
X60534825Y-83357742D02*
X60591968Y-83329171D01*
X60591968Y-83329171D02*
X60677682Y-83329171D01*
X60677682Y-83329171D02*
X60734825Y-83357742D01*
X61763396Y-83729171D02*
X61477682Y-83729171D01*
X61477682Y-83729171D02*
X61477682Y-83129171D01*
X62220539Y-83729171D02*
X62220539Y-83414885D01*
X62220539Y-83414885D02*
X62191967Y-83357742D01*
X62191967Y-83357742D02*
X62134824Y-83329171D01*
X62134824Y-83329171D02*
X62020539Y-83329171D01*
X62020539Y-83329171D02*
X61963396Y-83357742D01*
X62220539Y-83700600D02*
X62163396Y-83729171D01*
X62163396Y-83729171D02*
X62020539Y-83729171D01*
X62020539Y-83729171D02*
X61963396Y-83700600D01*
X61963396Y-83700600D02*
X61934824Y-83643457D01*
X61934824Y-83643457D02*
X61934824Y-83586314D01*
X61934824Y-83586314D02*
X61963396Y-83529171D01*
X61963396Y-83529171D02*
X62020539Y-83500600D01*
X62020539Y-83500600D02*
X62163396Y-83500600D01*
X62163396Y-83500600D02*
X62220539Y-83472028D01*
X62506253Y-83729171D02*
X62506253Y-83129171D01*
X62506253Y-83357742D02*
X62563396Y-83329171D01*
X62563396Y-83329171D02*
X62677681Y-83329171D01*
X62677681Y-83329171D02*
X62734824Y-83357742D01*
X62734824Y-83357742D02*
X62763396Y-83386314D01*
X62763396Y-83386314D02*
X62791967Y-83443457D01*
X62791967Y-83443457D02*
X62791967Y-83614885D01*
X62791967Y-83614885D02*
X62763396Y-83672028D01*
X62763396Y-83672028D02*
X62734824Y-83700600D01*
X62734824Y-83700600D02*
X62677681Y-83729171D01*
X62677681Y-83729171D02*
X62563396Y-83729171D01*
X62563396Y-83729171D02*
X62506253Y-83700600D01*
X44026409Y-88419967D02*
X44026409Y-87819967D01*
X44312123Y-88419967D02*
X44312123Y-87819967D01*
X44312123Y-87819967D02*
X44654980Y-88419967D01*
X44654980Y-88419967D02*
X44654980Y-87819967D01*
X44883551Y-87819967D02*
X45254979Y-87819967D01*
X45254979Y-87819967D02*
X45054979Y-88048538D01*
X45054979Y-88048538D02*
X45140694Y-88048538D01*
X45140694Y-88048538D02*
X45197837Y-88077110D01*
X45197837Y-88077110D02*
X45226408Y-88105681D01*
X45226408Y-88105681D02*
X45254979Y-88162824D01*
X45254979Y-88162824D02*
X45254979Y-88305681D01*
X45254979Y-88305681D02*
X45226408Y-88362824D01*
X45226408Y-88362824D02*
X45197837Y-88391396D01*
X45197837Y-88391396D02*
X45140694Y-88419967D01*
X45140694Y-88419967D02*
X44969265Y-88419967D01*
X44969265Y-88419967D02*
X44912122Y-88391396D01*
X44912122Y-88391396D02*
X44883551Y-88362824D01*
D12*
X57638095Y-75554819D02*
X57638095Y-76364342D01*
X57638095Y-76364342D02*
X57685714Y-76459580D01*
X57685714Y-76459580D02*
X57733333Y-76507200D01*
X57733333Y-76507200D02*
X57828571Y-76554819D01*
X57828571Y-76554819D02*
X58019047Y-76554819D01*
X58019047Y-76554819D02*
X58114285Y-76507200D01*
X58114285Y-76507200D02*
X58161904Y-76459580D01*
X58161904Y-76459580D02*
X58209523Y-76364342D01*
X58209523Y-76364342D02*
X58209523Y-75554819D01*
X59209523Y-76554819D02*
X58638095Y-76554819D01*
X58923809Y-76554819D02*
X58923809Y-75554819D01*
X58923809Y-75554819D02*
X58828571Y-75697676D01*
X58828571Y-75697676D02*
X58733333Y-75792914D01*
X58733333Y-75792914D02*
X58638095Y-75840533D01*
D14*
%TO.C,J20*%
X54800000Y-99330000D02*
X54800000Y-98000000D01*
X56130000Y-99330000D02*
X54800000Y-99330000D01*
X57400000Y-99330000D02*
X65080000Y-99330000D01*
X57400000Y-99330000D02*
X57400000Y-96670000D01*
X65080000Y-99330000D02*
X65080000Y-96670000D01*
X57400000Y-96670000D02*
X65080000Y-96670000D01*
%TO.C,J4*%
X40670000Y-45670000D02*
X42000000Y-45670000D01*
X40670000Y-47000000D02*
X40670000Y-45670000D01*
X43270000Y-45670000D02*
X48410000Y-45670000D01*
X43270000Y-48330000D02*
X43270000Y-45670000D01*
X43270000Y-48330000D02*
X48410000Y-48330000D01*
X48410000Y-48330000D02*
X48410000Y-45670000D01*
%TO.C,J18*%
X71620000Y-84670000D02*
X72950000Y-84670000D01*
X71620000Y-86000000D02*
X71620000Y-84670000D01*
X74220000Y-84670000D02*
X79360000Y-84670000D01*
X74220000Y-87330000D02*
X74220000Y-84670000D01*
X74220000Y-87330000D02*
X79360000Y-87330000D01*
X79360000Y-87330000D02*
X79360000Y-84670000D01*
%TO.C,J11*%
X40670000Y-92670000D02*
X42000000Y-92670000D01*
X40670000Y-94000000D02*
X40670000Y-92670000D01*
X43270000Y-92670000D02*
X48410000Y-92670000D01*
X43270000Y-95330000D02*
X43270000Y-92670000D01*
X43270000Y-95330000D02*
X48410000Y-95330000D01*
X48410000Y-95330000D02*
X48410000Y-92670000D01*
%TO.C,J19*%
X71620000Y-92670000D02*
X72950000Y-92670000D01*
X71620000Y-94000000D02*
X71620000Y-92670000D01*
X74220000Y-92670000D02*
X79360000Y-92670000D01*
X74220000Y-95330000D02*
X74220000Y-92670000D01*
X74220000Y-95330000D02*
X79360000Y-95330000D01*
X79360000Y-95330000D02*
X79360000Y-92670000D01*
%TO.C,J2*%
X45050000Y-43330000D02*
X45050000Y-42000000D01*
X46380000Y-43330000D02*
X45050000Y-43330000D01*
X47650000Y-40670000D02*
X55330000Y-40670000D01*
X47650000Y-43330000D02*
X47650000Y-40670000D01*
X47650000Y-43330000D02*
X55330000Y-43330000D01*
X55330000Y-43330000D02*
X55330000Y-40670000D01*
%TO.C,J10*%
X40670000Y-84670000D02*
X42000000Y-84670000D01*
X40670000Y-86000000D02*
X40670000Y-84670000D01*
X43270000Y-84670000D02*
X48410000Y-84670000D01*
X43270000Y-87330000D02*
X43270000Y-84670000D01*
X43270000Y-87330000D02*
X48410000Y-87330000D01*
X48410000Y-87330000D02*
X48410000Y-84670000D01*
%TO.C,J7*%
X40670000Y-66670000D02*
X42000000Y-66670000D01*
X40670000Y-68000000D02*
X40670000Y-66670000D01*
X43270000Y-66670000D02*
X48410000Y-66670000D01*
X43270000Y-69330000D02*
X43270000Y-66670000D01*
X43270000Y-69330000D02*
X48410000Y-69330000D01*
X48410000Y-69330000D02*
X48410000Y-66670000D01*
%TO.C,U1*%
X57615000Y-64740000D02*
X57615000Y-65020000D01*
X57615000Y-75260000D02*
X57615000Y-74980000D01*
X60000000Y-64740000D02*
X57615000Y-64740000D01*
X60000000Y-64740000D02*
X62385000Y-64740000D01*
X60000000Y-75260000D02*
X57615000Y-75260000D01*
X60000000Y-75260000D02*
X62385000Y-75260000D01*
X62385000Y-64740000D02*
X62385000Y-65020000D01*
X62385000Y-75260000D02*
X62385000Y-74980000D01*
X63402500Y-75310000D02*
X62922500Y-75310000D01*
X63162500Y-74980000D01*
X63402500Y-75310000D01*
G36*
X63402500Y-75310000D02*
G01*
X62922500Y-75310000D01*
X63162500Y-74980000D01*
X63402500Y-75310000D01*
G37*
%TO.C,J15*%
X71620000Y-66670000D02*
X72950000Y-66670000D01*
X71620000Y-68000000D02*
X71620000Y-66670000D01*
X74220000Y-66670000D02*
X79360000Y-66670000D01*
X74220000Y-69330000D02*
X74220000Y-66670000D01*
X74220000Y-69330000D02*
X79360000Y-69330000D01*
X79360000Y-69330000D02*
X79360000Y-66670000D01*
%TO.C,J12*%
X71620000Y-45670000D02*
X72950000Y-45670000D01*
X71620000Y-47000000D02*
X71620000Y-45670000D01*
X74220000Y-45670000D02*
X79360000Y-45670000D01*
X74220000Y-48330000D02*
X74220000Y-45670000D01*
X74220000Y-48330000D02*
X79360000Y-48330000D01*
X79360000Y-48330000D02*
X79360000Y-45670000D01*
%TO.C,J13*%
X71620000Y-53670000D02*
X72950000Y-53670000D01*
X71620000Y-55000000D02*
X71620000Y-53670000D01*
X74220000Y-53670000D02*
X79360000Y-53670000D01*
X74220000Y-56330000D02*
X74220000Y-53670000D01*
X74220000Y-56330000D02*
X79360000Y-56330000D01*
X79360000Y-56330000D02*
X79360000Y-53670000D01*
%TO.C,J3*%
X69590000Y-43330000D02*
X69590000Y-42000000D01*
X70920000Y-43330000D02*
X69590000Y-43330000D01*
X72190000Y-40670000D02*
X74790000Y-40670000D01*
X72190000Y-43330000D02*
X72190000Y-40670000D01*
X72190000Y-43330000D02*
X74790000Y-43330000D01*
X74790000Y-43330000D02*
X74790000Y-40670000D01*
%TO.C,J17*%
X71620000Y-79670000D02*
X72950000Y-79670000D01*
X71620000Y-81000000D02*
X71620000Y-79670000D01*
X74220000Y-79670000D02*
X79360000Y-79670000D01*
X74220000Y-82330000D02*
X74220000Y-79670000D01*
X74220000Y-82330000D02*
X79360000Y-82330000D01*
X79360000Y-82330000D02*
X79360000Y-79670000D01*
%TO.C,J14*%
X71620000Y-58670000D02*
X72950000Y-58670000D01*
X71620000Y-60000000D02*
X71620000Y-58670000D01*
X74220000Y-58670000D02*
X79360000Y-58670000D01*
X74220000Y-61330000D02*
X74220000Y-58670000D01*
X74220000Y-61330000D02*
X79360000Y-61330000D01*
X79360000Y-61330000D02*
X79360000Y-58670000D01*
%TO.C,J8*%
X40670000Y-71670000D02*
X42000000Y-71670000D01*
X40670000Y-73000000D02*
X40670000Y-71670000D01*
X43270000Y-71670000D02*
X48410000Y-71670000D01*
X43270000Y-74330000D02*
X43270000Y-71670000D01*
X43270000Y-74330000D02*
X48410000Y-74330000D01*
X48410000Y-74330000D02*
X48410000Y-71670000D01*
%TO.C,J16*%
X71620000Y-71670000D02*
X72950000Y-71670000D01*
X71620000Y-73000000D02*
X71620000Y-71670000D01*
X74220000Y-71670000D02*
X79360000Y-71670000D01*
X74220000Y-74330000D02*
X74220000Y-71670000D01*
X74220000Y-74330000D02*
X79360000Y-74330000D01*
X79360000Y-74330000D02*
X79360000Y-71670000D01*
%TO.C,J9*%
X40670000Y-79670000D02*
X42000000Y-79670000D01*
X40670000Y-81000000D02*
X40670000Y-79670000D01*
X43270000Y-79670000D02*
X48410000Y-79670000D01*
X43270000Y-82330000D02*
X43270000Y-79670000D01*
X43270000Y-82330000D02*
X48410000Y-82330000D01*
X48410000Y-82330000D02*
X48410000Y-79670000D01*
%TO.C,J6*%
X40670000Y-58670000D02*
X42000000Y-58670000D01*
X40670000Y-60000000D02*
X40670000Y-58670000D01*
X43270000Y-58670000D02*
X48410000Y-58670000D01*
X43270000Y-61330000D02*
X43270000Y-58670000D01*
X43270000Y-61330000D02*
X48410000Y-61330000D01*
X48410000Y-61330000D02*
X48410000Y-58670000D01*
%TO.C,J1*%
X60050000Y-40670000D02*
X61380000Y-40670000D01*
X60050000Y-42000000D02*
X60050000Y-40670000D01*
X60050000Y-43270000D02*
X60050000Y-45870000D01*
X60050000Y-43270000D02*
X62650000Y-43270000D01*
X60050000Y-45870000D02*
X65250000Y-45870000D01*
X62650000Y-40670000D02*
X65250000Y-40670000D01*
X62650000Y-43270000D02*
X62650000Y-40670000D01*
X65250000Y-40670000D02*
X65250000Y-45870000D01*
%TO.C,J5*%
X40670000Y-53670000D02*
X42000000Y-53670000D01*
X40670000Y-55000000D02*
X40670000Y-53670000D01*
X43270000Y-53670000D02*
X48410000Y-53670000D01*
X43270000Y-56330000D02*
X43270000Y-53670000D01*
X43270000Y-56330000D02*
X48410000Y-56330000D01*
X48410000Y-56330000D02*
X48410000Y-53670000D01*
%TD*%
%LPC*%
D15*
%TO.C,J20*%
X56130000Y-98000000D03*
D16*
X58670000Y-98000000D03*
X61210000Y-98000000D03*
X63750000Y-98000000D03*
%TD*%
D15*
%TO.C,J4*%
X42000000Y-47000000D03*
D16*
X44540000Y-47000000D03*
X47080000Y-47000000D03*
%TD*%
D15*
%TO.C,J18*%
X72950000Y-86000000D03*
D16*
X75490000Y-86000000D03*
X78030000Y-86000000D03*
%TD*%
D15*
%TO.C,J11*%
X42000000Y-94000000D03*
D16*
X44540000Y-94000000D03*
X47080000Y-94000000D03*
%TD*%
D15*
%TO.C,J19*%
X72950000Y-94000000D03*
D16*
X75490000Y-94000000D03*
X78030000Y-94000000D03*
%TD*%
D15*
%TO.C,J2*%
X46380000Y-42000000D03*
D16*
X48920000Y-42000000D03*
X51460000Y-42000000D03*
X54000000Y-42000000D03*
%TD*%
D15*
%TO.C,J10*%
X42000000Y-86000000D03*
D16*
X44540000Y-86000000D03*
X47080000Y-86000000D03*
%TD*%
D15*
%TO.C,J7*%
X42000000Y-68000000D03*
D16*
X44540000Y-68000000D03*
X47080000Y-68000000D03*
%TD*%
D17*
%TO.C,U1*%
X63250000Y-74445000D03*
X63250000Y-73175000D03*
X63250000Y-71905000D03*
X63250000Y-70635000D03*
X63250000Y-69365000D03*
X63250000Y-68095000D03*
X63250000Y-66825000D03*
X63250000Y-65555000D03*
X56750000Y-65555000D03*
X56750000Y-66825000D03*
X56750000Y-68095000D03*
X56750000Y-69365000D03*
X56750000Y-70635000D03*
X56750000Y-71905000D03*
X56750000Y-73175000D03*
X56750000Y-74445000D03*
%TD*%
D15*
%TO.C,J15*%
X72950000Y-68000000D03*
D16*
X75490000Y-68000000D03*
X78030000Y-68000000D03*
%TD*%
D15*
%TO.C,J12*%
X72950000Y-47000000D03*
D16*
X75490000Y-47000000D03*
X78030000Y-47000000D03*
%TD*%
D15*
%TO.C,J13*%
X72950000Y-55000000D03*
D16*
X75490000Y-55000000D03*
X78030000Y-55000000D03*
%TD*%
D15*
%TO.C,J3*%
X70920000Y-42000000D03*
D16*
X73460000Y-42000000D03*
%TD*%
D15*
%TO.C,J17*%
X72950000Y-81000000D03*
D16*
X75490000Y-81000000D03*
X78030000Y-81000000D03*
%TD*%
D15*
%TO.C,J14*%
X72950000Y-60000000D03*
D16*
X75490000Y-60000000D03*
X78030000Y-60000000D03*
%TD*%
D15*
%TO.C,J8*%
X42000000Y-73000000D03*
D16*
X44540000Y-73000000D03*
X47080000Y-73000000D03*
%TD*%
D15*
%TO.C,J16*%
X72950000Y-73000000D03*
D16*
X75490000Y-73000000D03*
X78030000Y-73000000D03*
%TD*%
D15*
%TO.C,J9*%
X42000000Y-81000000D03*
D16*
X44540000Y-81000000D03*
X47080000Y-81000000D03*
%TD*%
D15*
%TO.C,J6*%
X42000000Y-60000000D03*
D16*
X44540000Y-60000000D03*
X47080000Y-60000000D03*
%TD*%
D15*
%TO.C,J1*%
X61380000Y-42000000D03*
D16*
X63920000Y-42000000D03*
X61380000Y-44540000D03*
X63920000Y-44540000D03*
%TD*%
D15*
%TO.C,J5*%
X42000000Y-55000000D03*
D16*
X44540000Y-55000000D03*
X47080000Y-55000000D03*
%TD*%
%LPD*%
M02*
