%TF.GenerationSoftware,KiCad,Pcbnew,8.0.3*%
%TF.CreationDate,2024-06-28T14:01:33-07:00*%
%TF.ProjectId,smartstake-mux-breakout,736d6172-7473-4746-916b-652d6d75782d,rev?*%
%TF.SameCoordinates,Original*%
%TF.FileFunction,Legend,Bot*%
%TF.FilePolarity,Positive*%
%FSLAX46Y46*%
G04 Gerber Fmt 4.6, Leading zero omitted, Abs format (unit mm)*
G04 Created by KiCad (PCBNEW 8.0.3) date 2024-06-28 14:01:33*
%MOMM*%
%LPD*%
G01*
G04 APERTURE LIST*
G04 Aperture macros list*
%AMRoundRect*
0 Rectangle with rounded corners*
0 $1 Rounding radius*
0 $2 $3 $4 $5 $6 $7 $8 $9 X,Y pos of 4 corners*
0 Add a 4 corners polygon primitive as box body*
4,1,4,$2,$3,$4,$5,$6,$7,$8,$9,$2,$3,0*
0 Add four circle primitives for the rounded corners*
1,1,$1+$1,$2,$3*
1,1,$1+$1,$4,$5*
1,1,$1+$1,$6,$7*
1,1,$1+$1,$8,$9*
0 Add four rect primitives between the rounded corners*
20,1,$1+$1,$2,$3,$4,$5,0*
20,1,$1+$1,$4,$5,$6,$7,0*
20,1,$1+$1,$6,$7,$8,$9,0*
20,1,$1+$1,$8,$9,$2,$3,0*%
G04 Aperture macros list end*
%ADD10C,0.127000*%
%ADD11C,0.100000*%
%ADD12C,0.150000*%
%ADD13C,0.200000*%
%ADD14C,0.120000*%
%ADD15R,1.700000X1.700000*%
%ADD16O,1.700000X1.700000*%
%ADD17RoundRect,0.250000X-0.475000X0.250000X-0.475000X-0.250000X0.475000X-0.250000X0.475000X0.250000X0*%
G04 APERTURE END LIST*
D10*
X41973590Y-88219967D02*
X41973590Y-87619967D01*
X41687876Y-88219967D02*
X41687876Y-87619967D01*
X41687876Y-87619967D02*
X41345019Y-88219967D01*
X41345019Y-88219967D02*
X41345019Y-87619967D01*
X41116448Y-87619967D02*
X40745020Y-87619967D01*
X40745020Y-87619967D02*
X40945020Y-87848538D01*
X40945020Y-87848538D02*
X40859305Y-87848538D01*
X40859305Y-87848538D02*
X40802163Y-87877110D01*
X40802163Y-87877110D02*
X40773591Y-87905681D01*
X40773591Y-87905681D02*
X40745020Y-87962824D01*
X40745020Y-87962824D02*
X40745020Y-88105681D01*
X40745020Y-88105681D02*
X40773591Y-88162824D01*
X40773591Y-88162824D02*
X40802163Y-88191396D01*
X40802163Y-88191396D02*
X40859305Y-88219967D01*
X40859305Y-88219967D02*
X41030734Y-88219967D01*
X41030734Y-88219967D02*
X41087877Y-88191396D01*
X41087877Y-88191396D02*
X41116448Y-88162824D01*
X44973590Y-88219967D02*
X44973590Y-87619967D01*
X44687876Y-88219967D02*
X44687876Y-87619967D01*
X44687876Y-87619967D02*
X44345019Y-88219967D01*
X44345019Y-88219967D02*
X44345019Y-87619967D01*
X44116448Y-87619967D02*
X43745020Y-87619967D01*
X43745020Y-87619967D02*
X43945020Y-87848538D01*
X43945020Y-87848538D02*
X43859305Y-87848538D01*
X43859305Y-87848538D02*
X43802163Y-87877110D01*
X43802163Y-87877110D02*
X43773591Y-87905681D01*
X43773591Y-87905681D02*
X43745020Y-87962824D01*
X43745020Y-87962824D02*
X43745020Y-88105681D01*
X43745020Y-88105681D02*
X43773591Y-88162824D01*
X43773591Y-88162824D02*
X43802163Y-88191396D01*
X43802163Y-88191396D02*
X43859305Y-88219967D01*
X43859305Y-88219967D02*
X44030734Y-88219967D01*
X44030734Y-88219967D02*
X44087877Y-88191396D01*
X44087877Y-88191396D02*
X44116448Y-88162824D01*
X47973590Y-88219967D02*
X47973590Y-87619967D01*
X47687876Y-88219967D02*
X47687876Y-87619967D01*
X47687876Y-87619967D02*
X47345019Y-88219967D01*
X47345019Y-88219967D02*
X47345019Y-87619967D01*
X47116448Y-87619967D02*
X46745020Y-87619967D01*
X46745020Y-87619967D02*
X46945020Y-87848538D01*
X46945020Y-87848538D02*
X46859305Y-87848538D01*
X46859305Y-87848538D02*
X46802163Y-87877110D01*
X46802163Y-87877110D02*
X46773591Y-87905681D01*
X46773591Y-87905681D02*
X46745020Y-87962824D01*
X46745020Y-87962824D02*
X46745020Y-88105681D01*
X46745020Y-88105681D02*
X46773591Y-88162824D01*
X46773591Y-88162824D02*
X46802163Y-88191396D01*
X46802163Y-88191396D02*
X46859305Y-88219967D01*
X46859305Y-88219967D02*
X47030734Y-88219967D01*
X47030734Y-88219967D02*
X47087877Y-88191396D01*
X47087877Y-88191396D02*
X47116448Y-88162824D01*
X41973590Y-75219967D02*
X41973590Y-74619967D01*
X41687876Y-75219967D02*
X41687876Y-74619967D01*
X41687876Y-74619967D02*
X41345019Y-75219967D01*
X41345019Y-75219967D02*
X41345019Y-74619967D01*
X41087877Y-74677110D02*
X41059305Y-74648538D01*
X41059305Y-74648538D02*
X41002163Y-74619967D01*
X41002163Y-74619967D02*
X40859305Y-74619967D01*
X40859305Y-74619967D02*
X40802163Y-74648538D01*
X40802163Y-74648538D02*
X40773591Y-74677110D01*
X40773591Y-74677110D02*
X40745020Y-74734253D01*
X40745020Y-74734253D02*
X40745020Y-74791396D01*
X40745020Y-74791396D02*
X40773591Y-74877110D01*
X40773591Y-74877110D02*
X41116448Y-75219967D01*
X41116448Y-75219967D02*
X40745020Y-75219967D01*
X44973590Y-75219967D02*
X44973590Y-74619967D01*
X44687876Y-75219967D02*
X44687876Y-74619967D01*
X44687876Y-74619967D02*
X44345019Y-75219967D01*
X44345019Y-75219967D02*
X44345019Y-74619967D01*
X44087877Y-74677110D02*
X44059305Y-74648538D01*
X44059305Y-74648538D02*
X44002163Y-74619967D01*
X44002163Y-74619967D02*
X43859305Y-74619967D01*
X43859305Y-74619967D02*
X43802163Y-74648538D01*
X43802163Y-74648538D02*
X43773591Y-74677110D01*
X43773591Y-74677110D02*
X43745020Y-74734253D01*
X43745020Y-74734253D02*
X43745020Y-74791396D01*
X43745020Y-74791396D02*
X43773591Y-74877110D01*
X43773591Y-74877110D02*
X44116448Y-75219967D01*
X44116448Y-75219967D02*
X43745020Y-75219967D01*
X47973590Y-75219967D02*
X47973590Y-74619967D01*
X47687876Y-75219967D02*
X47687876Y-74619967D01*
X47687876Y-74619967D02*
X47345019Y-75219967D01*
X47345019Y-75219967D02*
X47345019Y-74619967D01*
X47087877Y-74677110D02*
X47059305Y-74648538D01*
X47059305Y-74648538D02*
X47002163Y-74619967D01*
X47002163Y-74619967D02*
X46859305Y-74619967D01*
X46859305Y-74619967D02*
X46802163Y-74648538D01*
X46802163Y-74648538D02*
X46773591Y-74677110D01*
X46773591Y-74677110D02*
X46745020Y-74734253D01*
X46745020Y-74734253D02*
X46745020Y-74791396D01*
X46745020Y-74791396D02*
X46773591Y-74877110D01*
X46773591Y-74877110D02*
X47116448Y-75219967D01*
X47116448Y-75219967D02*
X46745020Y-75219967D01*
X47973590Y-62219967D02*
X47973590Y-61619967D01*
X47687876Y-62219967D02*
X47687876Y-61619967D01*
X47687876Y-61619967D02*
X47345019Y-62219967D01*
X47345019Y-62219967D02*
X47345019Y-61619967D01*
X46745020Y-62219967D02*
X47087877Y-62219967D01*
X46916448Y-62219967D02*
X46916448Y-61619967D01*
X46916448Y-61619967D02*
X46973591Y-61705681D01*
X46973591Y-61705681D02*
X47030734Y-61762824D01*
X47030734Y-61762824D02*
X47087877Y-61791396D01*
X44973590Y-62219967D02*
X44973590Y-61619967D01*
X44687876Y-62219967D02*
X44687876Y-61619967D01*
X44687876Y-61619967D02*
X44345019Y-62219967D01*
X44345019Y-62219967D02*
X44345019Y-61619967D01*
X43745020Y-62219967D02*
X44087877Y-62219967D01*
X43916448Y-62219967D02*
X43916448Y-61619967D01*
X43916448Y-61619967D02*
X43973591Y-61705681D01*
X43973591Y-61705681D02*
X44030734Y-61762824D01*
X44030734Y-61762824D02*
X44087877Y-61791396D01*
X41973590Y-62219967D02*
X41973590Y-61619967D01*
X41687876Y-62219967D02*
X41687876Y-61619967D01*
X41687876Y-61619967D02*
X41345019Y-62219967D01*
X41345019Y-62219967D02*
X41345019Y-61619967D01*
X40745020Y-62219967D02*
X41087877Y-62219967D01*
X40916448Y-62219967D02*
X40916448Y-61619967D01*
X40916448Y-61619967D02*
X40973591Y-61705681D01*
X40973591Y-61705681D02*
X41030734Y-61762824D01*
X41030734Y-61762824D02*
X41087877Y-61791396D01*
X47973590Y-49219967D02*
X47973590Y-48619967D01*
X47687876Y-49219967D02*
X47687876Y-48619967D01*
X47687876Y-48619967D02*
X47345019Y-49219967D01*
X47345019Y-49219967D02*
X47345019Y-48619967D01*
X46945020Y-48619967D02*
X46887877Y-48619967D01*
X46887877Y-48619967D02*
X46830734Y-48648538D01*
X46830734Y-48648538D02*
X46802163Y-48677110D01*
X46802163Y-48677110D02*
X46773591Y-48734253D01*
X46773591Y-48734253D02*
X46745020Y-48848538D01*
X46745020Y-48848538D02*
X46745020Y-48991396D01*
X46745020Y-48991396D02*
X46773591Y-49105681D01*
X46773591Y-49105681D02*
X46802163Y-49162824D01*
X46802163Y-49162824D02*
X46830734Y-49191396D01*
X46830734Y-49191396D02*
X46887877Y-49219967D01*
X46887877Y-49219967D02*
X46945020Y-49219967D01*
X46945020Y-49219967D02*
X47002163Y-49191396D01*
X47002163Y-49191396D02*
X47030734Y-49162824D01*
X47030734Y-49162824D02*
X47059305Y-49105681D01*
X47059305Y-49105681D02*
X47087877Y-48991396D01*
X47087877Y-48991396D02*
X47087877Y-48848538D01*
X47087877Y-48848538D02*
X47059305Y-48734253D01*
X47059305Y-48734253D02*
X47030734Y-48677110D01*
X47030734Y-48677110D02*
X47002163Y-48648538D01*
X47002163Y-48648538D02*
X46945020Y-48619967D01*
X45020304Y-49219967D02*
X45020304Y-48619967D01*
X44734590Y-49219967D02*
X44734590Y-48619967D01*
X44734590Y-48619967D02*
X44391733Y-49219967D01*
X44391733Y-49219967D02*
X44391733Y-48619967D01*
X43991734Y-48619967D02*
X43934591Y-48619967D01*
X43934591Y-48619967D02*
X43877448Y-48648538D01*
X43877448Y-48648538D02*
X43848877Y-48677110D01*
X43848877Y-48677110D02*
X43820305Y-48734253D01*
X43820305Y-48734253D02*
X43791734Y-48848538D01*
X43791734Y-48848538D02*
X43791734Y-48991396D01*
X43791734Y-48991396D02*
X43820305Y-49105681D01*
X43820305Y-49105681D02*
X43848877Y-49162824D01*
X43848877Y-49162824D02*
X43877448Y-49191396D01*
X43877448Y-49191396D02*
X43934591Y-49219967D01*
X43934591Y-49219967D02*
X43991734Y-49219967D01*
X43991734Y-49219967D02*
X44048877Y-49191396D01*
X44048877Y-49191396D02*
X44077448Y-49162824D01*
X44077448Y-49162824D02*
X44106019Y-49105681D01*
X44106019Y-49105681D02*
X44134591Y-48991396D01*
X44134591Y-48991396D02*
X44134591Y-48848538D01*
X44134591Y-48848538D02*
X44106019Y-48734253D01*
X44106019Y-48734253D02*
X44077448Y-48677110D01*
X44077448Y-48677110D02*
X44048877Y-48648538D01*
X44048877Y-48648538D02*
X43991734Y-48619967D01*
X41973590Y-49219967D02*
X41973590Y-48619967D01*
X41687876Y-49219967D02*
X41687876Y-48619967D01*
X41687876Y-48619967D02*
X41345019Y-49219967D01*
X41345019Y-49219967D02*
X41345019Y-48619967D01*
X40945020Y-48619967D02*
X40887877Y-48619967D01*
X40887877Y-48619967D02*
X40830734Y-48648538D01*
X40830734Y-48648538D02*
X40802163Y-48677110D01*
X40802163Y-48677110D02*
X40773591Y-48734253D01*
X40773591Y-48734253D02*
X40745020Y-48848538D01*
X40745020Y-48848538D02*
X40745020Y-48991396D01*
X40745020Y-48991396D02*
X40773591Y-49105681D01*
X40773591Y-49105681D02*
X40802163Y-49162824D01*
X40802163Y-49162824D02*
X40830734Y-49191396D01*
X40830734Y-49191396D02*
X40887877Y-49219967D01*
X40887877Y-49219967D02*
X40945020Y-49219967D01*
X40945020Y-49219967D02*
X41002163Y-49191396D01*
X41002163Y-49191396D02*
X41030734Y-49162824D01*
X41030734Y-49162824D02*
X41059305Y-49105681D01*
X41059305Y-49105681D02*
X41087877Y-48991396D01*
X41087877Y-48991396D02*
X41087877Y-48848538D01*
X41087877Y-48848538D02*
X41059305Y-48734253D01*
X41059305Y-48734253D02*
X41030734Y-48677110D01*
X41030734Y-48677110D02*
X41002163Y-48648538D01*
X41002163Y-48648538D02*
X40945020Y-48619967D01*
X78973590Y-88219967D02*
X78973590Y-87619967D01*
X78687876Y-88219967D02*
X78687876Y-87619967D01*
X78687876Y-87619967D02*
X78345019Y-88219967D01*
X78345019Y-88219967D02*
X78345019Y-87619967D01*
X78116448Y-87619967D02*
X77716448Y-87619967D01*
X77716448Y-87619967D02*
X77973591Y-88219967D01*
X75920304Y-88219967D02*
X75920304Y-87619967D01*
X75634590Y-88219967D02*
X75634590Y-87619967D01*
X75634590Y-87619967D02*
X75291733Y-88219967D01*
X75291733Y-88219967D02*
X75291733Y-87619967D01*
X75063162Y-87619967D02*
X74663162Y-87619967D01*
X74663162Y-87619967D02*
X74920305Y-88219967D01*
X72973590Y-88219967D02*
X72973590Y-87619967D01*
X72687876Y-88219967D02*
X72687876Y-87619967D01*
X72687876Y-87619967D02*
X72345019Y-88219967D01*
X72345019Y-88219967D02*
X72345019Y-87619967D01*
X72116448Y-87619967D02*
X71716448Y-87619967D01*
X71716448Y-87619967D02*
X71973591Y-88219967D01*
X78973590Y-75219967D02*
X78973590Y-74619967D01*
X78687876Y-75219967D02*
X78687876Y-74619967D01*
X78687876Y-74619967D02*
X78345019Y-75219967D01*
X78345019Y-75219967D02*
X78345019Y-74619967D01*
X77802163Y-74619967D02*
X77916448Y-74619967D01*
X77916448Y-74619967D02*
X77973591Y-74648538D01*
X77973591Y-74648538D02*
X78002163Y-74677110D01*
X78002163Y-74677110D02*
X78059305Y-74762824D01*
X78059305Y-74762824D02*
X78087877Y-74877110D01*
X78087877Y-74877110D02*
X78087877Y-75105681D01*
X78087877Y-75105681D02*
X78059305Y-75162824D01*
X78059305Y-75162824D02*
X78030734Y-75191396D01*
X78030734Y-75191396D02*
X77973591Y-75219967D01*
X77973591Y-75219967D02*
X77859305Y-75219967D01*
X77859305Y-75219967D02*
X77802163Y-75191396D01*
X77802163Y-75191396D02*
X77773591Y-75162824D01*
X77773591Y-75162824D02*
X77745020Y-75105681D01*
X77745020Y-75105681D02*
X77745020Y-74962824D01*
X77745020Y-74962824D02*
X77773591Y-74905681D01*
X77773591Y-74905681D02*
X77802163Y-74877110D01*
X77802163Y-74877110D02*
X77859305Y-74848538D01*
X77859305Y-74848538D02*
X77973591Y-74848538D01*
X77973591Y-74848538D02*
X78030734Y-74877110D01*
X78030734Y-74877110D02*
X78059305Y-74905681D01*
X78059305Y-74905681D02*
X78087877Y-74962824D01*
X75920304Y-75219967D02*
X75920304Y-74619967D01*
X75634590Y-75219967D02*
X75634590Y-74619967D01*
X75634590Y-74619967D02*
X75291733Y-75219967D01*
X75291733Y-75219967D02*
X75291733Y-74619967D01*
X74748877Y-74619967D02*
X74863162Y-74619967D01*
X74863162Y-74619967D02*
X74920305Y-74648538D01*
X74920305Y-74648538D02*
X74948877Y-74677110D01*
X74948877Y-74677110D02*
X75006019Y-74762824D01*
X75006019Y-74762824D02*
X75034591Y-74877110D01*
X75034591Y-74877110D02*
X75034591Y-75105681D01*
X75034591Y-75105681D02*
X75006019Y-75162824D01*
X75006019Y-75162824D02*
X74977448Y-75191396D01*
X74977448Y-75191396D02*
X74920305Y-75219967D01*
X74920305Y-75219967D02*
X74806019Y-75219967D01*
X74806019Y-75219967D02*
X74748877Y-75191396D01*
X74748877Y-75191396D02*
X74720305Y-75162824D01*
X74720305Y-75162824D02*
X74691734Y-75105681D01*
X74691734Y-75105681D02*
X74691734Y-74962824D01*
X74691734Y-74962824D02*
X74720305Y-74905681D01*
X74720305Y-74905681D02*
X74748877Y-74877110D01*
X74748877Y-74877110D02*
X74806019Y-74848538D01*
X74806019Y-74848538D02*
X74920305Y-74848538D01*
X74920305Y-74848538D02*
X74977448Y-74877110D01*
X74977448Y-74877110D02*
X75006019Y-74905681D01*
X75006019Y-74905681D02*
X75034591Y-74962824D01*
X72973590Y-75219967D02*
X72973590Y-74619967D01*
X72687876Y-75219967D02*
X72687876Y-74619967D01*
X72687876Y-74619967D02*
X72345019Y-75219967D01*
X72345019Y-75219967D02*
X72345019Y-74619967D01*
X71802163Y-74619967D02*
X71916448Y-74619967D01*
X71916448Y-74619967D02*
X71973591Y-74648538D01*
X71973591Y-74648538D02*
X72002163Y-74677110D01*
X72002163Y-74677110D02*
X72059305Y-74762824D01*
X72059305Y-74762824D02*
X72087877Y-74877110D01*
X72087877Y-74877110D02*
X72087877Y-75105681D01*
X72087877Y-75105681D02*
X72059305Y-75162824D01*
X72059305Y-75162824D02*
X72030734Y-75191396D01*
X72030734Y-75191396D02*
X71973591Y-75219967D01*
X71973591Y-75219967D02*
X71859305Y-75219967D01*
X71859305Y-75219967D02*
X71802163Y-75191396D01*
X71802163Y-75191396D02*
X71773591Y-75162824D01*
X71773591Y-75162824D02*
X71745020Y-75105681D01*
X71745020Y-75105681D02*
X71745020Y-74962824D01*
X71745020Y-74962824D02*
X71773591Y-74905681D01*
X71773591Y-74905681D02*
X71802163Y-74877110D01*
X71802163Y-74877110D02*
X71859305Y-74848538D01*
X71859305Y-74848538D02*
X71973591Y-74848538D01*
X71973591Y-74848538D02*
X72030734Y-74877110D01*
X72030734Y-74877110D02*
X72059305Y-74905681D01*
X72059305Y-74905681D02*
X72087877Y-74962824D01*
X78973590Y-62219967D02*
X78973590Y-61619967D01*
X78687876Y-62219967D02*
X78687876Y-61619967D01*
X78687876Y-61619967D02*
X78345019Y-62219967D01*
X78345019Y-62219967D02*
X78345019Y-61619967D01*
X77773591Y-61619967D02*
X78059305Y-61619967D01*
X78059305Y-61619967D02*
X78087877Y-61905681D01*
X78087877Y-61905681D02*
X78059305Y-61877110D01*
X78059305Y-61877110D02*
X78002163Y-61848538D01*
X78002163Y-61848538D02*
X77859305Y-61848538D01*
X77859305Y-61848538D02*
X77802163Y-61877110D01*
X77802163Y-61877110D02*
X77773591Y-61905681D01*
X77773591Y-61905681D02*
X77745020Y-61962824D01*
X77745020Y-61962824D02*
X77745020Y-62105681D01*
X77745020Y-62105681D02*
X77773591Y-62162824D01*
X77773591Y-62162824D02*
X77802163Y-62191396D01*
X77802163Y-62191396D02*
X77859305Y-62219967D01*
X77859305Y-62219967D02*
X78002163Y-62219967D01*
X78002163Y-62219967D02*
X78059305Y-62191396D01*
X78059305Y-62191396D02*
X78087877Y-62162824D01*
X75920304Y-62219967D02*
X75920304Y-61619967D01*
X75634590Y-62219967D02*
X75634590Y-61619967D01*
X75634590Y-61619967D02*
X75291733Y-62219967D01*
X75291733Y-62219967D02*
X75291733Y-61619967D01*
X74720305Y-61619967D02*
X75006019Y-61619967D01*
X75006019Y-61619967D02*
X75034591Y-61905681D01*
X75034591Y-61905681D02*
X75006019Y-61877110D01*
X75006019Y-61877110D02*
X74948877Y-61848538D01*
X74948877Y-61848538D02*
X74806019Y-61848538D01*
X74806019Y-61848538D02*
X74748877Y-61877110D01*
X74748877Y-61877110D02*
X74720305Y-61905681D01*
X74720305Y-61905681D02*
X74691734Y-61962824D01*
X74691734Y-61962824D02*
X74691734Y-62105681D01*
X74691734Y-62105681D02*
X74720305Y-62162824D01*
X74720305Y-62162824D02*
X74748877Y-62191396D01*
X74748877Y-62191396D02*
X74806019Y-62219967D01*
X74806019Y-62219967D02*
X74948877Y-62219967D01*
X74948877Y-62219967D02*
X75006019Y-62191396D01*
X75006019Y-62191396D02*
X75034591Y-62162824D01*
X72973590Y-62219967D02*
X72973590Y-61619967D01*
X72687876Y-62219967D02*
X72687876Y-61619967D01*
X72687876Y-61619967D02*
X72345019Y-62219967D01*
X72345019Y-62219967D02*
X72345019Y-61619967D01*
X71773591Y-61619967D02*
X72059305Y-61619967D01*
X72059305Y-61619967D02*
X72087877Y-61905681D01*
X72087877Y-61905681D02*
X72059305Y-61877110D01*
X72059305Y-61877110D02*
X72002163Y-61848538D01*
X72002163Y-61848538D02*
X71859305Y-61848538D01*
X71859305Y-61848538D02*
X71802163Y-61877110D01*
X71802163Y-61877110D02*
X71773591Y-61905681D01*
X71773591Y-61905681D02*
X71745020Y-61962824D01*
X71745020Y-61962824D02*
X71745020Y-62105681D01*
X71745020Y-62105681D02*
X71773591Y-62162824D01*
X71773591Y-62162824D02*
X71802163Y-62191396D01*
X71802163Y-62191396D02*
X71859305Y-62219967D01*
X71859305Y-62219967D02*
X72002163Y-62219967D01*
X72002163Y-62219967D02*
X72059305Y-62191396D01*
X72059305Y-62191396D02*
X72087877Y-62162824D01*
X75920304Y-49219967D02*
X75920304Y-48619967D01*
X75634590Y-49219967D02*
X75634590Y-48619967D01*
X75634590Y-48619967D02*
X75291733Y-49219967D01*
X75291733Y-49219967D02*
X75291733Y-48619967D01*
X74748877Y-48819967D02*
X74748877Y-49219967D01*
X74891734Y-48591396D02*
X75034591Y-49019967D01*
X75034591Y-49019967D02*
X74663162Y-49019967D01*
X72973590Y-49219967D02*
X72973590Y-48619967D01*
X72687876Y-49219967D02*
X72687876Y-48619967D01*
X72687876Y-48619967D02*
X72345019Y-49219967D01*
X72345019Y-49219967D02*
X72345019Y-48619967D01*
X71802163Y-48819967D02*
X71802163Y-49219967D01*
X71945020Y-48591396D02*
X72087877Y-49019967D01*
X72087877Y-49019967D02*
X71716448Y-49019967D01*
X78973590Y-49219967D02*
X78973590Y-48619967D01*
X78687876Y-49219967D02*
X78687876Y-48619967D01*
X78687876Y-48619967D02*
X78345019Y-49219967D01*
X78345019Y-49219967D02*
X78345019Y-48619967D01*
X77802163Y-48819967D02*
X77802163Y-49219967D01*
X77945020Y-48591396D02*
X78087877Y-49019967D01*
X78087877Y-49019967D02*
X77716448Y-49019967D01*
X75948875Y-65748538D02*
X76006018Y-65719967D01*
X76006018Y-65719967D02*
X76091732Y-65719967D01*
X76091732Y-65719967D02*
X76177446Y-65748538D01*
X76177446Y-65748538D02*
X76234589Y-65805681D01*
X76234589Y-65805681D02*
X76263160Y-65862824D01*
X76263160Y-65862824D02*
X76291732Y-65977110D01*
X76291732Y-65977110D02*
X76291732Y-66062824D01*
X76291732Y-66062824D02*
X76263160Y-66177110D01*
X76263160Y-66177110D02*
X76234589Y-66234253D01*
X76234589Y-66234253D02*
X76177446Y-66291396D01*
X76177446Y-66291396D02*
X76091732Y-66319967D01*
X76091732Y-66319967D02*
X76034589Y-66319967D01*
X76034589Y-66319967D02*
X75948875Y-66291396D01*
X75948875Y-66291396D02*
X75920303Y-66262824D01*
X75920303Y-66262824D02*
X75920303Y-66062824D01*
X75920303Y-66062824D02*
X76034589Y-66062824D01*
X75663160Y-66319967D02*
X75663160Y-65719967D01*
X75663160Y-65719967D02*
X75320303Y-66319967D01*
X75320303Y-66319967D02*
X75320303Y-65719967D01*
X75034589Y-66319967D02*
X75034589Y-65719967D01*
X75034589Y-65719967D02*
X74891732Y-65719967D01*
X74891732Y-65719967D02*
X74806018Y-65748538D01*
X74806018Y-65748538D02*
X74748875Y-65805681D01*
X74748875Y-65805681D02*
X74720304Y-65862824D01*
X74720304Y-65862824D02*
X74691732Y-65977110D01*
X74691732Y-65977110D02*
X74691732Y-66062824D01*
X74691732Y-66062824D02*
X74720304Y-66177110D01*
X74720304Y-66177110D02*
X74748875Y-66234253D01*
X74748875Y-66234253D02*
X74806018Y-66291396D01*
X74806018Y-66291396D02*
X74891732Y-66319967D01*
X74891732Y-66319967D02*
X75034589Y-66319967D01*
X78959305Y-65748538D02*
X79016448Y-65719967D01*
X79016448Y-65719967D02*
X79102162Y-65719967D01*
X79102162Y-65719967D02*
X79187876Y-65748538D01*
X79187876Y-65748538D02*
X79245019Y-65805681D01*
X79245019Y-65805681D02*
X79273590Y-65862824D01*
X79273590Y-65862824D02*
X79302162Y-65977110D01*
X79302162Y-65977110D02*
X79302162Y-66062824D01*
X79302162Y-66062824D02*
X79273590Y-66177110D01*
X79273590Y-66177110D02*
X79245019Y-66234253D01*
X79245019Y-66234253D02*
X79187876Y-66291396D01*
X79187876Y-66291396D02*
X79102162Y-66319967D01*
X79102162Y-66319967D02*
X79045019Y-66319967D01*
X79045019Y-66319967D02*
X78959305Y-66291396D01*
X78959305Y-66291396D02*
X78930733Y-66262824D01*
X78930733Y-66262824D02*
X78930733Y-66062824D01*
X78930733Y-66062824D02*
X79045019Y-66062824D01*
X78673590Y-66319967D02*
X78673590Y-65719967D01*
X78673590Y-65719967D02*
X78330733Y-66319967D01*
X78330733Y-66319967D02*
X78330733Y-65719967D01*
X78045019Y-66319967D02*
X78045019Y-65719967D01*
X78045019Y-65719967D02*
X77902162Y-65719967D01*
X77902162Y-65719967D02*
X77816448Y-65748538D01*
X77816448Y-65748538D02*
X77759305Y-65805681D01*
X77759305Y-65805681D02*
X77730734Y-65862824D01*
X77730734Y-65862824D02*
X77702162Y-65977110D01*
X77702162Y-65977110D02*
X77702162Y-66062824D01*
X77702162Y-66062824D02*
X77730734Y-66177110D01*
X77730734Y-66177110D02*
X77759305Y-66234253D01*
X77759305Y-66234253D02*
X77816448Y-66291396D01*
X77816448Y-66291396D02*
X77902162Y-66319967D01*
X77902162Y-66319967D02*
X78045019Y-66319967D01*
X72959305Y-65748538D02*
X73016448Y-65719967D01*
X73016448Y-65719967D02*
X73102162Y-65719967D01*
X73102162Y-65719967D02*
X73187876Y-65748538D01*
X73187876Y-65748538D02*
X73245019Y-65805681D01*
X73245019Y-65805681D02*
X73273590Y-65862824D01*
X73273590Y-65862824D02*
X73302162Y-65977110D01*
X73302162Y-65977110D02*
X73302162Y-66062824D01*
X73302162Y-66062824D02*
X73273590Y-66177110D01*
X73273590Y-66177110D02*
X73245019Y-66234253D01*
X73245019Y-66234253D02*
X73187876Y-66291396D01*
X73187876Y-66291396D02*
X73102162Y-66319967D01*
X73102162Y-66319967D02*
X73045019Y-66319967D01*
X73045019Y-66319967D02*
X72959305Y-66291396D01*
X72959305Y-66291396D02*
X72930733Y-66262824D01*
X72930733Y-66262824D02*
X72930733Y-66062824D01*
X72930733Y-66062824D02*
X73045019Y-66062824D01*
X72673590Y-66319967D02*
X72673590Y-65719967D01*
X72673590Y-65719967D02*
X72330733Y-66319967D01*
X72330733Y-66319967D02*
X72330733Y-65719967D01*
X72045019Y-66319967D02*
X72045019Y-65719967D01*
X72045019Y-65719967D02*
X71902162Y-65719967D01*
X71902162Y-65719967D02*
X71816448Y-65748538D01*
X71816448Y-65748538D02*
X71759305Y-65805681D01*
X71759305Y-65805681D02*
X71730734Y-65862824D01*
X71730734Y-65862824D02*
X71702162Y-65977110D01*
X71702162Y-65977110D02*
X71702162Y-66062824D01*
X71702162Y-66062824D02*
X71730734Y-66177110D01*
X71730734Y-66177110D02*
X71759305Y-66234253D01*
X71759305Y-66234253D02*
X71816448Y-66291396D01*
X71816448Y-66291396D02*
X71902162Y-66319967D01*
X71902162Y-66319967D02*
X72045019Y-66319967D01*
X75948875Y-52748538D02*
X76006018Y-52719967D01*
X76006018Y-52719967D02*
X76091732Y-52719967D01*
X76091732Y-52719967D02*
X76177446Y-52748538D01*
X76177446Y-52748538D02*
X76234589Y-52805681D01*
X76234589Y-52805681D02*
X76263160Y-52862824D01*
X76263160Y-52862824D02*
X76291732Y-52977110D01*
X76291732Y-52977110D02*
X76291732Y-53062824D01*
X76291732Y-53062824D02*
X76263160Y-53177110D01*
X76263160Y-53177110D02*
X76234589Y-53234253D01*
X76234589Y-53234253D02*
X76177446Y-53291396D01*
X76177446Y-53291396D02*
X76091732Y-53319967D01*
X76091732Y-53319967D02*
X76034589Y-53319967D01*
X76034589Y-53319967D02*
X75948875Y-53291396D01*
X75948875Y-53291396D02*
X75920303Y-53262824D01*
X75920303Y-53262824D02*
X75920303Y-53062824D01*
X75920303Y-53062824D02*
X76034589Y-53062824D01*
X75663160Y-53319967D02*
X75663160Y-52719967D01*
X75663160Y-52719967D02*
X75320303Y-53319967D01*
X75320303Y-53319967D02*
X75320303Y-52719967D01*
X75034589Y-53319967D02*
X75034589Y-52719967D01*
X75034589Y-52719967D02*
X74891732Y-52719967D01*
X74891732Y-52719967D02*
X74806018Y-52748538D01*
X74806018Y-52748538D02*
X74748875Y-52805681D01*
X74748875Y-52805681D02*
X74720304Y-52862824D01*
X74720304Y-52862824D02*
X74691732Y-52977110D01*
X74691732Y-52977110D02*
X74691732Y-53062824D01*
X74691732Y-53062824D02*
X74720304Y-53177110D01*
X74720304Y-53177110D02*
X74748875Y-53234253D01*
X74748875Y-53234253D02*
X74806018Y-53291396D01*
X74806018Y-53291396D02*
X74891732Y-53319967D01*
X74891732Y-53319967D02*
X75034589Y-53319967D01*
X78959305Y-52748538D02*
X79016448Y-52719967D01*
X79016448Y-52719967D02*
X79102162Y-52719967D01*
X79102162Y-52719967D02*
X79187876Y-52748538D01*
X79187876Y-52748538D02*
X79245019Y-52805681D01*
X79245019Y-52805681D02*
X79273590Y-52862824D01*
X79273590Y-52862824D02*
X79302162Y-52977110D01*
X79302162Y-52977110D02*
X79302162Y-53062824D01*
X79302162Y-53062824D02*
X79273590Y-53177110D01*
X79273590Y-53177110D02*
X79245019Y-53234253D01*
X79245019Y-53234253D02*
X79187876Y-53291396D01*
X79187876Y-53291396D02*
X79102162Y-53319967D01*
X79102162Y-53319967D02*
X79045019Y-53319967D01*
X79045019Y-53319967D02*
X78959305Y-53291396D01*
X78959305Y-53291396D02*
X78930733Y-53262824D01*
X78930733Y-53262824D02*
X78930733Y-53062824D01*
X78930733Y-53062824D02*
X79045019Y-53062824D01*
X78673590Y-53319967D02*
X78673590Y-52719967D01*
X78673590Y-52719967D02*
X78330733Y-53319967D01*
X78330733Y-53319967D02*
X78330733Y-52719967D01*
X78045019Y-53319967D02*
X78045019Y-52719967D01*
X78045019Y-52719967D02*
X77902162Y-52719967D01*
X77902162Y-52719967D02*
X77816448Y-52748538D01*
X77816448Y-52748538D02*
X77759305Y-52805681D01*
X77759305Y-52805681D02*
X77730734Y-52862824D01*
X77730734Y-52862824D02*
X77702162Y-52977110D01*
X77702162Y-52977110D02*
X77702162Y-53062824D01*
X77702162Y-53062824D02*
X77730734Y-53177110D01*
X77730734Y-53177110D02*
X77759305Y-53234253D01*
X77759305Y-53234253D02*
X77816448Y-53291396D01*
X77816448Y-53291396D02*
X77902162Y-53319967D01*
X77902162Y-53319967D02*
X78045019Y-53319967D01*
X72959305Y-52748538D02*
X73016448Y-52719967D01*
X73016448Y-52719967D02*
X73102162Y-52719967D01*
X73102162Y-52719967D02*
X73187876Y-52748538D01*
X73187876Y-52748538D02*
X73245019Y-52805681D01*
X73245019Y-52805681D02*
X73273590Y-52862824D01*
X73273590Y-52862824D02*
X73302162Y-52977110D01*
X73302162Y-52977110D02*
X73302162Y-53062824D01*
X73302162Y-53062824D02*
X73273590Y-53177110D01*
X73273590Y-53177110D02*
X73245019Y-53234253D01*
X73245019Y-53234253D02*
X73187876Y-53291396D01*
X73187876Y-53291396D02*
X73102162Y-53319967D01*
X73102162Y-53319967D02*
X73045019Y-53319967D01*
X73045019Y-53319967D02*
X72959305Y-53291396D01*
X72959305Y-53291396D02*
X72930733Y-53262824D01*
X72930733Y-53262824D02*
X72930733Y-53062824D01*
X72930733Y-53062824D02*
X73045019Y-53062824D01*
X72673590Y-53319967D02*
X72673590Y-52719967D01*
X72673590Y-52719967D02*
X72330733Y-53319967D01*
X72330733Y-53319967D02*
X72330733Y-52719967D01*
X72045019Y-53319967D02*
X72045019Y-52719967D01*
X72045019Y-52719967D02*
X71902162Y-52719967D01*
X71902162Y-52719967D02*
X71816448Y-52748538D01*
X71816448Y-52748538D02*
X71759305Y-52805681D01*
X71759305Y-52805681D02*
X71730734Y-52862824D01*
X71730734Y-52862824D02*
X71702162Y-52977110D01*
X71702162Y-52977110D02*
X71702162Y-53062824D01*
X71702162Y-53062824D02*
X71730734Y-53177110D01*
X71730734Y-53177110D02*
X71759305Y-53234253D01*
X71759305Y-53234253D02*
X71816448Y-53291396D01*
X71816448Y-53291396D02*
X71902162Y-53319967D01*
X71902162Y-53319967D02*
X72045019Y-53319967D01*
X44948875Y-52748538D02*
X45006018Y-52719967D01*
X45006018Y-52719967D02*
X45091732Y-52719967D01*
X45091732Y-52719967D02*
X45177446Y-52748538D01*
X45177446Y-52748538D02*
X45234589Y-52805681D01*
X45234589Y-52805681D02*
X45263160Y-52862824D01*
X45263160Y-52862824D02*
X45291732Y-52977110D01*
X45291732Y-52977110D02*
X45291732Y-53062824D01*
X45291732Y-53062824D02*
X45263160Y-53177110D01*
X45263160Y-53177110D02*
X45234589Y-53234253D01*
X45234589Y-53234253D02*
X45177446Y-53291396D01*
X45177446Y-53291396D02*
X45091732Y-53319967D01*
X45091732Y-53319967D02*
X45034589Y-53319967D01*
X45034589Y-53319967D02*
X44948875Y-53291396D01*
X44948875Y-53291396D02*
X44920303Y-53262824D01*
X44920303Y-53262824D02*
X44920303Y-53062824D01*
X44920303Y-53062824D02*
X45034589Y-53062824D01*
X44663160Y-53319967D02*
X44663160Y-52719967D01*
X44663160Y-52719967D02*
X44320303Y-53319967D01*
X44320303Y-53319967D02*
X44320303Y-52719967D01*
X44034589Y-53319967D02*
X44034589Y-52719967D01*
X44034589Y-52719967D02*
X43891732Y-52719967D01*
X43891732Y-52719967D02*
X43806018Y-52748538D01*
X43806018Y-52748538D02*
X43748875Y-52805681D01*
X43748875Y-52805681D02*
X43720304Y-52862824D01*
X43720304Y-52862824D02*
X43691732Y-52977110D01*
X43691732Y-52977110D02*
X43691732Y-53062824D01*
X43691732Y-53062824D02*
X43720304Y-53177110D01*
X43720304Y-53177110D02*
X43748875Y-53234253D01*
X43748875Y-53234253D02*
X43806018Y-53291396D01*
X43806018Y-53291396D02*
X43891732Y-53319967D01*
X43891732Y-53319967D02*
X44034589Y-53319967D01*
X47959305Y-52748538D02*
X48016448Y-52719967D01*
X48016448Y-52719967D02*
X48102162Y-52719967D01*
X48102162Y-52719967D02*
X48187876Y-52748538D01*
X48187876Y-52748538D02*
X48245019Y-52805681D01*
X48245019Y-52805681D02*
X48273590Y-52862824D01*
X48273590Y-52862824D02*
X48302162Y-52977110D01*
X48302162Y-52977110D02*
X48302162Y-53062824D01*
X48302162Y-53062824D02*
X48273590Y-53177110D01*
X48273590Y-53177110D02*
X48245019Y-53234253D01*
X48245019Y-53234253D02*
X48187876Y-53291396D01*
X48187876Y-53291396D02*
X48102162Y-53319967D01*
X48102162Y-53319967D02*
X48045019Y-53319967D01*
X48045019Y-53319967D02*
X47959305Y-53291396D01*
X47959305Y-53291396D02*
X47930733Y-53262824D01*
X47930733Y-53262824D02*
X47930733Y-53062824D01*
X47930733Y-53062824D02*
X48045019Y-53062824D01*
X47673590Y-53319967D02*
X47673590Y-52719967D01*
X47673590Y-52719967D02*
X47330733Y-53319967D01*
X47330733Y-53319967D02*
X47330733Y-52719967D01*
X47045019Y-53319967D02*
X47045019Y-52719967D01*
X47045019Y-52719967D02*
X46902162Y-52719967D01*
X46902162Y-52719967D02*
X46816448Y-52748538D01*
X46816448Y-52748538D02*
X46759305Y-52805681D01*
X46759305Y-52805681D02*
X46730734Y-52862824D01*
X46730734Y-52862824D02*
X46702162Y-52977110D01*
X46702162Y-52977110D02*
X46702162Y-53062824D01*
X46702162Y-53062824D02*
X46730734Y-53177110D01*
X46730734Y-53177110D02*
X46759305Y-53234253D01*
X46759305Y-53234253D02*
X46816448Y-53291396D01*
X46816448Y-53291396D02*
X46902162Y-53319967D01*
X46902162Y-53319967D02*
X47045019Y-53319967D01*
X41959305Y-52748538D02*
X42016448Y-52719967D01*
X42016448Y-52719967D02*
X42102162Y-52719967D01*
X42102162Y-52719967D02*
X42187876Y-52748538D01*
X42187876Y-52748538D02*
X42245019Y-52805681D01*
X42245019Y-52805681D02*
X42273590Y-52862824D01*
X42273590Y-52862824D02*
X42302162Y-52977110D01*
X42302162Y-52977110D02*
X42302162Y-53062824D01*
X42302162Y-53062824D02*
X42273590Y-53177110D01*
X42273590Y-53177110D02*
X42245019Y-53234253D01*
X42245019Y-53234253D02*
X42187876Y-53291396D01*
X42187876Y-53291396D02*
X42102162Y-53319967D01*
X42102162Y-53319967D02*
X42045019Y-53319967D01*
X42045019Y-53319967D02*
X41959305Y-53291396D01*
X41959305Y-53291396D02*
X41930733Y-53262824D01*
X41930733Y-53262824D02*
X41930733Y-53062824D01*
X41930733Y-53062824D02*
X42045019Y-53062824D01*
X41673590Y-53319967D02*
X41673590Y-52719967D01*
X41673590Y-52719967D02*
X41330733Y-53319967D01*
X41330733Y-53319967D02*
X41330733Y-52719967D01*
X41045019Y-53319967D02*
X41045019Y-52719967D01*
X41045019Y-52719967D02*
X40902162Y-52719967D01*
X40902162Y-52719967D02*
X40816448Y-52748538D01*
X40816448Y-52748538D02*
X40759305Y-52805681D01*
X40759305Y-52805681D02*
X40730734Y-52862824D01*
X40730734Y-52862824D02*
X40702162Y-52977110D01*
X40702162Y-52977110D02*
X40702162Y-53062824D01*
X40702162Y-53062824D02*
X40730734Y-53177110D01*
X40730734Y-53177110D02*
X40759305Y-53234253D01*
X40759305Y-53234253D02*
X40816448Y-53291396D01*
X40816448Y-53291396D02*
X40902162Y-53319967D01*
X40902162Y-53319967D02*
X41045019Y-53319967D01*
X44948875Y-65748538D02*
X45006018Y-65719967D01*
X45006018Y-65719967D02*
X45091732Y-65719967D01*
X45091732Y-65719967D02*
X45177446Y-65748538D01*
X45177446Y-65748538D02*
X45234589Y-65805681D01*
X45234589Y-65805681D02*
X45263160Y-65862824D01*
X45263160Y-65862824D02*
X45291732Y-65977110D01*
X45291732Y-65977110D02*
X45291732Y-66062824D01*
X45291732Y-66062824D02*
X45263160Y-66177110D01*
X45263160Y-66177110D02*
X45234589Y-66234253D01*
X45234589Y-66234253D02*
X45177446Y-66291396D01*
X45177446Y-66291396D02*
X45091732Y-66319967D01*
X45091732Y-66319967D02*
X45034589Y-66319967D01*
X45034589Y-66319967D02*
X44948875Y-66291396D01*
X44948875Y-66291396D02*
X44920303Y-66262824D01*
X44920303Y-66262824D02*
X44920303Y-66062824D01*
X44920303Y-66062824D02*
X45034589Y-66062824D01*
X44663160Y-66319967D02*
X44663160Y-65719967D01*
X44663160Y-65719967D02*
X44320303Y-66319967D01*
X44320303Y-66319967D02*
X44320303Y-65719967D01*
X44034589Y-66319967D02*
X44034589Y-65719967D01*
X44034589Y-65719967D02*
X43891732Y-65719967D01*
X43891732Y-65719967D02*
X43806018Y-65748538D01*
X43806018Y-65748538D02*
X43748875Y-65805681D01*
X43748875Y-65805681D02*
X43720304Y-65862824D01*
X43720304Y-65862824D02*
X43691732Y-65977110D01*
X43691732Y-65977110D02*
X43691732Y-66062824D01*
X43691732Y-66062824D02*
X43720304Y-66177110D01*
X43720304Y-66177110D02*
X43748875Y-66234253D01*
X43748875Y-66234253D02*
X43806018Y-66291396D01*
X43806018Y-66291396D02*
X43891732Y-66319967D01*
X43891732Y-66319967D02*
X44034589Y-66319967D01*
X47959305Y-65748538D02*
X48016448Y-65719967D01*
X48016448Y-65719967D02*
X48102162Y-65719967D01*
X48102162Y-65719967D02*
X48187876Y-65748538D01*
X48187876Y-65748538D02*
X48245019Y-65805681D01*
X48245019Y-65805681D02*
X48273590Y-65862824D01*
X48273590Y-65862824D02*
X48302162Y-65977110D01*
X48302162Y-65977110D02*
X48302162Y-66062824D01*
X48302162Y-66062824D02*
X48273590Y-66177110D01*
X48273590Y-66177110D02*
X48245019Y-66234253D01*
X48245019Y-66234253D02*
X48187876Y-66291396D01*
X48187876Y-66291396D02*
X48102162Y-66319967D01*
X48102162Y-66319967D02*
X48045019Y-66319967D01*
X48045019Y-66319967D02*
X47959305Y-66291396D01*
X47959305Y-66291396D02*
X47930733Y-66262824D01*
X47930733Y-66262824D02*
X47930733Y-66062824D01*
X47930733Y-66062824D02*
X48045019Y-66062824D01*
X47673590Y-66319967D02*
X47673590Y-65719967D01*
X47673590Y-65719967D02*
X47330733Y-66319967D01*
X47330733Y-66319967D02*
X47330733Y-65719967D01*
X47045019Y-66319967D02*
X47045019Y-65719967D01*
X47045019Y-65719967D02*
X46902162Y-65719967D01*
X46902162Y-65719967D02*
X46816448Y-65748538D01*
X46816448Y-65748538D02*
X46759305Y-65805681D01*
X46759305Y-65805681D02*
X46730734Y-65862824D01*
X46730734Y-65862824D02*
X46702162Y-65977110D01*
X46702162Y-65977110D02*
X46702162Y-66062824D01*
X46702162Y-66062824D02*
X46730734Y-66177110D01*
X46730734Y-66177110D02*
X46759305Y-66234253D01*
X46759305Y-66234253D02*
X46816448Y-66291396D01*
X46816448Y-66291396D02*
X46902162Y-66319967D01*
X46902162Y-66319967D02*
X47045019Y-66319967D01*
X41959305Y-65748538D02*
X42016448Y-65719967D01*
X42016448Y-65719967D02*
X42102162Y-65719967D01*
X42102162Y-65719967D02*
X42187876Y-65748538D01*
X42187876Y-65748538D02*
X42245019Y-65805681D01*
X42245019Y-65805681D02*
X42273590Y-65862824D01*
X42273590Y-65862824D02*
X42302162Y-65977110D01*
X42302162Y-65977110D02*
X42302162Y-66062824D01*
X42302162Y-66062824D02*
X42273590Y-66177110D01*
X42273590Y-66177110D02*
X42245019Y-66234253D01*
X42245019Y-66234253D02*
X42187876Y-66291396D01*
X42187876Y-66291396D02*
X42102162Y-66319967D01*
X42102162Y-66319967D02*
X42045019Y-66319967D01*
X42045019Y-66319967D02*
X41959305Y-66291396D01*
X41959305Y-66291396D02*
X41930733Y-66262824D01*
X41930733Y-66262824D02*
X41930733Y-66062824D01*
X41930733Y-66062824D02*
X42045019Y-66062824D01*
X41673590Y-66319967D02*
X41673590Y-65719967D01*
X41673590Y-65719967D02*
X41330733Y-66319967D01*
X41330733Y-66319967D02*
X41330733Y-65719967D01*
X41045019Y-66319967D02*
X41045019Y-65719967D01*
X41045019Y-65719967D02*
X40902162Y-65719967D01*
X40902162Y-65719967D02*
X40816448Y-65748538D01*
X40816448Y-65748538D02*
X40759305Y-65805681D01*
X40759305Y-65805681D02*
X40730734Y-65862824D01*
X40730734Y-65862824D02*
X40702162Y-65977110D01*
X40702162Y-65977110D02*
X40702162Y-66062824D01*
X40702162Y-66062824D02*
X40730734Y-66177110D01*
X40730734Y-66177110D02*
X40759305Y-66234253D01*
X40759305Y-66234253D02*
X40816448Y-66291396D01*
X40816448Y-66291396D02*
X40902162Y-66319967D01*
X40902162Y-66319967D02*
X41045019Y-66319967D01*
X44948875Y-78748538D02*
X45006018Y-78719967D01*
X45006018Y-78719967D02*
X45091732Y-78719967D01*
X45091732Y-78719967D02*
X45177446Y-78748538D01*
X45177446Y-78748538D02*
X45234589Y-78805681D01*
X45234589Y-78805681D02*
X45263160Y-78862824D01*
X45263160Y-78862824D02*
X45291732Y-78977110D01*
X45291732Y-78977110D02*
X45291732Y-79062824D01*
X45291732Y-79062824D02*
X45263160Y-79177110D01*
X45263160Y-79177110D02*
X45234589Y-79234253D01*
X45234589Y-79234253D02*
X45177446Y-79291396D01*
X45177446Y-79291396D02*
X45091732Y-79319967D01*
X45091732Y-79319967D02*
X45034589Y-79319967D01*
X45034589Y-79319967D02*
X44948875Y-79291396D01*
X44948875Y-79291396D02*
X44920303Y-79262824D01*
X44920303Y-79262824D02*
X44920303Y-79062824D01*
X44920303Y-79062824D02*
X45034589Y-79062824D01*
X44663160Y-79319967D02*
X44663160Y-78719967D01*
X44663160Y-78719967D02*
X44320303Y-79319967D01*
X44320303Y-79319967D02*
X44320303Y-78719967D01*
X44034589Y-79319967D02*
X44034589Y-78719967D01*
X44034589Y-78719967D02*
X43891732Y-78719967D01*
X43891732Y-78719967D02*
X43806018Y-78748538D01*
X43806018Y-78748538D02*
X43748875Y-78805681D01*
X43748875Y-78805681D02*
X43720304Y-78862824D01*
X43720304Y-78862824D02*
X43691732Y-78977110D01*
X43691732Y-78977110D02*
X43691732Y-79062824D01*
X43691732Y-79062824D02*
X43720304Y-79177110D01*
X43720304Y-79177110D02*
X43748875Y-79234253D01*
X43748875Y-79234253D02*
X43806018Y-79291396D01*
X43806018Y-79291396D02*
X43891732Y-79319967D01*
X43891732Y-79319967D02*
X44034589Y-79319967D01*
X47959305Y-78748538D02*
X48016448Y-78719967D01*
X48016448Y-78719967D02*
X48102162Y-78719967D01*
X48102162Y-78719967D02*
X48187876Y-78748538D01*
X48187876Y-78748538D02*
X48245019Y-78805681D01*
X48245019Y-78805681D02*
X48273590Y-78862824D01*
X48273590Y-78862824D02*
X48302162Y-78977110D01*
X48302162Y-78977110D02*
X48302162Y-79062824D01*
X48302162Y-79062824D02*
X48273590Y-79177110D01*
X48273590Y-79177110D02*
X48245019Y-79234253D01*
X48245019Y-79234253D02*
X48187876Y-79291396D01*
X48187876Y-79291396D02*
X48102162Y-79319967D01*
X48102162Y-79319967D02*
X48045019Y-79319967D01*
X48045019Y-79319967D02*
X47959305Y-79291396D01*
X47959305Y-79291396D02*
X47930733Y-79262824D01*
X47930733Y-79262824D02*
X47930733Y-79062824D01*
X47930733Y-79062824D02*
X48045019Y-79062824D01*
X47673590Y-79319967D02*
X47673590Y-78719967D01*
X47673590Y-78719967D02*
X47330733Y-79319967D01*
X47330733Y-79319967D02*
X47330733Y-78719967D01*
X47045019Y-79319967D02*
X47045019Y-78719967D01*
X47045019Y-78719967D02*
X46902162Y-78719967D01*
X46902162Y-78719967D02*
X46816448Y-78748538D01*
X46816448Y-78748538D02*
X46759305Y-78805681D01*
X46759305Y-78805681D02*
X46730734Y-78862824D01*
X46730734Y-78862824D02*
X46702162Y-78977110D01*
X46702162Y-78977110D02*
X46702162Y-79062824D01*
X46702162Y-79062824D02*
X46730734Y-79177110D01*
X46730734Y-79177110D02*
X46759305Y-79234253D01*
X46759305Y-79234253D02*
X46816448Y-79291396D01*
X46816448Y-79291396D02*
X46902162Y-79319967D01*
X46902162Y-79319967D02*
X47045019Y-79319967D01*
X41959305Y-78748538D02*
X42016448Y-78719967D01*
X42016448Y-78719967D02*
X42102162Y-78719967D01*
X42102162Y-78719967D02*
X42187876Y-78748538D01*
X42187876Y-78748538D02*
X42245019Y-78805681D01*
X42245019Y-78805681D02*
X42273590Y-78862824D01*
X42273590Y-78862824D02*
X42302162Y-78977110D01*
X42302162Y-78977110D02*
X42302162Y-79062824D01*
X42302162Y-79062824D02*
X42273590Y-79177110D01*
X42273590Y-79177110D02*
X42245019Y-79234253D01*
X42245019Y-79234253D02*
X42187876Y-79291396D01*
X42187876Y-79291396D02*
X42102162Y-79319967D01*
X42102162Y-79319967D02*
X42045019Y-79319967D01*
X42045019Y-79319967D02*
X41959305Y-79291396D01*
X41959305Y-79291396D02*
X41930733Y-79262824D01*
X41930733Y-79262824D02*
X41930733Y-79062824D01*
X41930733Y-79062824D02*
X42045019Y-79062824D01*
X41673590Y-79319967D02*
X41673590Y-78719967D01*
X41673590Y-78719967D02*
X41330733Y-79319967D01*
X41330733Y-79319967D02*
X41330733Y-78719967D01*
X41045019Y-79319967D02*
X41045019Y-78719967D01*
X41045019Y-78719967D02*
X40902162Y-78719967D01*
X40902162Y-78719967D02*
X40816448Y-78748538D01*
X40816448Y-78748538D02*
X40759305Y-78805681D01*
X40759305Y-78805681D02*
X40730734Y-78862824D01*
X40730734Y-78862824D02*
X40702162Y-78977110D01*
X40702162Y-78977110D02*
X40702162Y-79062824D01*
X40702162Y-79062824D02*
X40730734Y-79177110D01*
X40730734Y-79177110D02*
X40759305Y-79234253D01*
X40759305Y-79234253D02*
X40816448Y-79291396D01*
X40816448Y-79291396D02*
X40902162Y-79319967D01*
X40902162Y-79319967D02*
X41045019Y-79319967D01*
X44948875Y-91748538D02*
X45006018Y-91719967D01*
X45006018Y-91719967D02*
X45091732Y-91719967D01*
X45091732Y-91719967D02*
X45177446Y-91748538D01*
X45177446Y-91748538D02*
X45234589Y-91805681D01*
X45234589Y-91805681D02*
X45263160Y-91862824D01*
X45263160Y-91862824D02*
X45291732Y-91977110D01*
X45291732Y-91977110D02*
X45291732Y-92062824D01*
X45291732Y-92062824D02*
X45263160Y-92177110D01*
X45263160Y-92177110D02*
X45234589Y-92234253D01*
X45234589Y-92234253D02*
X45177446Y-92291396D01*
X45177446Y-92291396D02*
X45091732Y-92319967D01*
X45091732Y-92319967D02*
X45034589Y-92319967D01*
X45034589Y-92319967D02*
X44948875Y-92291396D01*
X44948875Y-92291396D02*
X44920303Y-92262824D01*
X44920303Y-92262824D02*
X44920303Y-92062824D01*
X44920303Y-92062824D02*
X45034589Y-92062824D01*
X44663160Y-92319967D02*
X44663160Y-91719967D01*
X44663160Y-91719967D02*
X44320303Y-92319967D01*
X44320303Y-92319967D02*
X44320303Y-91719967D01*
X44034589Y-92319967D02*
X44034589Y-91719967D01*
X44034589Y-91719967D02*
X43891732Y-91719967D01*
X43891732Y-91719967D02*
X43806018Y-91748538D01*
X43806018Y-91748538D02*
X43748875Y-91805681D01*
X43748875Y-91805681D02*
X43720304Y-91862824D01*
X43720304Y-91862824D02*
X43691732Y-91977110D01*
X43691732Y-91977110D02*
X43691732Y-92062824D01*
X43691732Y-92062824D02*
X43720304Y-92177110D01*
X43720304Y-92177110D02*
X43748875Y-92234253D01*
X43748875Y-92234253D02*
X43806018Y-92291396D01*
X43806018Y-92291396D02*
X43891732Y-92319967D01*
X43891732Y-92319967D02*
X44034589Y-92319967D01*
X47959305Y-91748538D02*
X48016448Y-91719967D01*
X48016448Y-91719967D02*
X48102162Y-91719967D01*
X48102162Y-91719967D02*
X48187876Y-91748538D01*
X48187876Y-91748538D02*
X48245019Y-91805681D01*
X48245019Y-91805681D02*
X48273590Y-91862824D01*
X48273590Y-91862824D02*
X48302162Y-91977110D01*
X48302162Y-91977110D02*
X48302162Y-92062824D01*
X48302162Y-92062824D02*
X48273590Y-92177110D01*
X48273590Y-92177110D02*
X48245019Y-92234253D01*
X48245019Y-92234253D02*
X48187876Y-92291396D01*
X48187876Y-92291396D02*
X48102162Y-92319967D01*
X48102162Y-92319967D02*
X48045019Y-92319967D01*
X48045019Y-92319967D02*
X47959305Y-92291396D01*
X47959305Y-92291396D02*
X47930733Y-92262824D01*
X47930733Y-92262824D02*
X47930733Y-92062824D01*
X47930733Y-92062824D02*
X48045019Y-92062824D01*
X47673590Y-92319967D02*
X47673590Y-91719967D01*
X47673590Y-91719967D02*
X47330733Y-92319967D01*
X47330733Y-92319967D02*
X47330733Y-91719967D01*
X47045019Y-92319967D02*
X47045019Y-91719967D01*
X47045019Y-91719967D02*
X46902162Y-91719967D01*
X46902162Y-91719967D02*
X46816448Y-91748538D01*
X46816448Y-91748538D02*
X46759305Y-91805681D01*
X46759305Y-91805681D02*
X46730734Y-91862824D01*
X46730734Y-91862824D02*
X46702162Y-91977110D01*
X46702162Y-91977110D02*
X46702162Y-92062824D01*
X46702162Y-92062824D02*
X46730734Y-92177110D01*
X46730734Y-92177110D02*
X46759305Y-92234253D01*
X46759305Y-92234253D02*
X46816448Y-92291396D01*
X46816448Y-92291396D02*
X46902162Y-92319967D01*
X46902162Y-92319967D02*
X47045019Y-92319967D01*
X41959305Y-91748538D02*
X42016448Y-91719967D01*
X42016448Y-91719967D02*
X42102162Y-91719967D01*
X42102162Y-91719967D02*
X42187876Y-91748538D01*
X42187876Y-91748538D02*
X42245019Y-91805681D01*
X42245019Y-91805681D02*
X42273590Y-91862824D01*
X42273590Y-91862824D02*
X42302162Y-91977110D01*
X42302162Y-91977110D02*
X42302162Y-92062824D01*
X42302162Y-92062824D02*
X42273590Y-92177110D01*
X42273590Y-92177110D02*
X42245019Y-92234253D01*
X42245019Y-92234253D02*
X42187876Y-92291396D01*
X42187876Y-92291396D02*
X42102162Y-92319967D01*
X42102162Y-92319967D02*
X42045019Y-92319967D01*
X42045019Y-92319967D02*
X41959305Y-92291396D01*
X41959305Y-92291396D02*
X41930733Y-92262824D01*
X41930733Y-92262824D02*
X41930733Y-92062824D01*
X41930733Y-92062824D02*
X42045019Y-92062824D01*
X41673590Y-92319967D02*
X41673590Y-91719967D01*
X41673590Y-91719967D02*
X41330733Y-92319967D01*
X41330733Y-92319967D02*
X41330733Y-91719967D01*
X41045019Y-92319967D02*
X41045019Y-91719967D01*
X41045019Y-91719967D02*
X40902162Y-91719967D01*
X40902162Y-91719967D02*
X40816448Y-91748538D01*
X40816448Y-91748538D02*
X40759305Y-91805681D01*
X40759305Y-91805681D02*
X40730734Y-91862824D01*
X40730734Y-91862824D02*
X40702162Y-91977110D01*
X40702162Y-91977110D02*
X40702162Y-92062824D01*
X40702162Y-92062824D02*
X40730734Y-92177110D01*
X40730734Y-92177110D02*
X40759305Y-92234253D01*
X40759305Y-92234253D02*
X40816448Y-92291396D01*
X40816448Y-92291396D02*
X40902162Y-92319967D01*
X40902162Y-92319967D02*
X41045019Y-92319967D01*
X75948875Y-91748538D02*
X76006018Y-91719967D01*
X76006018Y-91719967D02*
X76091732Y-91719967D01*
X76091732Y-91719967D02*
X76177446Y-91748538D01*
X76177446Y-91748538D02*
X76234589Y-91805681D01*
X76234589Y-91805681D02*
X76263160Y-91862824D01*
X76263160Y-91862824D02*
X76291732Y-91977110D01*
X76291732Y-91977110D02*
X76291732Y-92062824D01*
X76291732Y-92062824D02*
X76263160Y-92177110D01*
X76263160Y-92177110D02*
X76234589Y-92234253D01*
X76234589Y-92234253D02*
X76177446Y-92291396D01*
X76177446Y-92291396D02*
X76091732Y-92319967D01*
X76091732Y-92319967D02*
X76034589Y-92319967D01*
X76034589Y-92319967D02*
X75948875Y-92291396D01*
X75948875Y-92291396D02*
X75920303Y-92262824D01*
X75920303Y-92262824D02*
X75920303Y-92062824D01*
X75920303Y-92062824D02*
X76034589Y-92062824D01*
X75663160Y-92319967D02*
X75663160Y-91719967D01*
X75663160Y-91719967D02*
X75320303Y-92319967D01*
X75320303Y-92319967D02*
X75320303Y-91719967D01*
X75034589Y-92319967D02*
X75034589Y-91719967D01*
X75034589Y-91719967D02*
X74891732Y-91719967D01*
X74891732Y-91719967D02*
X74806018Y-91748538D01*
X74806018Y-91748538D02*
X74748875Y-91805681D01*
X74748875Y-91805681D02*
X74720304Y-91862824D01*
X74720304Y-91862824D02*
X74691732Y-91977110D01*
X74691732Y-91977110D02*
X74691732Y-92062824D01*
X74691732Y-92062824D02*
X74720304Y-92177110D01*
X74720304Y-92177110D02*
X74748875Y-92234253D01*
X74748875Y-92234253D02*
X74806018Y-92291396D01*
X74806018Y-92291396D02*
X74891732Y-92319967D01*
X74891732Y-92319967D02*
X75034589Y-92319967D01*
X78959305Y-91748538D02*
X79016448Y-91719967D01*
X79016448Y-91719967D02*
X79102162Y-91719967D01*
X79102162Y-91719967D02*
X79187876Y-91748538D01*
X79187876Y-91748538D02*
X79245019Y-91805681D01*
X79245019Y-91805681D02*
X79273590Y-91862824D01*
X79273590Y-91862824D02*
X79302162Y-91977110D01*
X79302162Y-91977110D02*
X79302162Y-92062824D01*
X79302162Y-92062824D02*
X79273590Y-92177110D01*
X79273590Y-92177110D02*
X79245019Y-92234253D01*
X79245019Y-92234253D02*
X79187876Y-92291396D01*
X79187876Y-92291396D02*
X79102162Y-92319967D01*
X79102162Y-92319967D02*
X79045019Y-92319967D01*
X79045019Y-92319967D02*
X78959305Y-92291396D01*
X78959305Y-92291396D02*
X78930733Y-92262824D01*
X78930733Y-92262824D02*
X78930733Y-92062824D01*
X78930733Y-92062824D02*
X79045019Y-92062824D01*
X78673590Y-92319967D02*
X78673590Y-91719967D01*
X78673590Y-91719967D02*
X78330733Y-92319967D01*
X78330733Y-92319967D02*
X78330733Y-91719967D01*
X78045019Y-92319967D02*
X78045019Y-91719967D01*
X78045019Y-91719967D02*
X77902162Y-91719967D01*
X77902162Y-91719967D02*
X77816448Y-91748538D01*
X77816448Y-91748538D02*
X77759305Y-91805681D01*
X77759305Y-91805681D02*
X77730734Y-91862824D01*
X77730734Y-91862824D02*
X77702162Y-91977110D01*
X77702162Y-91977110D02*
X77702162Y-92062824D01*
X77702162Y-92062824D02*
X77730734Y-92177110D01*
X77730734Y-92177110D02*
X77759305Y-92234253D01*
X77759305Y-92234253D02*
X77816448Y-92291396D01*
X77816448Y-92291396D02*
X77902162Y-92319967D01*
X77902162Y-92319967D02*
X78045019Y-92319967D01*
X72959305Y-91748538D02*
X73016448Y-91719967D01*
X73016448Y-91719967D02*
X73102162Y-91719967D01*
X73102162Y-91719967D02*
X73187876Y-91748538D01*
X73187876Y-91748538D02*
X73245019Y-91805681D01*
X73245019Y-91805681D02*
X73273590Y-91862824D01*
X73273590Y-91862824D02*
X73302162Y-91977110D01*
X73302162Y-91977110D02*
X73302162Y-92062824D01*
X73302162Y-92062824D02*
X73273590Y-92177110D01*
X73273590Y-92177110D02*
X73245019Y-92234253D01*
X73245019Y-92234253D02*
X73187876Y-92291396D01*
X73187876Y-92291396D02*
X73102162Y-92319967D01*
X73102162Y-92319967D02*
X73045019Y-92319967D01*
X73045019Y-92319967D02*
X72959305Y-92291396D01*
X72959305Y-92291396D02*
X72930733Y-92262824D01*
X72930733Y-92262824D02*
X72930733Y-92062824D01*
X72930733Y-92062824D02*
X73045019Y-92062824D01*
X72673590Y-92319967D02*
X72673590Y-91719967D01*
X72673590Y-91719967D02*
X72330733Y-92319967D01*
X72330733Y-92319967D02*
X72330733Y-91719967D01*
X72045019Y-92319967D02*
X72045019Y-91719967D01*
X72045019Y-91719967D02*
X71902162Y-91719967D01*
X71902162Y-91719967D02*
X71816448Y-91748538D01*
X71816448Y-91748538D02*
X71759305Y-91805681D01*
X71759305Y-91805681D02*
X71730734Y-91862824D01*
X71730734Y-91862824D02*
X71702162Y-91977110D01*
X71702162Y-91977110D02*
X71702162Y-92062824D01*
X71702162Y-92062824D02*
X71730734Y-92177110D01*
X71730734Y-92177110D02*
X71759305Y-92234253D01*
X71759305Y-92234253D02*
X71816448Y-92291396D01*
X71816448Y-92291396D02*
X71902162Y-92319967D01*
X71902162Y-92319967D02*
X72045019Y-92319967D01*
X72959305Y-78748538D02*
X73016448Y-78719967D01*
X73016448Y-78719967D02*
X73102162Y-78719967D01*
X73102162Y-78719967D02*
X73187876Y-78748538D01*
X73187876Y-78748538D02*
X73245019Y-78805681D01*
X73245019Y-78805681D02*
X73273590Y-78862824D01*
X73273590Y-78862824D02*
X73302162Y-78977110D01*
X73302162Y-78977110D02*
X73302162Y-79062824D01*
X73302162Y-79062824D02*
X73273590Y-79177110D01*
X73273590Y-79177110D02*
X73245019Y-79234253D01*
X73245019Y-79234253D02*
X73187876Y-79291396D01*
X73187876Y-79291396D02*
X73102162Y-79319967D01*
X73102162Y-79319967D02*
X73045019Y-79319967D01*
X73045019Y-79319967D02*
X72959305Y-79291396D01*
X72959305Y-79291396D02*
X72930733Y-79262824D01*
X72930733Y-79262824D02*
X72930733Y-79062824D01*
X72930733Y-79062824D02*
X73045019Y-79062824D01*
X72673590Y-79319967D02*
X72673590Y-78719967D01*
X72673590Y-78719967D02*
X72330733Y-79319967D01*
X72330733Y-79319967D02*
X72330733Y-78719967D01*
X72045019Y-79319967D02*
X72045019Y-78719967D01*
X72045019Y-78719967D02*
X71902162Y-78719967D01*
X71902162Y-78719967D02*
X71816448Y-78748538D01*
X71816448Y-78748538D02*
X71759305Y-78805681D01*
X71759305Y-78805681D02*
X71730734Y-78862824D01*
X71730734Y-78862824D02*
X71702162Y-78977110D01*
X71702162Y-78977110D02*
X71702162Y-79062824D01*
X71702162Y-79062824D02*
X71730734Y-79177110D01*
X71730734Y-79177110D02*
X71759305Y-79234253D01*
X71759305Y-79234253D02*
X71816448Y-79291396D01*
X71816448Y-79291396D02*
X71902162Y-79319967D01*
X71902162Y-79319967D02*
X72045019Y-79319967D01*
X75948875Y-78748538D02*
X76006018Y-78719967D01*
X76006018Y-78719967D02*
X76091732Y-78719967D01*
X76091732Y-78719967D02*
X76177446Y-78748538D01*
X76177446Y-78748538D02*
X76234589Y-78805681D01*
X76234589Y-78805681D02*
X76263160Y-78862824D01*
X76263160Y-78862824D02*
X76291732Y-78977110D01*
X76291732Y-78977110D02*
X76291732Y-79062824D01*
X76291732Y-79062824D02*
X76263160Y-79177110D01*
X76263160Y-79177110D02*
X76234589Y-79234253D01*
X76234589Y-79234253D02*
X76177446Y-79291396D01*
X76177446Y-79291396D02*
X76091732Y-79319967D01*
X76091732Y-79319967D02*
X76034589Y-79319967D01*
X76034589Y-79319967D02*
X75948875Y-79291396D01*
X75948875Y-79291396D02*
X75920303Y-79262824D01*
X75920303Y-79262824D02*
X75920303Y-79062824D01*
X75920303Y-79062824D02*
X76034589Y-79062824D01*
X75663160Y-79319967D02*
X75663160Y-78719967D01*
X75663160Y-78719967D02*
X75320303Y-79319967D01*
X75320303Y-79319967D02*
X75320303Y-78719967D01*
X75034589Y-79319967D02*
X75034589Y-78719967D01*
X75034589Y-78719967D02*
X74891732Y-78719967D01*
X74891732Y-78719967D02*
X74806018Y-78748538D01*
X74806018Y-78748538D02*
X74748875Y-78805681D01*
X74748875Y-78805681D02*
X74720304Y-78862824D01*
X74720304Y-78862824D02*
X74691732Y-78977110D01*
X74691732Y-78977110D02*
X74691732Y-79062824D01*
X74691732Y-79062824D02*
X74720304Y-79177110D01*
X74720304Y-79177110D02*
X74748875Y-79234253D01*
X74748875Y-79234253D02*
X74806018Y-79291396D01*
X74806018Y-79291396D02*
X74891732Y-79319967D01*
X74891732Y-79319967D02*
X75034589Y-79319967D01*
X78959305Y-78748538D02*
X79016448Y-78719967D01*
X79016448Y-78719967D02*
X79102162Y-78719967D01*
X79102162Y-78719967D02*
X79187876Y-78748538D01*
X79187876Y-78748538D02*
X79245019Y-78805681D01*
X79245019Y-78805681D02*
X79273590Y-78862824D01*
X79273590Y-78862824D02*
X79302162Y-78977110D01*
X79302162Y-78977110D02*
X79302162Y-79062824D01*
X79302162Y-79062824D02*
X79273590Y-79177110D01*
X79273590Y-79177110D02*
X79245019Y-79234253D01*
X79245019Y-79234253D02*
X79187876Y-79291396D01*
X79187876Y-79291396D02*
X79102162Y-79319967D01*
X79102162Y-79319967D02*
X79045019Y-79319967D01*
X79045019Y-79319967D02*
X78959305Y-79291396D01*
X78959305Y-79291396D02*
X78930733Y-79262824D01*
X78930733Y-79262824D02*
X78930733Y-79062824D01*
X78930733Y-79062824D02*
X79045019Y-79062824D01*
X78673590Y-79319967D02*
X78673590Y-78719967D01*
X78673590Y-78719967D02*
X78330733Y-79319967D01*
X78330733Y-79319967D02*
X78330733Y-78719967D01*
X78045019Y-79319967D02*
X78045019Y-78719967D01*
X78045019Y-78719967D02*
X77902162Y-78719967D01*
X77902162Y-78719967D02*
X77816448Y-78748538D01*
X77816448Y-78748538D02*
X77759305Y-78805681D01*
X77759305Y-78805681D02*
X77730734Y-78862824D01*
X77730734Y-78862824D02*
X77702162Y-78977110D01*
X77702162Y-78977110D02*
X77702162Y-79062824D01*
X77702162Y-79062824D02*
X77730734Y-79177110D01*
X77730734Y-79177110D02*
X77759305Y-79234253D01*
X77759305Y-79234253D02*
X77816448Y-79291396D01*
X77816448Y-79291396D02*
X77902162Y-79319967D01*
X77902162Y-79319967D02*
X78045019Y-79319967D01*
D11*
X50000000Y-57475000D02*
X39000000Y-57475000D01*
X50000000Y-83575000D02*
X39000000Y-83575000D01*
X70000000Y-83550000D02*
X81000000Y-83550000D01*
X50000000Y-83575000D02*
X50000000Y-96625000D01*
X50000000Y-96625000D02*
X39000000Y-96625000D01*
X50000000Y-83575000D02*
X39000000Y-83575000D01*
X50000000Y-44425000D02*
X39000000Y-44425000D01*
X70000000Y-83550000D02*
X70000000Y-70500000D01*
X50000000Y-83575000D02*
X39000000Y-83575000D01*
X70000000Y-57450000D02*
X81000000Y-57450000D01*
X70000000Y-70500000D02*
X81000000Y-70500000D01*
X70000000Y-96600000D02*
X81000000Y-96600000D01*
X70000000Y-96600000D02*
X70000000Y-83550000D01*
D12*
X43151000Y-98500000D02*
G75*
G02*
X39849000Y-98500000I-1651000J0D01*
G01*
X39849000Y-98500000D02*
G75*
G02*
X43151000Y-98500000I1651000J0D01*
G01*
D11*
X50000000Y-96625000D02*
X39000000Y-96625000D01*
X70000000Y-83550000D02*
X81000000Y-83550000D01*
X50000000Y-70525000D02*
X39000000Y-70525000D01*
X50000000Y-70525000D02*
X50000000Y-83575000D01*
X50000000Y-57475000D02*
X39000000Y-57475000D01*
X70000000Y-70500000D02*
X81000000Y-70500000D01*
X50000000Y-70525000D02*
X39000000Y-70525000D01*
X70000000Y-57450000D02*
X81000000Y-57450000D01*
X70000000Y-57450000D02*
X81000000Y-57450000D01*
X70000000Y-83550000D02*
X81000000Y-83550000D01*
X70000000Y-44400000D02*
X81000000Y-44400000D01*
D12*
X80151000Y-98500000D02*
G75*
G02*
X76849000Y-98500000I-1651000J0D01*
G01*
X76849000Y-98500000D02*
G75*
G02*
X80151000Y-98500000I1651000J0D01*
G01*
D11*
X50000000Y-44425000D02*
X50000000Y-57475000D01*
X70000000Y-70500000D02*
X70000000Y-57450000D01*
D12*
X43151000Y-41500000D02*
G75*
G02*
X39849000Y-41500000I-1651000J0D01*
G01*
X39849000Y-41500000D02*
G75*
G02*
X43151000Y-41500000I1651000J0D01*
G01*
D11*
X70000000Y-57450000D02*
X70000000Y-44400000D01*
D12*
X80151000Y-41500000D02*
G75*
G02*
X76849000Y-41500000I-1651000J0D01*
G01*
X76849000Y-41500000D02*
G75*
G02*
X80151000Y-41500000I1651000J0D01*
G01*
D11*
X70000000Y-44400000D02*
X81000000Y-44400000D01*
X70000000Y-70500000D02*
X81000000Y-70500000D01*
X50000000Y-70525000D02*
X39000000Y-70525000D01*
X50000000Y-57475000D02*
X50000000Y-70525000D01*
X50000000Y-57475000D02*
X39000000Y-57475000D01*
D13*
X50580400Y-80677945D02*
X50532780Y-80535088D01*
X50532780Y-80535088D02*
X50532780Y-80296993D01*
X50532780Y-80296993D02*
X50580400Y-80201755D01*
X50580400Y-80201755D02*
X50628019Y-80154136D01*
X50628019Y-80154136D02*
X50723257Y-80106517D01*
X50723257Y-80106517D02*
X50818495Y-80106517D01*
X50818495Y-80106517D02*
X50913733Y-80154136D01*
X50913733Y-80154136D02*
X50961352Y-80201755D01*
X50961352Y-80201755D02*
X51008971Y-80296993D01*
X51008971Y-80296993D02*
X51056590Y-80487469D01*
X51056590Y-80487469D02*
X51104209Y-80582707D01*
X51104209Y-80582707D02*
X51151828Y-80630326D01*
X51151828Y-80630326D02*
X51247066Y-80677945D01*
X51247066Y-80677945D02*
X51342304Y-80677945D01*
X51342304Y-80677945D02*
X51437542Y-80630326D01*
X51437542Y-80630326D02*
X51485161Y-80582707D01*
X51485161Y-80582707D02*
X51532780Y-80487469D01*
X51532780Y-80487469D02*
X51532780Y-80249374D01*
X51532780Y-80249374D02*
X51485161Y-80106517D01*
X51056590Y-79677945D02*
X51056590Y-79344612D01*
X50532780Y-79201755D02*
X50532780Y-79677945D01*
X50532780Y-79677945D02*
X51532780Y-79677945D01*
X51532780Y-79677945D02*
X51532780Y-79201755D01*
X50532780Y-78773183D02*
X51532780Y-78773183D01*
X51532780Y-78773183D02*
X50532780Y-78201755D01*
X50532780Y-78201755D02*
X51532780Y-78201755D01*
X50580400Y-77773183D02*
X50532780Y-77630326D01*
X50532780Y-77630326D02*
X50532780Y-77392231D01*
X50532780Y-77392231D02*
X50580400Y-77296993D01*
X50580400Y-77296993D02*
X50628019Y-77249374D01*
X50628019Y-77249374D02*
X50723257Y-77201755D01*
X50723257Y-77201755D02*
X50818495Y-77201755D01*
X50818495Y-77201755D02*
X50913733Y-77249374D01*
X50913733Y-77249374D02*
X50961352Y-77296993D01*
X50961352Y-77296993D02*
X51008971Y-77392231D01*
X51008971Y-77392231D02*
X51056590Y-77582707D01*
X51056590Y-77582707D02*
X51104209Y-77677945D01*
X51104209Y-77677945D02*
X51151828Y-77725564D01*
X51151828Y-77725564D02*
X51247066Y-77773183D01*
X51247066Y-77773183D02*
X51342304Y-77773183D01*
X51342304Y-77773183D02*
X51437542Y-77725564D01*
X51437542Y-77725564D02*
X51485161Y-77677945D01*
X51485161Y-77677945D02*
X51532780Y-77582707D01*
X51532780Y-77582707D02*
X51532780Y-77344612D01*
X51532780Y-77344612D02*
X51485161Y-77201755D01*
X51532780Y-76582707D02*
X51532780Y-76392231D01*
X51532780Y-76392231D02*
X51485161Y-76296993D01*
X51485161Y-76296993D02*
X51389923Y-76201755D01*
X51389923Y-76201755D02*
X51199447Y-76154136D01*
X51199447Y-76154136D02*
X50866114Y-76154136D01*
X50866114Y-76154136D02*
X50675638Y-76201755D01*
X50675638Y-76201755D02*
X50580400Y-76296993D01*
X50580400Y-76296993D02*
X50532780Y-76392231D01*
X50532780Y-76392231D02*
X50532780Y-76582707D01*
X50532780Y-76582707D02*
X50580400Y-76677945D01*
X50580400Y-76677945D02*
X50675638Y-76773183D01*
X50675638Y-76773183D02*
X50866114Y-76820802D01*
X50866114Y-76820802D02*
X51199447Y-76820802D01*
X51199447Y-76820802D02*
X51389923Y-76773183D01*
X51389923Y-76773183D02*
X51485161Y-76677945D01*
X51485161Y-76677945D02*
X51532780Y-76582707D01*
X50532780Y-75154136D02*
X51008971Y-75487469D01*
X50532780Y-75725564D02*
X51532780Y-75725564D01*
X51532780Y-75725564D02*
X51532780Y-75344612D01*
X51532780Y-75344612D02*
X51485161Y-75249374D01*
X51485161Y-75249374D02*
X51437542Y-75201755D01*
X51437542Y-75201755D02*
X51342304Y-75154136D01*
X51342304Y-75154136D02*
X51199447Y-75154136D01*
X51199447Y-75154136D02*
X51104209Y-75201755D01*
X51104209Y-75201755D02*
X51056590Y-75249374D01*
X51056590Y-75249374D02*
X51008971Y-75344612D01*
X51008971Y-75344612D02*
X51008971Y-75725564D01*
X51437542Y-74011278D02*
X51485161Y-73963659D01*
X51485161Y-73963659D02*
X51532780Y-73868421D01*
X51532780Y-73868421D02*
X51532780Y-73630326D01*
X51532780Y-73630326D02*
X51485161Y-73535088D01*
X51485161Y-73535088D02*
X51437542Y-73487469D01*
X51437542Y-73487469D02*
X51342304Y-73439850D01*
X51342304Y-73439850D02*
X51247066Y-73439850D01*
X51247066Y-73439850D02*
X51104209Y-73487469D01*
X51104209Y-73487469D02*
X50532780Y-74058897D01*
X50532780Y-74058897D02*
X50532780Y-73439850D01*
X69419600Y-47322054D02*
X69467219Y-47464911D01*
X69467219Y-47464911D02*
X69467219Y-47703006D01*
X69467219Y-47703006D02*
X69419600Y-47798244D01*
X69419600Y-47798244D02*
X69371980Y-47845863D01*
X69371980Y-47845863D02*
X69276742Y-47893482D01*
X69276742Y-47893482D02*
X69181504Y-47893482D01*
X69181504Y-47893482D02*
X69086266Y-47845863D01*
X69086266Y-47845863D02*
X69038647Y-47798244D01*
X69038647Y-47798244D02*
X68991028Y-47703006D01*
X68991028Y-47703006D02*
X68943409Y-47512530D01*
X68943409Y-47512530D02*
X68895790Y-47417292D01*
X68895790Y-47417292D02*
X68848171Y-47369673D01*
X68848171Y-47369673D02*
X68752933Y-47322054D01*
X68752933Y-47322054D02*
X68657695Y-47322054D01*
X68657695Y-47322054D02*
X68562457Y-47369673D01*
X68562457Y-47369673D02*
X68514838Y-47417292D01*
X68514838Y-47417292D02*
X68467219Y-47512530D01*
X68467219Y-47512530D02*
X68467219Y-47750625D01*
X68467219Y-47750625D02*
X68514838Y-47893482D01*
X68943409Y-48322054D02*
X68943409Y-48655387D01*
X69467219Y-48798244D02*
X69467219Y-48322054D01*
X69467219Y-48322054D02*
X68467219Y-48322054D01*
X68467219Y-48322054D02*
X68467219Y-48798244D01*
X69467219Y-49226816D02*
X68467219Y-49226816D01*
X68467219Y-49226816D02*
X69467219Y-49798244D01*
X69467219Y-49798244D02*
X68467219Y-49798244D01*
X69419600Y-50226816D02*
X69467219Y-50369673D01*
X69467219Y-50369673D02*
X69467219Y-50607768D01*
X69467219Y-50607768D02*
X69419600Y-50703006D01*
X69419600Y-50703006D02*
X69371980Y-50750625D01*
X69371980Y-50750625D02*
X69276742Y-50798244D01*
X69276742Y-50798244D02*
X69181504Y-50798244D01*
X69181504Y-50798244D02*
X69086266Y-50750625D01*
X69086266Y-50750625D02*
X69038647Y-50703006D01*
X69038647Y-50703006D02*
X68991028Y-50607768D01*
X68991028Y-50607768D02*
X68943409Y-50417292D01*
X68943409Y-50417292D02*
X68895790Y-50322054D01*
X68895790Y-50322054D02*
X68848171Y-50274435D01*
X68848171Y-50274435D02*
X68752933Y-50226816D01*
X68752933Y-50226816D02*
X68657695Y-50226816D01*
X68657695Y-50226816D02*
X68562457Y-50274435D01*
X68562457Y-50274435D02*
X68514838Y-50322054D01*
X68514838Y-50322054D02*
X68467219Y-50417292D01*
X68467219Y-50417292D02*
X68467219Y-50655387D01*
X68467219Y-50655387D02*
X68514838Y-50798244D01*
X68467219Y-51417292D02*
X68467219Y-51607768D01*
X68467219Y-51607768D02*
X68514838Y-51703006D01*
X68514838Y-51703006D02*
X68610076Y-51798244D01*
X68610076Y-51798244D02*
X68800552Y-51845863D01*
X68800552Y-51845863D02*
X69133885Y-51845863D01*
X69133885Y-51845863D02*
X69324361Y-51798244D01*
X69324361Y-51798244D02*
X69419600Y-51703006D01*
X69419600Y-51703006D02*
X69467219Y-51607768D01*
X69467219Y-51607768D02*
X69467219Y-51417292D01*
X69467219Y-51417292D02*
X69419600Y-51322054D01*
X69419600Y-51322054D02*
X69324361Y-51226816D01*
X69324361Y-51226816D02*
X69133885Y-51179197D01*
X69133885Y-51179197D02*
X68800552Y-51179197D01*
X68800552Y-51179197D02*
X68610076Y-51226816D01*
X68610076Y-51226816D02*
X68514838Y-51322054D01*
X68514838Y-51322054D02*
X68467219Y-51417292D01*
X69467219Y-52845863D02*
X68991028Y-52512530D01*
X69467219Y-52274435D02*
X68467219Y-52274435D01*
X68467219Y-52274435D02*
X68467219Y-52655387D01*
X68467219Y-52655387D02*
X68514838Y-52750625D01*
X68514838Y-52750625D02*
X68562457Y-52798244D01*
X68562457Y-52798244D02*
X68657695Y-52845863D01*
X68657695Y-52845863D02*
X68800552Y-52845863D01*
X68800552Y-52845863D02*
X68895790Y-52798244D01*
X68895790Y-52798244D02*
X68943409Y-52750625D01*
X68943409Y-52750625D02*
X68991028Y-52655387D01*
X68991028Y-52655387D02*
X68991028Y-52274435D01*
X68800552Y-54464911D02*
X69467219Y-54464911D01*
X68419600Y-54226816D02*
X69133885Y-53988721D01*
X69133885Y-53988721D02*
X69133885Y-54607768D01*
X69419600Y-86322054D02*
X69467219Y-86464911D01*
X69467219Y-86464911D02*
X69467219Y-86703006D01*
X69467219Y-86703006D02*
X69419600Y-86798244D01*
X69419600Y-86798244D02*
X69371980Y-86845863D01*
X69371980Y-86845863D02*
X69276742Y-86893482D01*
X69276742Y-86893482D02*
X69181504Y-86893482D01*
X69181504Y-86893482D02*
X69086266Y-86845863D01*
X69086266Y-86845863D02*
X69038647Y-86798244D01*
X69038647Y-86798244D02*
X68991028Y-86703006D01*
X68991028Y-86703006D02*
X68943409Y-86512530D01*
X68943409Y-86512530D02*
X68895790Y-86417292D01*
X68895790Y-86417292D02*
X68848171Y-86369673D01*
X68848171Y-86369673D02*
X68752933Y-86322054D01*
X68752933Y-86322054D02*
X68657695Y-86322054D01*
X68657695Y-86322054D02*
X68562457Y-86369673D01*
X68562457Y-86369673D02*
X68514838Y-86417292D01*
X68514838Y-86417292D02*
X68467219Y-86512530D01*
X68467219Y-86512530D02*
X68467219Y-86750625D01*
X68467219Y-86750625D02*
X68514838Y-86893482D01*
X68943409Y-87322054D02*
X68943409Y-87655387D01*
X69467219Y-87798244D02*
X69467219Y-87322054D01*
X69467219Y-87322054D02*
X68467219Y-87322054D01*
X68467219Y-87322054D02*
X68467219Y-87798244D01*
X69467219Y-88226816D02*
X68467219Y-88226816D01*
X68467219Y-88226816D02*
X69467219Y-88798244D01*
X69467219Y-88798244D02*
X68467219Y-88798244D01*
X69419600Y-89226816D02*
X69467219Y-89369673D01*
X69467219Y-89369673D02*
X69467219Y-89607768D01*
X69467219Y-89607768D02*
X69419600Y-89703006D01*
X69419600Y-89703006D02*
X69371980Y-89750625D01*
X69371980Y-89750625D02*
X69276742Y-89798244D01*
X69276742Y-89798244D02*
X69181504Y-89798244D01*
X69181504Y-89798244D02*
X69086266Y-89750625D01*
X69086266Y-89750625D02*
X69038647Y-89703006D01*
X69038647Y-89703006D02*
X68991028Y-89607768D01*
X68991028Y-89607768D02*
X68943409Y-89417292D01*
X68943409Y-89417292D02*
X68895790Y-89322054D01*
X68895790Y-89322054D02*
X68848171Y-89274435D01*
X68848171Y-89274435D02*
X68752933Y-89226816D01*
X68752933Y-89226816D02*
X68657695Y-89226816D01*
X68657695Y-89226816D02*
X68562457Y-89274435D01*
X68562457Y-89274435D02*
X68514838Y-89322054D01*
X68514838Y-89322054D02*
X68467219Y-89417292D01*
X68467219Y-89417292D02*
X68467219Y-89655387D01*
X68467219Y-89655387D02*
X68514838Y-89798244D01*
X68467219Y-90417292D02*
X68467219Y-90607768D01*
X68467219Y-90607768D02*
X68514838Y-90703006D01*
X68514838Y-90703006D02*
X68610076Y-90798244D01*
X68610076Y-90798244D02*
X68800552Y-90845863D01*
X68800552Y-90845863D02*
X69133885Y-90845863D01*
X69133885Y-90845863D02*
X69324361Y-90798244D01*
X69324361Y-90798244D02*
X69419600Y-90703006D01*
X69419600Y-90703006D02*
X69467219Y-90607768D01*
X69467219Y-90607768D02*
X69467219Y-90417292D01*
X69467219Y-90417292D02*
X69419600Y-90322054D01*
X69419600Y-90322054D02*
X69324361Y-90226816D01*
X69324361Y-90226816D02*
X69133885Y-90179197D01*
X69133885Y-90179197D02*
X68800552Y-90179197D01*
X68800552Y-90179197D02*
X68610076Y-90226816D01*
X68610076Y-90226816D02*
X68514838Y-90322054D01*
X68514838Y-90322054D02*
X68467219Y-90417292D01*
X69467219Y-91845863D02*
X68991028Y-91512530D01*
X69467219Y-91274435D02*
X68467219Y-91274435D01*
X68467219Y-91274435D02*
X68467219Y-91655387D01*
X68467219Y-91655387D02*
X68514838Y-91750625D01*
X68514838Y-91750625D02*
X68562457Y-91798244D01*
X68562457Y-91798244D02*
X68657695Y-91845863D01*
X68657695Y-91845863D02*
X68800552Y-91845863D01*
X68800552Y-91845863D02*
X68895790Y-91798244D01*
X68895790Y-91798244D02*
X68943409Y-91750625D01*
X68943409Y-91750625D02*
X68991028Y-91655387D01*
X68991028Y-91655387D02*
X68991028Y-91274435D01*
X68467219Y-92941102D02*
X68467219Y-93607768D01*
X68467219Y-93607768D02*
X69467219Y-93179197D01*
X69419600Y-73322054D02*
X69467219Y-73464911D01*
X69467219Y-73464911D02*
X69467219Y-73703006D01*
X69467219Y-73703006D02*
X69419600Y-73798244D01*
X69419600Y-73798244D02*
X69371980Y-73845863D01*
X69371980Y-73845863D02*
X69276742Y-73893482D01*
X69276742Y-73893482D02*
X69181504Y-73893482D01*
X69181504Y-73893482D02*
X69086266Y-73845863D01*
X69086266Y-73845863D02*
X69038647Y-73798244D01*
X69038647Y-73798244D02*
X68991028Y-73703006D01*
X68991028Y-73703006D02*
X68943409Y-73512530D01*
X68943409Y-73512530D02*
X68895790Y-73417292D01*
X68895790Y-73417292D02*
X68848171Y-73369673D01*
X68848171Y-73369673D02*
X68752933Y-73322054D01*
X68752933Y-73322054D02*
X68657695Y-73322054D01*
X68657695Y-73322054D02*
X68562457Y-73369673D01*
X68562457Y-73369673D02*
X68514838Y-73417292D01*
X68514838Y-73417292D02*
X68467219Y-73512530D01*
X68467219Y-73512530D02*
X68467219Y-73750625D01*
X68467219Y-73750625D02*
X68514838Y-73893482D01*
X68943409Y-74322054D02*
X68943409Y-74655387D01*
X69467219Y-74798244D02*
X69467219Y-74322054D01*
X69467219Y-74322054D02*
X68467219Y-74322054D01*
X68467219Y-74322054D02*
X68467219Y-74798244D01*
X69467219Y-75226816D02*
X68467219Y-75226816D01*
X68467219Y-75226816D02*
X69467219Y-75798244D01*
X69467219Y-75798244D02*
X68467219Y-75798244D01*
X69419600Y-76226816D02*
X69467219Y-76369673D01*
X69467219Y-76369673D02*
X69467219Y-76607768D01*
X69467219Y-76607768D02*
X69419600Y-76703006D01*
X69419600Y-76703006D02*
X69371980Y-76750625D01*
X69371980Y-76750625D02*
X69276742Y-76798244D01*
X69276742Y-76798244D02*
X69181504Y-76798244D01*
X69181504Y-76798244D02*
X69086266Y-76750625D01*
X69086266Y-76750625D02*
X69038647Y-76703006D01*
X69038647Y-76703006D02*
X68991028Y-76607768D01*
X68991028Y-76607768D02*
X68943409Y-76417292D01*
X68943409Y-76417292D02*
X68895790Y-76322054D01*
X68895790Y-76322054D02*
X68848171Y-76274435D01*
X68848171Y-76274435D02*
X68752933Y-76226816D01*
X68752933Y-76226816D02*
X68657695Y-76226816D01*
X68657695Y-76226816D02*
X68562457Y-76274435D01*
X68562457Y-76274435D02*
X68514838Y-76322054D01*
X68514838Y-76322054D02*
X68467219Y-76417292D01*
X68467219Y-76417292D02*
X68467219Y-76655387D01*
X68467219Y-76655387D02*
X68514838Y-76798244D01*
X68467219Y-77417292D02*
X68467219Y-77607768D01*
X68467219Y-77607768D02*
X68514838Y-77703006D01*
X68514838Y-77703006D02*
X68610076Y-77798244D01*
X68610076Y-77798244D02*
X68800552Y-77845863D01*
X68800552Y-77845863D02*
X69133885Y-77845863D01*
X69133885Y-77845863D02*
X69324361Y-77798244D01*
X69324361Y-77798244D02*
X69419600Y-77703006D01*
X69419600Y-77703006D02*
X69467219Y-77607768D01*
X69467219Y-77607768D02*
X69467219Y-77417292D01*
X69467219Y-77417292D02*
X69419600Y-77322054D01*
X69419600Y-77322054D02*
X69324361Y-77226816D01*
X69324361Y-77226816D02*
X69133885Y-77179197D01*
X69133885Y-77179197D02*
X68800552Y-77179197D01*
X68800552Y-77179197D02*
X68610076Y-77226816D01*
X68610076Y-77226816D02*
X68514838Y-77322054D01*
X68514838Y-77322054D02*
X68467219Y-77417292D01*
X69467219Y-78845863D02*
X68991028Y-78512530D01*
X69467219Y-78274435D02*
X68467219Y-78274435D01*
X68467219Y-78274435D02*
X68467219Y-78655387D01*
X68467219Y-78655387D02*
X68514838Y-78750625D01*
X68514838Y-78750625D02*
X68562457Y-78798244D01*
X68562457Y-78798244D02*
X68657695Y-78845863D01*
X68657695Y-78845863D02*
X68800552Y-78845863D01*
X68800552Y-78845863D02*
X68895790Y-78798244D01*
X68895790Y-78798244D02*
X68943409Y-78750625D01*
X68943409Y-78750625D02*
X68991028Y-78655387D01*
X68991028Y-78655387D02*
X68991028Y-78274435D01*
X68467219Y-80464911D02*
X68467219Y-80274435D01*
X68467219Y-80274435D02*
X68514838Y-80179197D01*
X68514838Y-80179197D02*
X68562457Y-80131578D01*
X68562457Y-80131578D02*
X68705314Y-80036340D01*
X68705314Y-80036340D02*
X68895790Y-79988721D01*
X68895790Y-79988721D02*
X69276742Y-79988721D01*
X69276742Y-79988721D02*
X69371980Y-80036340D01*
X69371980Y-80036340D02*
X69419600Y-80083959D01*
X69419600Y-80083959D02*
X69467219Y-80179197D01*
X69467219Y-80179197D02*
X69467219Y-80369673D01*
X69467219Y-80369673D02*
X69419600Y-80464911D01*
X69419600Y-80464911D02*
X69371980Y-80512530D01*
X69371980Y-80512530D02*
X69276742Y-80560149D01*
X69276742Y-80560149D02*
X69038647Y-80560149D01*
X69038647Y-80560149D02*
X68943409Y-80512530D01*
X68943409Y-80512530D02*
X68895790Y-80464911D01*
X68895790Y-80464911D02*
X68848171Y-80369673D01*
X68848171Y-80369673D02*
X68848171Y-80179197D01*
X68848171Y-80179197D02*
X68895790Y-80083959D01*
X68895790Y-80083959D02*
X68943409Y-80036340D01*
X68943409Y-80036340D02*
X69038647Y-79988721D01*
X69419600Y-60322054D02*
X69467219Y-60464911D01*
X69467219Y-60464911D02*
X69467219Y-60703006D01*
X69467219Y-60703006D02*
X69419600Y-60798244D01*
X69419600Y-60798244D02*
X69371980Y-60845863D01*
X69371980Y-60845863D02*
X69276742Y-60893482D01*
X69276742Y-60893482D02*
X69181504Y-60893482D01*
X69181504Y-60893482D02*
X69086266Y-60845863D01*
X69086266Y-60845863D02*
X69038647Y-60798244D01*
X69038647Y-60798244D02*
X68991028Y-60703006D01*
X68991028Y-60703006D02*
X68943409Y-60512530D01*
X68943409Y-60512530D02*
X68895790Y-60417292D01*
X68895790Y-60417292D02*
X68848171Y-60369673D01*
X68848171Y-60369673D02*
X68752933Y-60322054D01*
X68752933Y-60322054D02*
X68657695Y-60322054D01*
X68657695Y-60322054D02*
X68562457Y-60369673D01*
X68562457Y-60369673D02*
X68514838Y-60417292D01*
X68514838Y-60417292D02*
X68467219Y-60512530D01*
X68467219Y-60512530D02*
X68467219Y-60750625D01*
X68467219Y-60750625D02*
X68514838Y-60893482D01*
X68943409Y-61322054D02*
X68943409Y-61655387D01*
X69467219Y-61798244D02*
X69467219Y-61322054D01*
X69467219Y-61322054D02*
X68467219Y-61322054D01*
X68467219Y-61322054D02*
X68467219Y-61798244D01*
X69467219Y-62226816D02*
X68467219Y-62226816D01*
X68467219Y-62226816D02*
X69467219Y-62798244D01*
X69467219Y-62798244D02*
X68467219Y-62798244D01*
X69419600Y-63226816D02*
X69467219Y-63369673D01*
X69467219Y-63369673D02*
X69467219Y-63607768D01*
X69467219Y-63607768D02*
X69419600Y-63703006D01*
X69419600Y-63703006D02*
X69371980Y-63750625D01*
X69371980Y-63750625D02*
X69276742Y-63798244D01*
X69276742Y-63798244D02*
X69181504Y-63798244D01*
X69181504Y-63798244D02*
X69086266Y-63750625D01*
X69086266Y-63750625D02*
X69038647Y-63703006D01*
X69038647Y-63703006D02*
X68991028Y-63607768D01*
X68991028Y-63607768D02*
X68943409Y-63417292D01*
X68943409Y-63417292D02*
X68895790Y-63322054D01*
X68895790Y-63322054D02*
X68848171Y-63274435D01*
X68848171Y-63274435D02*
X68752933Y-63226816D01*
X68752933Y-63226816D02*
X68657695Y-63226816D01*
X68657695Y-63226816D02*
X68562457Y-63274435D01*
X68562457Y-63274435D02*
X68514838Y-63322054D01*
X68514838Y-63322054D02*
X68467219Y-63417292D01*
X68467219Y-63417292D02*
X68467219Y-63655387D01*
X68467219Y-63655387D02*
X68514838Y-63798244D01*
X68467219Y-64417292D02*
X68467219Y-64607768D01*
X68467219Y-64607768D02*
X68514838Y-64703006D01*
X68514838Y-64703006D02*
X68610076Y-64798244D01*
X68610076Y-64798244D02*
X68800552Y-64845863D01*
X68800552Y-64845863D02*
X69133885Y-64845863D01*
X69133885Y-64845863D02*
X69324361Y-64798244D01*
X69324361Y-64798244D02*
X69419600Y-64703006D01*
X69419600Y-64703006D02*
X69467219Y-64607768D01*
X69467219Y-64607768D02*
X69467219Y-64417292D01*
X69467219Y-64417292D02*
X69419600Y-64322054D01*
X69419600Y-64322054D02*
X69324361Y-64226816D01*
X69324361Y-64226816D02*
X69133885Y-64179197D01*
X69133885Y-64179197D02*
X68800552Y-64179197D01*
X68800552Y-64179197D02*
X68610076Y-64226816D01*
X68610076Y-64226816D02*
X68514838Y-64322054D01*
X68514838Y-64322054D02*
X68467219Y-64417292D01*
X69467219Y-65845863D02*
X68991028Y-65512530D01*
X69467219Y-65274435D02*
X68467219Y-65274435D01*
X68467219Y-65274435D02*
X68467219Y-65655387D01*
X68467219Y-65655387D02*
X68514838Y-65750625D01*
X68514838Y-65750625D02*
X68562457Y-65798244D01*
X68562457Y-65798244D02*
X68657695Y-65845863D01*
X68657695Y-65845863D02*
X68800552Y-65845863D01*
X68800552Y-65845863D02*
X68895790Y-65798244D01*
X68895790Y-65798244D02*
X68943409Y-65750625D01*
X68943409Y-65750625D02*
X68991028Y-65655387D01*
X68991028Y-65655387D02*
X68991028Y-65274435D01*
X68467219Y-67512530D02*
X68467219Y-67036340D01*
X68467219Y-67036340D02*
X68943409Y-66988721D01*
X68943409Y-66988721D02*
X68895790Y-67036340D01*
X68895790Y-67036340D02*
X68848171Y-67131578D01*
X68848171Y-67131578D02*
X68848171Y-67369673D01*
X68848171Y-67369673D02*
X68895790Y-67464911D01*
X68895790Y-67464911D02*
X68943409Y-67512530D01*
X68943409Y-67512530D02*
X69038647Y-67560149D01*
X69038647Y-67560149D02*
X69276742Y-67560149D01*
X69276742Y-67560149D02*
X69371980Y-67512530D01*
X69371980Y-67512530D02*
X69419600Y-67464911D01*
X69419600Y-67464911D02*
X69467219Y-67369673D01*
X69467219Y-67369673D02*
X69467219Y-67131578D01*
X69467219Y-67131578D02*
X69419600Y-67036340D01*
X69419600Y-67036340D02*
X69371980Y-66988721D01*
X50580400Y-67677945D02*
X50532780Y-67535088D01*
X50532780Y-67535088D02*
X50532780Y-67296993D01*
X50532780Y-67296993D02*
X50580400Y-67201755D01*
X50580400Y-67201755D02*
X50628019Y-67154136D01*
X50628019Y-67154136D02*
X50723257Y-67106517D01*
X50723257Y-67106517D02*
X50818495Y-67106517D01*
X50818495Y-67106517D02*
X50913733Y-67154136D01*
X50913733Y-67154136D02*
X50961352Y-67201755D01*
X50961352Y-67201755D02*
X51008971Y-67296993D01*
X51008971Y-67296993D02*
X51056590Y-67487469D01*
X51056590Y-67487469D02*
X51104209Y-67582707D01*
X51104209Y-67582707D02*
X51151828Y-67630326D01*
X51151828Y-67630326D02*
X51247066Y-67677945D01*
X51247066Y-67677945D02*
X51342304Y-67677945D01*
X51342304Y-67677945D02*
X51437542Y-67630326D01*
X51437542Y-67630326D02*
X51485161Y-67582707D01*
X51485161Y-67582707D02*
X51532780Y-67487469D01*
X51532780Y-67487469D02*
X51532780Y-67249374D01*
X51532780Y-67249374D02*
X51485161Y-67106517D01*
X51056590Y-66677945D02*
X51056590Y-66344612D01*
X50532780Y-66201755D02*
X50532780Y-66677945D01*
X50532780Y-66677945D02*
X51532780Y-66677945D01*
X51532780Y-66677945D02*
X51532780Y-66201755D01*
X50532780Y-65773183D02*
X51532780Y-65773183D01*
X51532780Y-65773183D02*
X50532780Y-65201755D01*
X50532780Y-65201755D02*
X51532780Y-65201755D01*
X50580400Y-64773183D02*
X50532780Y-64630326D01*
X50532780Y-64630326D02*
X50532780Y-64392231D01*
X50532780Y-64392231D02*
X50580400Y-64296993D01*
X50580400Y-64296993D02*
X50628019Y-64249374D01*
X50628019Y-64249374D02*
X50723257Y-64201755D01*
X50723257Y-64201755D02*
X50818495Y-64201755D01*
X50818495Y-64201755D02*
X50913733Y-64249374D01*
X50913733Y-64249374D02*
X50961352Y-64296993D01*
X50961352Y-64296993D02*
X51008971Y-64392231D01*
X51008971Y-64392231D02*
X51056590Y-64582707D01*
X51056590Y-64582707D02*
X51104209Y-64677945D01*
X51104209Y-64677945D02*
X51151828Y-64725564D01*
X51151828Y-64725564D02*
X51247066Y-64773183D01*
X51247066Y-64773183D02*
X51342304Y-64773183D01*
X51342304Y-64773183D02*
X51437542Y-64725564D01*
X51437542Y-64725564D02*
X51485161Y-64677945D01*
X51485161Y-64677945D02*
X51532780Y-64582707D01*
X51532780Y-64582707D02*
X51532780Y-64344612D01*
X51532780Y-64344612D02*
X51485161Y-64201755D01*
X51532780Y-63582707D02*
X51532780Y-63392231D01*
X51532780Y-63392231D02*
X51485161Y-63296993D01*
X51485161Y-63296993D02*
X51389923Y-63201755D01*
X51389923Y-63201755D02*
X51199447Y-63154136D01*
X51199447Y-63154136D02*
X50866114Y-63154136D01*
X50866114Y-63154136D02*
X50675638Y-63201755D01*
X50675638Y-63201755D02*
X50580400Y-63296993D01*
X50580400Y-63296993D02*
X50532780Y-63392231D01*
X50532780Y-63392231D02*
X50532780Y-63582707D01*
X50532780Y-63582707D02*
X50580400Y-63677945D01*
X50580400Y-63677945D02*
X50675638Y-63773183D01*
X50675638Y-63773183D02*
X50866114Y-63820802D01*
X50866114Y-63820802D02*
X51199447Y-63820802D01*
X51199447Y-63820802D02*
X51389923Y-63773183D01*
X51389923Y-63773183D02*
X51485161Y-63677945D01*
X51485161Y-63677945D02*
X51532780Y-63582707D01*
X50532780Y-62154136D02*
X51008971Y-62487469D01*
X50532780Y-62725564D02*
X51532780Y-62725564D01*
X51532780Y-62725564D02*
X51532780Y-62344612D01*
X51532780Y-62344612D02*
X51485161Y-62249374D01*
X51485161Y-62249374D02*
X51437542Y-62201755D01*
X51437542Y-62201755D02*
X51342304Y-62154136D01*
X51342304Y-62154136D02*
X51199447Y-62154136D01*
X51199447Y-62154136D02*
X51104209Y-62201755D01*
X51104209Y-62201755D02*
X51056590Y-62249374D01*
X51056590Y-62249374D02*
X51008971Y-62344612D01*
X51008971Y-62344612D02*
X51008971Y-62725564D01*
X50532780Y-60439850D02*
X50532780Y-61011278D01*
X50532780Y-60725564D02*
X51532780Y-60725564D01*
X51532780Y-60725564D02*
X51389923Y-60820802D01*
X51389923Y-60820802D02*
X51294685Y-60916040D01*
X51294685Y-60916040D02*
X51247066Y-61011278D01*
X50580400Y-93677945D02*
X50532780Y-93535088D01*
X50532780Y-93535088D02*
X50532780Y-93296993D01*
X50532780Y-93296993D02*
X50580400Y-93201755D01*
X50580400Y-93201755D02*
X50628019Y-93154136D01*
X50628019Y-93154136D02*
X50723257Y-93106517D01*
X50723257Y-93106517D02*
X50818495Y-93106517D01*
X50818495Y-93106517D02*
X50913733Y-93154136D01*
X50913733Y-93154136D02*
X50961352Y-93201755D01*
X50961352Y-93201755D02*
X51008971Y-93296993D01*
X51008971Y-93296993D02*
X51056590Y-93487469D01*
X51056590Y-93487469D02*
X51104209Y-93582707D01*
X51104209Y-93582707D02*
X51151828Y-93630326D01*
X51151828Y-93630326D02*
X51247066Y-93677945D01*
X51247066Y-93677945D02*
X51342304Y-93677945D01*
X51342304Y-93677945D02*
X51437542Y-93630326D01*
X51437542Y-93630326D02*
X51485161Y-93582707D01*
X51485161Y-93582707D02*
X51532780Y-93487469D01*
X51532780Y-93487469D02*
X51532780Y-93249374D01*
X51532780Y-93249374D02*
X51485161Y-93106517D01*
X51056590Y-92677945D02*
X51056590Y-92344612D01*
X50532780Y-92201755D02*
X50532780Y-92677945D01*
X50532780Y-92677945D02*
X51532780Y-92677945D01*
X51532780Y-92677945D02*
X51532780Y-92201755D01*
X50532780Y-91773183D02*
X51532780Y-91773183D01*
X51532780Y-91773183D02*
X50532780Y-91201755D01*
X50532780Y-91201755D02*
X51532780Y-91201755D01*
X50580400Y-90773183D02*
X50532780Y-90630326D01*
X50532780Y-90630326D02*
X50532780Y-90392231D01*
X50532780Y-90392231D02*
X50580400Y-90296993D01*
X50580400Y-90296993D02*
X50628019Y-90249374D01*
X50628019Y-90249374D02*
X50723257Y-90201755D01*
X50723257Y-90201755D02*
X50818495Y-90201755D01*
X50818495Y-90201755D02*
X50913733Y-90249374D01*
X50913733Y-90249374D02*
X50961352Y-90296993D01*
X50961352Y-90296993D02*
X51008971Y-90392231D01*
X51008971Y-90392231D02*
X51056590Y-90582707D01*
X51056590Y-90582707D02*
X51104209Y-90677945D01*
X51104209Y-90677945D02*
X51151828Y-90725564D01*
X51151828Y-90725564D02*
X51247066Y-90773183D01*
X51247066Y-90773183D02*
X51342304Y-90773183D01*
X51342304Y-90773183D02*
X51437542Y-90725564D01*
X51437542Y-90725564D02*
X51485161Y-90677945D01*
X51485161Y-90677945D02*
X51532780Y-90582707D01*
X51532780Y-90582707D02*
X51532780Y-90344612D01*
X51532780Y-90344612D02*
X51485161Y-90201755D01*
X51532780Y-89582707D02*
X51532780Y-89392231D01*
X51532780Y-89392231D02*
X51485161Y-89296993D01*
X51485161Y-89296993D02*
X51389923Y-89201755D01*
X51389923Y-89201755D02*
X51199447Y-89154136D01*
X51199447Y-89154136D02*
X50866114Y-89154136D01*
X50866114Y-89154136D02*
X50675638Y-89201755D01*
X50675638Y-89201755D02*
X50580400Y-89296993D01*
X50580400Y-89296993D02*
X50532780Y-89392231D01*
X50532780Y-89392231D02*
X50532780Y-89582707D01*
X50532780Y-89582707D02*
X50580400Y-89677945D01*
X50580400Y-89677945D02*
X50675638Y-89773183D01*
X50675638Y-89773183D02*
X50866114Y-89820802D01*
X50866114Y-89820802D02*
X51199447Y-89820802D01*
X51199447Y-89820802D02*
X51389923Y-89773183D01*
X51389923Y-89773183D02*
X51485161Y-89677945D01*
X51485161Y-89677945D02*
X51532780Y-89582707D01*
X50532780Y-88154136D02*
X51008971Y-88487469D01*
X50532780Y-88725564D02*
X51532780Y-88725564D01*
X51532780Y-88725564D02*
X51532780Y-88344612D01*
X51532780Y-88344612D02*
X51485161Y-88249374D01*
X51485161Y-88249374D02*
X51437542Y-88201755D01*
X51437542Y-88201755D02*
X51342304Y-88154136D01*
X51342304Y-88154136D02*
X51199447Y-88154136D01*
X51199447Y-88154136D02*
X51104209Y-88201755D01*
X51104209Y-88201755D02*
X51056590Y-88249374D01*
X51056590Y-88249374D02*
X51008971Y-88344612D01*
X51008971Y-88344612D02*
X51008971Y-88725564D01*
X51532780Y-87058897D02*
X51532780Y-86439850D01*
X51532780Y-86439850D02*
X51151828Y-86773183D01*
X51151828Y-86773183D02*
X51151828Y-86630326D01*
X51151828Y-86630326D02*
X51104209Y-86535088D01*
X51104209Y-86535088D02*
X51056590Y-86487469D01*
X51056590Y-86487469D02*
X50961352Y-86439850D01*
X50961352Y-86439850D02*
X50723257Y-86439850D01*
X50723257Y-86439850D02*
X50628019Y-86487469D01*
X50628019Y-86487469D02*
X50580400Y-86535088D01*
X50580400Y-86535088D02*
X50532780Y-86630326D01*
X50532780Y-86630326D02*
X50532780Y-86916040D01*
X50532780Y-86916040D02*
X50580400Y-87011278D01*
X50580400Y-87011278D02*
X50628019Y-87058897D01*
X50580400Y-54677945D02*
X50532780Y-54535088D01*
X50532780Y-54535088D02*
X50532780Y-54296993D01*
X50532780Y-54296993D02*
X50580400Y-54201755D01*
X50580400Y-54201755D02*
X50628019Y-54154136D01*
X50628019Y-54154136D02*
X50723257Y-54106517D01*
X50723257Y-54106517D02*
X50818495Y-54106517D01*
X50818495Y-54106517D02*
X50913733Y-54154136D01*
X50913733Y-54154136D02*
X50961352Y-54201755D01*
X50961352Y-54201755D02*
X51008971Y-54296993D01*
X51008971Y-54296993D02*
X51056590Y-54487469D01*
X51056590Y-54487469D02*
X51104209Y-54582707D01*
X51104209Y-54582707D02*
X51151828Y-54630326D01*
X51151828Y-54630326D02*
X51247066Y-54677945D01*
X51247066Y-54677945D02*
X51342304Y-54677945D01*
X51342304Y-54677945D02*
X51437542Y-54630326D01*
X51437542Y-54630326D02*
X51485161Y-54582707D01*
X51485161Y-54582707D02*
X51532780Y-54487469D01*
X51532780Y-54487469D02*
X51532780Y-54249374D01*
X51532780Y-54249374D02*
X51485161Y-54106517D01*
X51056590Y-53677945D02*
X51056590Y-53344612D01*
X50532780Y-53201755D02*
X50532780Y-53677945D01*
X50532780Y-53677945D02*
X51532780Y-53677945D01*
X51532780Y-53677945D02*
X51532780Y-53201755D01*
X50532780Y-52773183D02*
X51532780Y-52773183D01*
X51532780Y-52773183D02*
X50532780Y-52201755D01*
X50532780Y-52201755D02*
X51532780Y-52201755D01*
X50580400Y-51773183D02*
X50532780Y-51630326D01*
X50532780Y-51630326D02*
X50532780Y-51392231D01*
X50532780Y-51392231D02*
X50580400Y-51296993D01*
X50580400Y-51296993D02*
X50628019Y-51249374D01*
X50628019Y-51249374D02*
X50723257Y-51201755D01*
X50723257Y-51201755D02*
X50818495Y-51201755D01*
X50818495Y-51201755D02*
X50913733Y-51249374D01*
X50913733Y-51249374D02*
X50961352Y-51296993D01*
X50961352Y-51296993D02*
X51008971Y-51392231D01*
X51008971Y-51392231D02*
X51056590Y-51582707D01*
X51056590Y-51582707D02*
X51104209Y-51677945D01*
X51104209Y-51677945D02*
X51151828Y-51725564D01*
X51151828Y-51725564D02*
X51247066Y-51773183D01*
X51247066Y-51773183D02*
X51342304Y-51773183D01*
X51342304Y-51773183D02*
X51437542Y-51725564D01*
X51437542Y-51725564D02*
X51485161Y-51677945D01*
X51485161Y-51677945D02*
X51532780Y-51582707D01*
X51532780Y-51582707D02*
X51532780Y-51344612D01*
X51532780Y-51344612D02*
X51485161Y-51201755D01*
X51532780Y-50582707D02*
X51532780Y-50392231D01*
X51532780Y-50392231D02*
X51485161Y-50296993D01*
X51485161Y-50296993D02*
X51389923Y-50201755D01*
X51389923Y-50201755D02*
X51199447Y-50154136D01*
X51199447Y-50154136D02*
X50866114Y-50154136D01*
X50866114Y-50154136D02*
X50675638Y-50201755D01*
X50675638Y-50201755D02*
X50580400Y-50296993D01*
X50580400Y-50296993D02*
X50532780Y-50392231D01*
X50532780Y-50392231D02*
X50532780Y-50582707D01*
X50532780Y-50582707D02*
X50580400Y-50677945D01*
X50580400Y-50677945D02*
X50675638Y-50773183D01*
X50675638Y-50773183D02*
X50866114Y-50820802D01*
X50866114Y-50820802D02*
X51199447Y-50820802D01*
X51199447Y-50820802D02*
X51389923Y-50773183D01*
X51389923Y-50773183D02*
X51485161Y-50677945D01*
X51485161Y-50677945D02*
X51532780Y-50582707D01*
X50532780Y-49154136D02*
X51008971Y-49487469D01*
X50532780Y-49725564D02*
X51532780Y-49725564D01*
X51532780Y-49725564D02*
X51532780Y-49344612D01*
X51532780Y-49344612D02*
X51485161Y-49249374D01*
X51485161Y-49249374D02*
X51437542Y-49201755D01*
X51437542Y-49201755D02*
X51342304Y-49154136D01*
X51342304Y-49154136D02*
X51199447Y-49154136D01*
X51199447Y-49154136D02*
X51104209Y-49201755D01*
X51104209Y-49201755D02*
X51056590Y-49249374D01*
X51056590Y-49249374D02*
X51008971Y-49344612D01*
X51008971Y-49344612D02*
X51008971Y-49725564D01*
X51532780Y-47773183D02*
X51532780Y-47677945D01*
X51532780Y-47677945D02*
X51485161Y-47582707D01*
X51485161Y-47582707D02*
X51437542Y-47535088D01*
X51437542Y-47535088D02*
X51342304Y-47487469D01*
X51342304Y-47487469D02*
X51151828Y-47439850D01*
X51151828Y-47439850D02*
X50913733Y-47439850D01*
X50913733Y-47439850D02*
X50723257Y-47487469D01*
X50723257Y-47487469D02*
X50628019Y-47535088D01*
X50628019Y-47535088D02*
X50580400Y-47582707D01*
X50580400Y-47582707D02*
X50532780Y-47677945D01*
X50532780Y-47677945D02*
X50532780Y-47773183D01*
X50532780Y-47773183D02*
X50580400Y-47868421D01*
X50580400Y-47868421D02*
X50628019Y-47916040D01*
X50628019Y-47916040D02*
X50723257Y-47963659D01*
X50723257Y-47963659D02*
X50913733Y-48011278D01*
X50913733Y-48011278D02*
X51151828Y-48011278D01*
X51151828Y-48011278D02*
X51342304Y-47963659D01*
X51342304Y-47963659D02*
X51437542Y-47916040D01*
X51437542Y-47916040D02*
X51485161Y-47868421D01*
X51485161Y-47868421D02*
X51532780Y-47773183D01*
D14*
%TO.C,M21*%
X77765000Y-51261252D02*
X77765000Y-50738748D01*
X79235000Y-51261252D02*
X79235000Y-50738748D01*
%TO.C,M12*%
X43805000Y-90261252D02*
X43805000Y-89738748D01*
X45275000Y-90261252D02*
X45275000Y-89738748D01*
%TO.C,M23*%
X77765000Y-77261252D02*
X77765000Y-76738748D01*
X79235000Y-77261252D02*
X79235000Y-76738748D01*
%TO.C,M10*%
X43805000Y-64261252D02*
X43805000Y-63738748D01*
X45275000Y-64261252D02*
X45275000Y-63738748D01*
%TO.C,M20*%
X46815000Y-90261252D02*
X46815000Y-89738748D01*
X48285000Y-90261252D02*
X48285000Y-89738748D01*
%TO.C,M9*%
X43805000Y-51261252D02*
X43805000Y-50738748D01*
X45275000Y-51261252D02*
X45275000Y-50738748D01*
%TO.C,M13*%
X74755000Y-51261252D02*
X74755000Y-50738748D01*
X76225000Y-51261252D02*
X76225000Y-50738748D01*
%TO.C,M19*%
X46815000Y-77261252D02*
X46815000Y-76738748D01*
X48285000Y-77261252D02*
X48285000Y-76738748D01*
%TO.C,M14*%
X74755000Y-64261252D02*
X74755000Y-63738748D01*
X76225000Y-64261252D02*
X76225000Y-63738748D01*
%TO.C,M2*%
X40795000Y-64261252D02*
X40795000Y-63738748D01*
X42265000Y-64261252D02*
X42265000Y-63738748D01*
%TO.C,M4*%
X40795000Y-90261252D02*
X40795000Y-89738748D01*
X42265000Y-90261252D02*
X42265000Y-89738748D01*
%TO.C,M22*%
X77765000Y-64261252D02*
X77765000Y-63738748D01*
X79235000Y-64261252D02*
X79235000Y-63738748D01*
%TO.C,M16*%
X74765000Y-90261252D02*
X74765000Y-89738748D01*
X76235000Y-90261252D02*
X76235000Y-89738748D01*
%TO.C,M18*%
X46815000Y-64261252D02*
X46815000Y-63738748D01*
X48285000Y-64261252D02*
X48285000Y-63738748D01*
%TO.C,M6*%
X71745000Y-64261252D02*
X71745000Y-63738748D01*
X73215000Y-64261252D02*
X73215000Y-63738748D01*
%TO.C,M11*%
X43805000Y-77261252D02*
X43805000Y-76738748D01*
X45275000Y-77261252D02*
X45275000Y-76738748D01*
%TO.C,M7*%
X71745000Y-77261252D02*
X71745000Y-76738748D01*
X73215000Y-77261252D02*
X73215000Y-76738748D01*
%TO.C,M15*%
X74755000Y-77261252D02*
X74755000Y-76738748D01*
X76225000Y-77261252D02*
X76225000Y-76738748D01*
%TO.C,M24*%
X77775000Y-90261252D02*
X77775000Y-89738748D01*
X79245000Y-90261252D02*
X79245000Y-89738748D01*
%TO.C,M17*%
X46815000Y-51261252D02*
X46815000Y-50738748D01*
X48285000Y-51261252D02*
X48285000Y-50738748D01*
%TO.C,M5*%
X71745000Y-51261252D02*
X71745000Y-50738748D01*
X73215000Y-51261252D02*
X73215000Y-50738748D01*
%TO.C,M8*%
X71755000Y-90261252D02*
X71755000Y-89738748D01*
X73225000Y-90261252D02*
X73225000Y-89738748D01*
%TO.C,M3*%
X40795000Y-77261252D02*
X40795000Y-76738748D01*
X42265000Y-77261252D02*
X42265000Y-76738748D01*
%TO.C,M1*%
X40795000Y-51261252D02*
X40795000Y-50738748D01*
X42265000Y-51261252D02*
X42265000Y-50738748D01*
%TD*%
%LPC*%
D15*
%TO.C,J20*%
X56130000Y-98000000D03*
D16*
X58670000Y-98000000D03*
X61210000Y-98000000D03*
X63750000Y-98000000D03*
%TD*%
D15*
%TO.C,J4*%
X42000000Y-47000000D03*
D16*
X44540000Y-47000000D03*
X47080000Y-47000000D03*
%TD*%
D15*
%TO.C,J18*%
X72950000Y-86000000D03*
D16*
X75490000Y-86000000D03*
X78030000Y-86000000D03*
%TD*%
D15*
%TO.C,J11*%
X42000000Y-94000000D03*
D16*
X44540000Y-94000000D03*
X47080000Y-94000000D03*
%TD*%
D15*
%TO.C,J19*%
X72950000Y-94000000D03*
D16*
X75490000Y-94000000D03*
X78030000Y-94000000D03*
%TD*%
D15*
%TO.C,J2*%
X46380000Y-42000000D03*
D16*
X48920000Y-42000000D03*
X51460000Y-42000000D03*
X54000000Y-42000000D03*
%TD*%
D15*
%TO.C,J10*%
X42000000Y-86000000D03*
D16*
X44540000Y-86000000D03*
X47080000Y-86000000D03*
%TD*%
D15*
%TO.C,J7*%
X42000000Y-68000000D03*
D16*
X44540000Y-68000000D03*
X47080000Y-68000000D03*
%TD*%
D15*
%TO.C,J15*%
X72950000Y-68000000D03*
D16*
X75490000Y-68000000D03*
X78030000Y-68000000D03*
%TD*%
D15*
%TO.C,J12*%
X72950000Y-47000000D03*
D16*
X75490000Y-47000000D03*
X78030000Y-47000000D03*
%TD*%
D15*
%TO.C,J13*%
X72950000Y-55000000D03*
D16*
X75490000Y-55000000D03*
X78030000Y-55000000D03*
%TD*%
D15*
%TO.C,J3*%
X70920000Y-42000000D03*
D16*
X73460000Y-42000000D03*
%TD*%
D15*
%TO.C,J17*%
X72950000Y-81000000D03*
D16*
X75490000Y-81000000D03*
X78030000Y-81000000D03*
%TD*%
D15*
%TO.C,J14*%
X72950000Y-60000000D03*
D16*
X75490000Y-60000000D03*
X78030000Y-60000000D03*
%TD*%
D15*
%TO.C,J8*%
X42000000Y-73000000D03*
D16*
X44540000Y-73000000D03*
X47080000Y-73000000D03*
%TD*%
D15*
%TO.C,J16*%
X72950000Y-73000000D03*
D16*
X75490000Y-73000000D03*
X78030000Y-73000000D03*
%TD*%
D15*
%TO.C,J9*%
X42000000Y-81000000D03*
D16*
X44540000Y-81000000D03*
X47080000Y-81000000D03*
%TD*%
D15*
%TO.C,J6*%
X42000000Y-60000000D03*
D16*
X44540000Y-60000000D03*
X47080000Y-60000000D03*
%TD*%
D15*
%TO.C,J1*%
X61380000Y-42000000D03*
D16*
X63920000Y-42000000D03*
X61380000Y-44540000D03*
X63920000Y-44540000D03*
%TD*%
D15*
%TO.C,J5*%
X42000000Y-55000000D03*
D16*
X44540000Y-55000000D03*
X47080000Y-55000000D03*
%TD*%
D17*
%TO.C,M21*%
X78500000Y-50050000D03*
X78500000Y-51950000D03*
%TD*%
%TO.C,M12*%
X44540000Y-89050000D03*
X44540000Y-90950000D03*
%TD*%
%TO.C,M23*%
X78500000Y-76050000D03*
X78500000Y-77950000D03*
%TD*%
%TO.C,M10*%
X44540000Y-63050000D03*
X44540000Y-64950000D03*
%TD*%
%TO.C,M20*%
X47550000Y-89050000D03*
X47550000Y-90950000D03*
%TD*%
%TO.C,M9*%
X44540000Y-50050000D03*
X44540000Y-51950000D03*
%TD*%
%TO.C,M13*%
X75490000Y-50050000D03*
X75490000Y-51950000D03*
%TD*%
%TO.C,M19*%
X47550000Y-76050000D03*
X47550000Y-77950000D03*
%TD*%
%TO.C,M14*%
X75490000Y-63050000D03*
X75490000Y-64950000D03*
%TD*%
%TO.C,M2*%
X41530000Y-63050000D03*
X41530000Y-64950000D03*
%TD*%
%TO.C,M4*%
X41530000Y-89050000D03*
X41530000Y-90950000D03*
%TD*%
%TO.C,M22*%
X78500000Y-63050000D03*
X78500000Y-64950000D03*
%TD*%
%TO.C,M16*%
X75500000Y-89050000D03*
X75500000Y-90950000D03*
%TD*%
%TO.C,M18*%
X47550000Y-63050000D03*
X47550000Y-64950000D03*
%TD*%
%TO.C,M6*%
X72480000Y-63050000D03*
X72480000Y-64950000D03*
%TD*%
%TO.C,M11*%
X44540000Y-76050000D03*
X44540000Y-77950000D03*
%TD*%
%TO.C,M7*%
X72480000Y-76050000D03*
X72480000Y-77950000D03*
%TD*%
%TO.C,M15*%
X75490000Y-76050000D03*
X75490000Y-77950000D03*
%TD*%
%TO.C,M24*%
X78510000Y-89050000D03*
X78510000Y-90950000D03*
%TD*%
%TO.C,M17*%
X47550000Y-50050000D03*
X47550000Y-51950000D03*
%TD*%
%TO.C,M5*%
X72480000Y-50050000D03*
X72480000Y-51950000D03*
%TD*%
%TO.C,M8*%
X72490000Y-89050000D03*
X72490000Y-90950000D03*
%TD*%
%TO.C,M3*%
X41530000Y-76050000D03*
X41530000Y-77950000D03*
%TD*%
%TO.C,M1*%
X41530000Y-50050000D03*
X41530000Y-51950000D03*
%TD*%
%LPD*%
M02*
