M48
; DRILL file {KiCad 8.0.3} date 2024-06-28T14:01:33-0700
; FORMAT={-:-/ absolute / inch / decimal}
; #@! TF.CreationDate,2024-06-28T14:01:33-07:00
; #@! TF.GenerationSoftware,Kicad,Pcbnew,8.0.3
; #@! TF.FileFunction,Plated,1,2,PTH
FMAT,2
INCH
; #@! TA.AperFunction,Plated,PTH,ViaDrill
T1C0.0118
; #@! TA.AperFunction,Plated,PTH,ViaDrill
T2C0.0138
; #@! TA.AperFunction,Plated,PTH,ComponentDrill
T3C0.0394
%
G90
G05
T1
X2.6516Y-2.874
X2.7283Y-2.7303
T2
X1.565Y-2.002
X1.565Y-2.5118
X1.565Y-3.0256
X1.565Y-3.5374
X1.6535Y-1.748
X1.6535Y-2.2638
X1.6535Y-2.7756
X1.6535Y-3.2913
X1.8543Y-1.748
X1.8543Y-2.2638
X1.8543Y-2.7756
X1.8543Y-3.2913
X1.8543Y-3.8661
X1.9409Y-2.0059
X1.9409Y-2.5157
X1.9409Y-3.0295
X1.9409Y-3.5413
X2.0669Y-2.0039
X2.0669Y-2.378
X2.0906Y-2.6831
X2.1457Y-2.9311
X2.1614Y-2.7323
X2.1673Y-3.1614
X2.1673Y-3.5591
X2.2559Y-2.1909
X2.2559Y-2.435
X2.2638Y-1.685
X2.3031Y-2.6004
X2.3169Y-1.9547
X2.3209Y-2.8051
X2.3622Y-2.8622
X2.3681Y-3.0531
X2.3681Y-3.7028
X2.4016Y-2.5945
X2.4035Y-2.9213
X2.4055Y-2.6929
X2.4469Y-2.1102
X2.4587Y-2.3937
X2.5531Y-3.1614
X2.5531Y-3.5591
X2.5787Y-2.8465
X2.5827Y-2.5531
X2.628Y-1.9685
X2.628Y-2.2854
X2.6457Y-2.7126
X2.6555Y-1.6496
X2.7835Y-2.0039
X2.7835Y-2.5138
X2.7835Y-3.0276
X2.7835Y-3.5394
X2.872Y-3.8661
X2.874Y-1.748
X2.874Y-2.2618
X2.874Y-2.7756
X2.874Y-3.2894
X3.0748Y-1.748
X3.0748Y-2.2618
X3.0748Y-2.7756
X3.0748Y-3.2894
X3.1594Y-2.0079
X3.1594Y-2.5177
X3.1594Y-3.0315
X3.1594Y-3.5433
T3
X1.6535Y-1.8504
X1.6535Y-2.1654
X1.6535Y-2.3622
X1.6535Y-2.6772
X1.6535Y-2.874
X1.6535Y-3.189
X1.6535Y-3.3858
X1.6535Y-3.7008
X1.7535Y-1.8504
X1.7535Y-2.1654
X1.7535Y-2.3622
X1.7535Y-2.6772
X1.7535Y-2.874
X1.7535Y-3.189
X1.7535Y-3.3858
X1.7535Y-3.7008
X1.826Y-1.6535
X1.8535Y-1.8504
X1.8535Y-2.1654
X1.8535Y-2.3622
X1.8535Y-2.6772
X1.8535Y-2.874
X1.8535Y-3.189
X1.8535Y-3.3858
X1.8535Y-3.7008
X1.926Y-1.6535
X2.026Y-1.6535
X2.126Y-1.6535
X2.2098Y-3.8583
X2.3098Y-3.8583
X2.4098Y-3.8583
X2.4165Y-1.6535
X2.4165Y-1.7535
X2.5098Y-3.8583
X2.5165Y-1.6535
X2.5165Y-1.7535
X2.7921Y-1.6535
X2.872Y-1.8504
X2.872Y-2.1654
X2.872Y-2.3622
X2.872Y-2.6772
X2.872Y-2.874
X2.872Y-3.189
X2.872Y-3.3858
X2.872Y-3.7008
X2.8921Y-1.6535
X2.972Y-1.8504
X2.972Y-2.1654
X2.972Y-2.3622
X2.972Y-2.6772
X2.972Y-2.874
X2.972Y-3.189
X2.972Y-3.3858
X2.972Y-3.7008
X3.072Y-1.8504
X3.072Y-2.1654
X3.072Y-2.3622
X3.072Y-2.6772
X3.072Y-2.874
X3.072Y-3.189
X3.072Y-3.3858
X3.072Y-3.7008
M30
