%TF.GenerationSoftware,KiCad,Pcbnew,8.0.3*%
%TF.CreationDate,2024-06-28T14:01:33-07:00*%
%TF.ProjectId,smartstake-mux-breakout,736d6172-7473-4746-916b-652d6d75782d,rev?*%
%TF.SameCoordinates,Original*%
%TF.FileFunction,Soldermask,Bot*%
%TF.FilePolarity,Negative*%
%FSLAX46Y46*%
G04 Gerber Fmt 4.6, Leading zero omitted, Abs format (unit mm)*
G04 Created by KiCad (PCBNEW 8.0.3) date 2024-06-28 14:01:33*
%MOMM*%
%LPD*%
G01*
G04 APERTURE LIST*
G04 Aperture macros list*
%AMRoundRect*
0 Rectangle with rounded corners*
0 $1 Rounding radius*
0 $2 $3 $4 $5 $6 $7 $8 $9 X,Y pos of 4 corners*
0 Add a 4 corners polygon primitive as box body*
4,1,4,$2,$3,$4,$5,$6,$7,$8,$9,$2,$3,0*
0 Add four circle primitives for the rounded corners*
1,1,$1+$1,$2,$3*
1,1,$1+$1,$4,$5*
1,1,$1+$1,$6,$7*
1,1,$1+$1,$8,$9*
0 Add four rect primitives between the rounded corners*
20,1,$1+$1,$2,$3,$4,$5,0*
20,1,$1+$1,$4,$5,$6,$7,0*
20,1,$1+$1,$6,$7,$8,$9,0*
20,1,$1+$1,$8,$9,$2,$3,0*%
G04 Aperture macros list end*
%ADD10R,1.700000X1.700000*%
%ADD11O,1.700000X1.700000*%
%ADD12RoundRect,0.250000X-0.475000X0.250000X-0.475000X-0.250000X0.475000X-0.250000X0.475000X0.250000X0*%
G04 APERTURE END LIST*
D10*
%TO.C,J20*%
X56130000Y-98000000D03*
D11*
X58670000Y-98000000D03*
X61210000Y-98000000D03*
X63750000Y-98000000D03*
%TD*%
D10*
%TO.C,J4*%
X42000000Y-47000000D03*
D11*
X44540000Y-47000000D03*
X47080000Y-47000000D03*
%TD*%
D10*
%TO.C,J18*%
X72950000Y-86000000D03*
D11*
X75490000Y-86000000D03*
X78030000Y-86000000D03*
%TD*%
D10*
%TO.C,J11*%
X42000000Y-94000000D03*
D11*
X44540000Y-94000000D03*
X47080000Y-94000000D03*
%TD*%
D10*
%TO.C,J19*%
X72950000Y-94000000D03*
D11*
X75490000Y-94000000D03*
X78030000Y-94000000D03*
%TD*%
D10*
%TO.C,J2*%
X46380000Y-42000000D03*
D11*
X48920000Y-42000000D03*
X51460000Y-42000000D03*
X54000000Y-42000000D03*
%TD*%
D10*
%TO.C,J10*%
X42000000Y-86000000D03*
D11*
X44540000Y-86000000D03*
X47080000Y-86000000D03*
%TD*%
D10*
%TO.C,J7*%
X42000000Y-68000000D03*
D11*
X44540000Y-68000000D03*
X47080000Y-68000000D03*
%TD*%
D10*
%TO.C,J15*%
X72950000Y-68000000D03*
D11*
X75490000Y-68000000D03*
X78030000Y-68000000D03*
%TD*%
D10*
%TO.C,J12*%
X72950000Y-47000000D03*
D11*
X75490000Y-47000000D03*
X78030000Y-47000000D03*
%TD*%
D10*
%TO.C,J13*%
X72950000Y-55000000D03*
D11*
X75490000Y-55000000D03*
X78030000Y-55000000D03*
%TD*%
D10*
%TO.C,J3*%
X70920000Y-42000000D03*
D11*
X73460000Y-42000000D03*
%TD*%
D10*
%TO.C,J17*%
X72950000Y-81000000D03*
D11*
X75490000Y-81000000D03*
X78030000Y-81000000D03*
%TD*%
D10*
%TO.C,J14*%
X72950000Y-60000000D03*
D11*
X75490000Y-60000000D03*
X78030000Y-60000000D03*
%TD*%
D10*
%TO.C,J8*%
X42000000Y-73000000D03*
D11*
X44540000Y-73000000D03*
X47080000Y-73000000D03*
%TD*%
D10*
%TO.C,J16*%
X72950000Y-73000000D03*
D11*
X75490000Y-73000000D03*
X78030000Y-73000000D03*
%TD*%
D10*
%TO.C,J9*%
X42000000Y-81000000D03*
D11*
X44540000Y-81000000D03*
X47080000Y-81000000D03*
%TD*%
D10*
%TO.C,J6*%
X42000000Y-60000000D03*
D11*
X44540000Y-60000000D03*
X47080000Y-60000000D03*
%TD*%
D10*
%TO.C,J1*%
X61380000Y-42000000D03*
D11*
X63920000Y-42000000D03*
X61380000Y-44540000D03*
X63920000Y-44540000D03*
%TD*%
D10*
%TO.C,J5*%
X42000000Y-55000000D03*
D11*
X44540000Y-55000000D03*
X47080000Y-55000000D03*
%TD*%
D12*
%TO.C,M21*%
X78500000Y-50050000D03*
X78500000Y-51950000D03*
%TD*%
%TO.C,M12*%
X44540000Y-89050000D03*
X44540000Y-90950000D03*
%TD*%
%TO.C,M23*%
X78500000Y-76050000D03*
X78500000Y-77950000D03*
%TD*%
%TO.C,M10*%
X44540000Y-63050000D03*
X44540000Y-64950000D03*
%TD*%
%TO.C,M20*%
X47550000Y-89050000D03*
X47550000Y-90950000D03*
%TD*%
%TO.C,M9*%
X44540000Y-50050000D03*
X44540000Y-51950000D03*
%TD*%
%TO.C,M13*%
X75490000Y-50050000D03*
X75490000Y-51950000D03*
%TD*%
%TO.C,M19*%
X47550000Y-76050000D03*
X47550000Y-77950000D03*
%TD*%
%TO.C,M14*%
X75490000Y-63050000D03*
X75490000Y-64950000D03*
%TD*%
%TO.C,M2*%
X41530000Y-63050000D03*
X41530000Y-64950000D03*
%TD*%
%TO.C,M4*%
X41530000Y-89050000D03*
X41530000Y-90950000D03*
%TD*%
%TO.C,M22*%
X78500000Y-63050000D03*
X78500000Y-64950000D03*
%TD*%
%TO.C,M16*%
X75500000Y-89050000D03*
X75500000Y-90950000D03*
%TD*%
%TO.C,M18*%
X47550000Y-63050000D03*
X47550000Y-64950000D03*
%TD*%
%TO.C,M6*%
X72480000Y-63050000D03*
X72480000Y-64950000D03*
%TD*%
%TO.C,M11*%
X44540000Y-76050000D03*
X44540000Y-77950000D03*
%TD*%
%TO.C,M7*%
X72480000Y-76050000D03*
X72480000Y-77950000D03*
%TD*%
%TO.C,M15*%
X75490000Y-76050000D03*
X75490000Y-77950000D03*
%TD*%
%TO.C,M24*%
X78510000Y-89050000D03*
X78510000Y-90950000D03*
%TD*%
%TO.C,M17*%
X47550000Y-50050000D03*
X47550000Y-51950000D03*
%TD*%
%TO.C,M5*%
X72480000Y-50050000D03*
X72480000Y-51950000D03*
%TD*%
%TO.C,M8*%
X72490000Y-89050000D03*
X72490000Y-90950000D03*
%TD*%
%TO.C,M3*%
X41530000Y-76050000D03*
X41530000Y-77950000D03*
%TD*%
%TO.C,M1*%
X41530000Y-50050000D03*
X41530000Y-51950000D03*
%TD*%
M02*
